<mxfile host="app.diagrams.net" agent="Mozilla/5.0 (Windows NT 10.0; Win64; x64) AppleWebKit/537.36 (KHTML, like Gecko) Chrome/135.0.0.0 Safari/537.36 OPR/120.0.0.0" version="28.1.0">
  <diagram name="Page-1" id="xL-EW1PpZhmb-_P6E261">
    <mxGraphModel dx="1486" dy="803" grid="1" gridSize="10" guides="1" tooltips="1" connect="1" arrows="1" fold="1" page="1" pageScale="1" pageWidth="850" pageHeight="1100" math="0" shadow="0">
      <root>
        <mxCell id="0" />
        <mxCell id="1" parent="0" />
        <mxCell id="vHsZxBeeYl8psc7XBQ7O-668" value="" style="group" vertex="1" connectable="0" parent="1">
          <mxGeometry x="520" y="280" width="200" height="160" as="geometry" />
        </mxCell>
        <mxCell id="vHsZxBeeYl8psc7XBQ7O-335" value="" style="whiteSpace=wrap;html=1;aspect=fixed;fillColor=#B3FF66;container=0;strokeColor=default;" vertex="1" parent="vHsZxBeeYl8psc7XBQ7O-668">
          <mxGeometry width="20" height="20" as="geometry" />
        </mxCell>
        <mxCell id="vHsZxBeeYl8psc7XBQ7O-336" value="" style="whiteSpace=wrap;html=1;aspect=fixed;fillColor=#B3FF66;container=0;strokeColor=default;" vertex="1" parent="vHsZxBeeYl8psc7XBQ7O-668">
          <mxGeometry y="20" width="20" height="20" as="geometry" />
        </mxCell>
        <mxCell id="vHsZxBeeYl8psc7XBQ7O-337" value="" style="whiteSpace=wrap;html=1;aspect=fixed;fillColor=#B3FF66;container=0;strokeColor=default;" vertex="1" parent="vHsZxBeeYl8psc7XBQ7O-668">
          <mxGeometry x="20" width="20" height="20" as="geometry" />
        </mxCell>
        <mxCell id="vHsZxBeeYl8psc7XBQ7O-270" value="" style="group" vertex="1" connectable="0" parent="vHsZxBeeYl8psc7XBQ7O-668">
          <mxGeometry x="40" y="-40" width="160" height="160" as="geometry" />
        </mxCell>
        <mxCell id="vHsZxBeeYl8psc7XBQ7O-271" value="" style="whiteSpace=wrap;html=1;aspect=fixed;fillColor=#E6FFCC;container=0;strokeColor=#FFFFFF;" vertex="1" parent="vHsZxBeeYl8psc7XBQ7O-270">
          <mxGeometry width="20" height="20" as="geometry" />
        </mxCell>
        <mxCell id="vHsZxBeeYl8psc7XBQ7O-272" value="" style="whiteSpace=wrap;html=1;aspect=fixed;fillColor=#E6FFCC;container=0;strokeColor=#FFFFFF;" vertex="1" parent="vHsZxBeeYl8psc7XBQ7O-270">
          <mxGeometry y="20" width="20" height="20" as="geometry" />
        </mxCell>
        <mxCell id="vHsZxBeeYl8psc7XBQ7O-273" value="" style="whiteSpace=wrap;html=1;aspect=fixed;fillColor=#E6FFCC;container=0;strokeColor=#FFFFFF;" vertex="1" parent="vHsZxBeeYl8psc7XBQ7O-270">
          <mxGeometry x="20" width="20" height="20" as="geometry" />
        </mxCell>
        <mxCell id="vHsZxBeeYl8psc7XBQ7O-274" value="" style="whiteSpace=wrap;html=1;aspect=fixed;fillColor=#E6FFCC;container=0;strokeColor=#FFFFFF;" vertex="1" parent="vHsZxBeeYl8psc7XBQ7O-270">
          <mxGeometry x="20" y="20" width="20" height="20" as="geometry" />
        </mxCell>
        <mxCell id="vHsZxBeeYl8psc7XBQ7O-275" value="" style="whiteSpace=wrap;html=1;aspect=fixed;fillColor=#E6FFCC;container=0;strokeColor=#FFFFFF;" vertex="1" parent="vHsZxBeeYl8psc7XBQ7O-270">
          <mxGeometry x="40" width="20" height="20" as="geometry" />
        </mxCell>
        <mxCell id="vHsZxBeeYl8psc7XBQ7O-276" value="" style="whiteSpace=wrap;html=1;aspect=fixed;fillColor=#E6FFCC;container=0;strokeColor=#FFFFFF;" vertex="1" parent="vHsZxBeeYl8psc7XBQ7O-270">
          <mxGeometry x="40" y="20" width="20" height="20" as="geometry" />
        </mxCell>
        <mxCell id="vHsZxBeeYl8psc7XBQ7O-277" value="" style="whiteSpace=wrap;html=1;aspect=fixed;fillColor=#99FFFF;container=0;strokeColor=#FFFFFF;" vertex="1" parent="vHsZxBeeYl8psc7XBQ7O-270">
          <mxGeometry x="60" width="20" height="20" as="geometry" />
        </mxCell>
        <mxCell id="vHsZxBeeYl8psc7XBQ7O-278" value="" style="whiteSpace=wrap;html=1;aspect=fixed;fillColor=#99FFFF;container=0;strokeColor=#FFFFFF;" vertex="1" parent="vHsZxBeeYl8psc7XBQ7O-270">
          <mxGeometry x="60" y="20" width="20" height="20" as="geometry" />
        </mxCell>
        <mxCell id="vHsZxBeeYl8psc7XBQ7O-279" value="" style="whiteSpace=wrap;html=1;aspect=fixed;fillColor=#E6FFCC;container=0;strokeColor=#FFFFFF;" vertex="1" parent="vHsZxBeeYl8psc7XBQ7O-270">
          <mxGeometry y="40" width="20" height="20" as="geometry" />
        </mxCell>
        <mxCell id="vHsZxBeeYl8psc7XBQ7O-280" value="" style="whiteSpace=wrap;html=1;aspect=fixed;fillColor=#E6FFCC;container=0;strokeColor=#FFFFFF;" vertex="1" parent="vHsZxBeeYl8psc7XBQ7O-270">
          <mxGeometry y="60" width="20" height="20" as="geometry" />
        </mxCell>
        <mxCell id="vHsZxBeeYl8psc7XBQ7O-281" value="" style="whiteSpace=wrap;html=1;aspect=fixed;fillColor=#E6FFCC;container=0;strokeColor=#FFFFFF;" vertex="1" parent="vHsZxBeeYl8psc7XBQ7O-270">
          <mxGeometry x="20" y="40" width="20" height="20" as="geometry" />
        </mxCell>
        <mxCell id="vHsZxBeeYl8psc7XBQ7O-282" value="" style="whiteSpace=wrap;html=1;aspect=fixed;fillColor=#E6FFCC;container=0;strokeColor=#FFFFFF;" vertex="1" parent="vHsZxBeeYl8psc7XBQ7O-270">
          <mxGeometry x="20" y="60" width="20" height="20" as="geometry" />
        </mxCell>
        <mxCell id="vHsZxBeeYl8psc7XBQ7O-283" value="" style="whiteSpace=wrap;html=1;aspect=fixed;fillColor=#E6FFCC;container=0;strokeColor=#FFFFFF;" vertex="1" parent="vHsZxBeeYl8psc7XBQ7O-270">
          <mxGeometry x="40" y="40" width="20" height="20" as="geometry" />
        </mxCell>
        <mxCell id="vHsZxBeeYl8psc7XBQ7O-284" value="" style="whiteSpace=wrap;html=1;aspect=fixed;fillColor=#E6FFCC;container=0;strokeColor=#FFFFFF;" vertex="1" parent="vHsZxBeeYl8psc7XBQ7O-270">
          <mxGeometry x="40" y="60" width="20" height="20" as="geometry" />
        </mxCell>
        <mxCell id="vHsZxBeeYl8psc7XBQ7O-285" value="" style="whiteSpace=wrap;html=1;aspect=fixed;fillColor=#E6FFCC;container=0;strokeColor=#FFFFFF;" vertex="1" parent="vHsZxBeeYl8psc7XBQ7O-270">
          <mxGeometry x="60" y="40" width="20" height="20" as="geometry" />
        </mxCell>
        <mxCell id="vHsZxBeeYl8psc7XBQ7O-286" value="" style="whiteSpace=wrap;html=1;aspect=fixed;fillColor=#E6FFCC;container=0;strokeColor=#FFFFFF;" vertex="1" parent="vHsZxBeeYl8psc7XBQ7O-270">
          <mxGeometry x="60" y="60" width="20" height="20" as="geometry" />
        </mxCell>
        <mxCell id="vHsZxBeeYl8psc7XBQ7O-287" value="" style="whiteSpace=wrap;html=1;aspect=fixed;fillColor=#E6FFCC;container=0;strokeColor=#FFFFFF;" vertex="1" parent="vHsZxBeeYl8psc7XBQ7O-270">
          <mxGeometry x="80" width="20" height="20" as="geometry" />
        </mxCell>
        <mxCell id="vHsZxBeeYl8psc7XBQ7O-288" value="" style="whiteSpace=wrap;html=1;aspect=fixed;fillColor=#E6FFCC;container=0;strokeColor=#FFFFFF;" vertex="1" parent="vHsZxBeeYl8psc7XBQ7O-270">
          <mxGeometry x="80" y="20" width="20" height="20" as="geometry" />
        </mxCell>
        <mxCell id="vHsZxBeeYl8psc7XBQ7O-289" value="" style="whiteSpace=wrap;html=1;aspect=fixed;fillColor=#E6FFCC;container=0;strokeColor=#FFFFFF;" vertex="1" parent="vHsZxBeeYl8psc7XBQ7O-270">
          <mxGeometry x="100" width="20" height="20" as="geometry" />
        </mxCell>
        <mxCell id="vHsZxBeeYl8psc7XBQ7O-290" value="" style="whiteSpace=wrap;html=1;aspect=fixed;fillColor=#E6FFCC;container=0;strokeColor=#FFFFFF;" vertex="1" parent="vHsZxBeeYl8psc7XBQ7O-270">
          <mxGeometry x="100" y="20" width="20" height="20" as="geometry" />
        </mxCell>
        <mxCell id="vHsZxBeeYl8psc7XBQ7O-291" value="" style="whiteSpace=wrap;html=1;aspect=fixed;fillColor=#E6FFCC;container=0;strokeColor=#FFFFFF;" vertex="1" parent="vHsZxBeeYl8psc7XBQ7O-270">
          <mxGeometry x="120" width="20" height="20" as="geometry" />
        </mxCell>
        <mxCell id="vHsZxBeeYl8psc7XBQ7O-292" value="" style="whiteSpace=wrap;html=1;aspect=fixed;fillColor=#E6FFCC;container=0;strokeColor=#FFFFFF;" vertex="1" parent="vHsZxBeeYl8psc7XBQ7O-270">
          <mxGeometry x="120" y="20" width="20" height="20" as="geometry" />
        </mxCell>
        <mxCell id="vHsZxBeeYl8psc7XBQ7O-293" value="" style="whiteSpace=wrap;html=1;aspect=fixed;fillColor=#E6FFCC;container=0;strokeColor=#FFFFFF;" vertex="1" parent="vHsZxBeeYl8psc7XBQ7O-270">
          <mxGeometry x="140" width="20" height="20" as="geometry" />
        </mxCell>
        <mxCell id="vHsZxBeeYl8psc7XBQ7O-294" value="" style="whiteSpace=wrap;html=1;aspect=fixed;fillColor=#E6FFCC;container=0;strokeColor=#FFFFFF;" vertex="1" parent="vHsZxBeeYl8psc7XBQ7O-270">
          <mxGeometry x="140" y="20" width="20" height="20" as="geometry" />
        </mxCell>
        <mxCell id="vHsZxBeeYl8psc7XBQ7O-295" value="" style="whiteSpace=wrap;html=1;aspect=fixed;fillColor=#E6FFCC;container=0;strokeColor=#FFFFFF;" vertex="1" parent="vHsZxBeeYl8psc7XBQ7O-270">
          <mxGeometry x="80" y="40" width="20" height="20" as="geometry" />
        </mxCell>
        <mxCell id="vHsZxBeeYl8psc7XBQ7O-296" value="" style="whiteSpace=wrap;html=1;aspect=fixed;fillColor=#E6FFCC;container=0;strokeColor=#FFFFFF;" vertex="1" parent="vHsZxBeeYl8psc7XBQ7O-270">
          <mxGeometry x="80" y="60" width="20" height="20" as="geometry" />
        </mxCell>
        <mxCell id="vHsZxBeeYl8psc7XBQ7O-297" value="" style="whiteSpace=wrap;html=1;aspect=fixed;fillColor=#E6FFCC;container=0;strokeColor=#FFFFFF;" vertex="1" parent="vHsZxBeeYl8psc7XBQ7O-270">
          <mxGeometry x="100" y="40" width="20" height="20" as="geometry" />
        </mxCell>
        <mxCell id="vHsZxBeeYl8psc7XBQ7O-298" value="" style="whiteSpace=wrap;html=1;aspect=fixed;fillColor=#E6FFCC;container=0;strokeColor=#FFFFFF;" vertex="1" parent="vHsZxBeeYl8psc7XBQ7O-270">
          <mxGeometry x="100" y="60" width="20" height="20" as="geometry" />
        </mxCell>
        <mxCell id="vHsZxBeeYl8psc7XBQ7O-299" value="" style="whiteSpace=wrap;html=1;aspect=fixed;fillColor=#E6FFCC;container=0;strokeColor=#FFFFFF;" vertex="1" parent="vHsZxBeeYl8psc7XBQ7O-270">
          <mxGeometry x="120" y="40" width="20" height="20" as="geometry" />
        </mxCell>
        <mxCell id="vHsZxBeeYl8psc7XBQ7O-300" value="" style="whiteSpace=wrap;html=1;aspect=fixed;fillColor=#E6FFCC;container=0;strokeColor=#FFFFFF;" vertex="1" parent="vHsZxBeeYl8psc7XBQ7O-270">
          <mxGeometry x="120" y="60" width="20" height="20" as="geometry" />
        </mxCell>
        <mxCell id="vHsZxBeeYl8psc7XBQ7O-301" value="" style="whiteSpace=wrap;html=1;aspect=fixed;fillColor=#E6FFCC;container=0;strokeColor=#FFFFFF;" vertex="1" parent="vHsZxBeeYl8psc7XBQ7O-270">
          <mxGeometry x="140" y="40" width="20" height="20" as="geometry" />
        </mxCell>
        <mxCell id="vHsZxBeeYl8psc7XBQ7O-302" value="" style="whiteSpace=wrap;html=1;aspect=fixed;fillColor=#E6FFCC;container=0;strokeColor=#FFFFFF;" vertex="1" parent="vHsZxBeeYl8psc7XBQ7O-270">
          <mxGeometry x="140" y="60" width="20" height="20" as="geometry" />
        </mxCell>
        <mxCell id="vHsZxBeeYl8psc7XBQ7O-303" value="" style="whiteSpace=wrap;html=1;aspect=fixed;fillColor=#E6FFCC;container=0;strokeColor=#FFFFFF;" vertex="1" parent="vHsZxBeeYl8psc7XBQ7O-270">
          <mxGeometry y="80" width="20" height="20" as="geometry" />
        </mxCell>
        <mxCell id="vHsZxBeeYl8psc7XBQ7O-304" value="" style="whiteSpace=wrap;html=1;aspect=fixed;fillColor=#E6FFCC;container=0;strokeColor=#FFFFFF;" vertex="1" parent="vHsZxBeeYl8psc7XBQ7O-270">
          <mxGeometry y="100" width="20" height="20" as="geometry" />
        </mxCell>
        <mxCell id="vHsZxBeeYl8psc7XBQ7O-305" value="" style="whiteSpace=wrap;html=1;aspect=fixed;fillColor=#E6FFCC;container=0;strokeColor=#FFFFFF;" vertex="1" parent="vHsZxBeeYl8psc7XBQ7O-270">
          <mxGeometry x="20" y="80" width="20" height="20" as="geometry" />
        </mxCell>
        <mxCell id="vHsZxBeeYl8psc7XBQ7O-306" value="" style="whiteSpace=wrap;html=1;aspect=fixed;fillColor=#E6FFCC;container=0;strokeColor=#FFFFFF;" vertex="1" parent="vHsZxBeeYl8psc7XBQ7O-270">
          <mxGeometry x="20" y="100" width="20" height="20" as="geometry" />
        </mxCell>
        <mxCell id="vHsZxBeeYl8psc7XBQ7O-307" value="" style="whiteSpace=wrap;html=1;aspect=fixed;fillColor=#E6FFCC;container=0;strokeColor=#FFFFFF;" vertex="1" parent="vHsZxBeeYl8psc7XBQ7O-270">
          <mxGeometry x="40" y="80" width="20" height="20" as="geometry" />
        </mxCell>
        <mxCell id="vHsZxBeeYl8psc7XBQ7O-308" value="" style="whiteSpace=wrap;html=1;aspect=fixed;fillColor=#E6FFCC;container=0;strokeColor=#FFFFFF;" vertex="1" parent="vHsZxBeeYl8psc7XBQ7O-270">
          <mxGeometry x="40" y="100" width="20" height="20" as="geometry" />
        </mxCell>
        <mxCell id="vHsZxBeeYl8psc7XBQ7O-309" value="" style="whiteSpace=wrap;html=1;aspect=fixed;fillColor=#E6FFCC;container=0;strokeColor=#FFFFFF;" vertex="1" parent="vHsZxBeeYl8psc7XBQ7O-270">
          <mxGeometry x="60" y="80" width="20" height="20" as="geometry" />
        </mxCell>
        <mxCell id="vHsZxBeeYl8psc7XBQ7O-310" value="" style="whiteSpace=wrap;html=1;aspect=fixed;fillColor=#E6FFCC;container=0;strokeColor=#FFFFFF;" vertex="1" parent="vHsZxBeeYl8psc7XBQ7O-270">
          <mxGeometry x="60" y="100" width="20" height="20" as="geometry" />
        </mxCell>
        <mxCell id="vHsZxBeeYl8psc7XBQ7O-311" value="" style="whiteSpace=wrap;html=1;aspect=fixed;fillColor=#E6FFCC;container=0;strokeColor=#FFFFFF;" vertex="1" parent="vHsZxBeeYl8psc7XBQ7O-270">
          <mxGeometry y="120" width="20" height="20" as="geometry" />
        </mxCell>
        <mxCell id="vHsZxBeeYl8psc7XBQ7O-312" value="" style="whiteSpace=wrap;html=1;aspect=fixed;fillColor=#E6FFCC;container=0;strokeColor=#FFFFFF;" vertex="1" parent="vHsZxBeeYl8psc7XBQ7O-270">
          <mxGeometry y="140" width="20" height="20" as="geometry" />
        </mxCell>
        <mxCell id="vHsZxBeeYl8psc7XBQ7O-313" value="" style="whiteSpace=wrap;html=1;aspect=fixed;fillColor=#E6FFCC;container=0;strokeColor=#FFFFFF;" vertex="1" parent="vHsZxBeeYl8psc7XBQ7O-270">
          <mxGeometry x="20" y="120" width="20" height="20" as="geometry" />
        </mxCell>
        <mxCell id="vHsZxBeeYl8psc7XBQ7O-314" value="" style="whiteSpace=wrap;html=1;aspect=fixed;fillColor=#E6FFCC;container=0;strokeColor=#FFFFFF;" vertex="1" parent="vHsZxBeeYl8psc7XBQ7O-270">
          <mxGeometry x="20" y="140" width="20" height="20" as="geometry" />
        </mxCell>
        <mxCell id="vHsZxBeeYl8psc7XBQ7O-315" value="" style="whiteSpace=wrap;html=1;aspect=fixed;fillColor=#E6FFCC;container=0;strokeColor=#FFFFFF;" vertex="1" parent="vHsZxBeeYl8psc7XBQ7O-270">
          <mxGeometry x="40" y="120" width="20" height="20" as="geometry" />
        </mxCell>
        <mxCell id="vHsZxBeeYl8psc7XBQ7O-316" value="" style="whiteSpace=wrap;html=1;aspect=fixed;fillColor=#E6FFCC;container=0;strokeColor=#FFFFFF;" vertex="1" parent="vHsZxBeeYl8psc7XBQ7O-270">
          <mxGeometry x="40" y="140" width="20" height="20" as="geometry" />
        </mxCell>
        <mxCell id="vHsZxBeeYl8psc7XBQ7O-317" value="" style="whiteSpace=wrap;html=1;aspect=fixed;fillColor=#E6FFCC;container=0;strokeColor=#FFFFFF;" vertex="1" parent="vHsZxBeeYl8psc7XBQ7O-270">
          <mxGeometry x="60" y="120" width="20" height="20" as="geometry" />
        </mxCell>
        <mxCell id="vHsZxBeeYl8psc7XBQ7O-318" value="" style="whiteSpace=wrap;html=1;aspect=fixed;fillColor=#E6FFCC;container=0;strokeColor=#FFFFFF;" vertex="1" parent="vHsZxBeeYl8psc7XBQ7O-270">
          <mxGeometry x="60" y="140" width="20" height="20" as="geometry" />
        </mxCell>
        <mxCell id="vHsZxBeeYl8psc7XBQ7O-319" value="" style="whiteSpace=wrap;html=1;aspect=fixed;fillColor=#E6FFCC;container=0;strokeColor=#FFFFFF;" vertex="1" parent="vHsZxBeeYl8psc7XBQ7O-270">
          <mxGeometry x="80" y="80" width="20" height="20" as="geometry" />
        </mxCell>
        <mxCell id="vHsZxBeeYl8psc7XBQ7O-320" value="" style="whiteSpace=wrap;html=1;aspect=fixed;fillColor=#E6FFCC;container=0;strokeColor=#FFFFFF;" vertex="1" parent="vHsZxBeeYl8psc7XBQ7O-270">
          <mxGeometry x="100" y="80" width="20" height="20" as="geometry" />
        </mxCell>
        <mxCell id="vHsZxBeeYl8psc7XBQ7O-321" value="" style="whiteSpace=wrap;html=1;aspect=fixed;fillColor=#E6FFCC;container=0;strokeColor=#FFFFFF;" vertex="1" parent="vHsZxBeeYl8psc7XBQ7O-270">
          <mxGeometry x="80" y="100" width="20" height="20" as="geometry" />
        </mxCell>
        <mxCell id="vHsZxBeeYl8psc7XBQ7O-322" value="" style="whiteSpace=wrap;html=1;aspect=fixed;fillColor=#E6FFCC;container=0;strokeColor=#FFFFFF;" vertex="1" parent="vHsZxBeeYl8psc7XBQ7O-270">
          <mxGeometry x="100" y="100" width="20" height="20" as="geometry" />
        </mxCell>
        <mxCell id="vHsZxBeeYl8psc7XBQ7O-323" value="" style="whiteSpace=wrap;html=1;aspect=fixed;fillColor=#E6FFCC;container=0;strokeColor=#FFFFFF;" vertex="1" parent="vHsZxBeeYl8psc7XBQ7O-270">
          <mxGeometry x="120" y="80" width="20" height="20" as="geometry" />
        </mxCell>
        <mxCell id="vHsZxBeeYl8psc7XBQ7O-324" value="" style="whiteSpace=wrap;html=1;aspect=fixed;fillColor=#E6FFCC;container=0;strokeColor=#FFFFFF;" vertex="1" parent="vHsZxBeeYl8psc7XBQ7O-270">
          <mxGeometry x="120" y="100" width="20" height="20" as="geometry" />
        </mxCell>
        <mxCell id="vHsZxBeeYl8psc7XBQ7O-325" value="" style="whiteSpace=wrap;html=1;aspect=fixed;fillColor=#E6FFCC;container=0;strokeColor=#FFFFFF;" vertex="1" parent="vHsZxBeeYl8psc7XBQ7O-270">
          <mxGeometry x="140" y="80" width="20" height="20" as="geometry" />
        </mxCell>
        <mxCell id="vHsZxBeeYl8psc7XBQ7O-326" value="" style="whiteSpace=wrap;html=1;aspect=fixed;fillColor=#E6FFCC;container=0;strokeColor=#FFFFFF;" vertex="1" parent="vHsZxBeeYl8psc7XBQ7O-270">
          <mxGeometry x="140" y="100" width="20" height="20" as="geometry" />
        </mxCell>
        <mxCell id="vHsZxBeeYl8psc7XBQ7O-327" value="" style="whiteSpace=wrap;html=1;aspect=fixed;fillColor=#E6FFCC;container=0;strokeColor=#FFFFFF;" vertex="1" parent="vHsZxBeeYl8psc7XBQ7O-270">
          <mxGeometry x="80" y="120" width="20" height="20" as="geometry" />
        </mxCell>
        <mxCell id="vHsZxBeeYl8psc7XBQ7O-328" value="" style="whiteSpace=wrap;html=1;aspect=fixed;fillColor=#E6FFCC;container=0;strokeColor=#FFFFFF;" vertex="1" parent="vHsZxBeeYl8psc7XBQ7O-270">
          <mxGeometry x="80" y="140" width="20" height="20" as="geometry" />
        </mxCell>
        <mxCell id="vHsZxBeeYl8psc7XBQ7O-329" value="" style="whiteSpace=wrap;html=1;aspect=fixed;fillColor=#E6FFCC;container=0;strokeColor=#FFFFFF;" vertex="1" parent="vHsZxBeeYl8psc7XBQ7O-270">
          <mxGeometry x="100" y="120" width="20" height="20" as="geometry" />
        </mxCell>
        <mxCell id="vHsZxBeeYl8psc7XBQ7O-330" value="" style="whiteSpace=wrap;html=1;aspect=fixed;fillColor=#E6FFCC;container=0;strokeColor=#FFFFFF;" vertex="1" parent="vHsZxBeeYl8psc7XBQ7O-270">
          <mxGeometry x="100" y="140" width="20" height="20" as="geometry" />
        </mxCell>
        <mxCell id="vHsZxBeeYl8psc7XBQ7O-331" value="" style="whiteSpace=wrap;html=1;aspect=fixed;fillColor=#E6FFCC;container=0;strokeColor=#FFFFFF;" vertex="1" parent="vHsZxBeeYl8psc7XBQ7O-270">
          <mxGeometry x="120" y="120" width="20" height="20" as="geometry" />
        </mxCell>
        <mxCell id="vHsZxBeeYl8psc7XBQ7O-332" value="" style="whiteSpace=wrap;html=1;aspect=fixed;fillColor=#E6FFCC;container=0;strokeColor=#FFFFFF;" vertex="1" parent="vHsZxBeeYl8psc7XBQ7O-270">
          <mxGeometry x="120" y="140" width="20" height="20" as="geometry" />
        </mxCell>
        <mxCell id="vHsZxBeeYl8psc7XBQ7O-333" value="" style="whiteSpace=wrap;html=1;aspect=fixed;fillColor=#E6FFCC;container=0;strokeColor=#FFFFFF;" vertex="1" parent="vHsZxBeeYl8psc7XBQ7O-270">
          <mxGeometry x="140" y="120" width="20" height="20" as="geometry" />
        </mxCell>
        <mxCell id="vHsZxBeeYl8psc7XBQ7O-334" value="" style="whiteSpace=wrap;html=1;aspect=fixed;fillColor=#E6FFCC;container=0;strokeColor=#FFFFFF;" vertex="1" parent="vHsZxBeeYl8psc7XBQ7O-270">
          <mxGeometry x="140" y="140" width="20" height="20" as="geometry" />
        </mxCell>
        <mxCell id="vHsZxBeeYl8psc7XBQ7O-338" value="" style="whiteSpace=wrap;html=1;aspect=fixed;fillColor=#B3FF66;container=0;strokeColor=default;" vertex="1" parent="vHsZxBeeYl8psc7XBQ7O-668">
          <mxGeometry x="20" y="20" width="20" height="20" as="geometry" />
        </mxCell>
        <mxCell id="vHsZxBeeYl8psc7XBQ7O-339" value="" style="whiteSpace=wrap;html=1;aspect=fixed;fillColor=#B3FF66;container=0;strokeColor=default;" vertex="1" parent="vHsZxBeeYl8psc7XBQ7O-668">
          <mxGeometry x="40" width="20" height="20" as="geometry" />
        </mxCell>
        <mxCell id="vHsZxBeeYl8psc7XBQ7O-340" value="" style="whiteSpace=wrap;html=1;aspect=fixed;fillColor=#B3FF66;container=0;strokeColor=default;" vertex="1" parent="vHsZxBeeYl8psc7XBQ7O-668">
          <mxGeometry x="40" y="20" width="20" height="20" as="geometry" />
        </mxCell>
        <mxCell id="vHsZxBeeYl8psc7XBQ7O-341" value="" style="whiteSpace=wrap;html=1;aspect=fixed;fillColor=#00FFFF;container=0;strokeColor=default;" vertex="1" parent="vHsZxBeeYl8psc7XBQ7O-668">
          <mxGeometry x="60" width="20" height="20" as="geometry" />
        </mxCell>
        <mxCell id="vHsZxBeeYl8psc7XBQ7O-342" value="" style="whiteSpace=wrap;html=1;aspect=fixed;fillColor=#00FFFF;container=0;strokeColor=default;" vertex="1" parent="vHsZxBeeYl8psc7XBQ7O-668">
          <mxGeometry x="60" y="20" width="20" height="20" as="geometry" />
        </mxCell>
        <mxCell id="vHsZxBeeYl8psc7XBQ7O-343" value="" style="whiteSpace=wrap;html=1;aspect=fixed;fillColor=#B3FF66;container=0;strokeColor=default;" vertex="1" parent="vHsZxBeeYl8psc7XBQ7O-668">
          <mxGeometry y="40" width="20" height="20" as="geometry" />
        </mxCell>
        <mxCell id="vHsZxBeeYl8psc7XBQ7O-344" value="" style="whiteSpace=wrap;html=1;aspect=fixed;fillColor=#B3FF66;container=0;strokeColor=default;" vertex="1" parent="vHsZxBeeYl8psc7XBQ7O-668">
          <mxGeometry y="60" width="20" height="20" as="geometry" />
        </mxCell>
        <mxCell id="vHsZxBeeYl8psc7XBQ7O-345" value="" style="whiteSpace=wrap;html=1;aspect=fixed;fillColor=#B3FF66;container=0;strokeColor=default;" vertex="1" parent="vHsZxBeeYl8psc7XBQ7O-668">
          <mxGeometry x="20" y="40" width="20" height="20" as="geometry" />
        </mxCell>
        <mxCell id="vHsZxBeeYl8psc7XBQ7O-346" value="" style="whiteSpace=wrap;html=1;aspect=fixed;fillColor=#B3FF66;container=0;strokeColor=default;" vertex="1" parent="vHsZxBeeYl8psc7XBQ7O-668">
          <mxGeometry x="20" y="60" width="20" height="20" as="geometry" />
        </mxCell>
        <mxCell id="vHsZxBeeYl8psc7XBQ7O-347" value="" style="whiteSpace=wrap;html=1;aspect=fixed;fillColor=#B3FF66;container=0;strokeColor=default;" vertex="1" parent="vHsZxBeeYl8psc7XBQ7O-668">
          <mxGeometry x="40" y="40" width="20" height="20" as="geometry" />
        </mxCell>
        <mxCell id="vHsZxBeeYl8psc7XBQ7O-348" value="" style="whiteSpace=wrap;html=1;aspect=fixed;fillColor=#B3FF66;container=0;strokeColor=default;" vertex="1" parent="vHsZxBeeYl8psc7XBQ7O-668">
          <mxGeometry x="40" y="60" width="20" height="20" as="geometry" />
        </mxCell>
        <mxCell id="vHsZxBeeYl8psc7XBQ7O-349" value="" style="whiteSpace=wrap;html=1;aspect=fixed;fillColor=#00FFFF;container=0;strokeColor=default;" vertex="1" parent="vHsZxBeeYl8psc7XBQ7O-668">
          <mxGeometry x="60" y="40" width="20" height="20" as="geometry" />
        </mxCell>
        <mxCell id="vHsZxBeeYl8psc7XBQ7O-350" value="" style="whiteSpace=wrap;html=1;aspect=fixed;fillColor=#330000;container=0;strokeColor=#330000;" vertex="1" parent="vHsZxBeeYl8psc7XBQ7O-668">
          <mxGeometry x="60" y="60" width="20" height="20" as="geometry" />
        </mxCell>
        <mxCell id="vHsZxBeeYl8psc7XBQ7O-351" value="" style="whiteSpace=wrap;html=1;aspect=fixed;fillColor=#B3FF66;container=0;strokeColor=default;" vertex="1" parent="vHsZxBeeYl8psc7XBQ7O-668">
          <mxGeometry x="80" width="20" height="20" as="geometry" />
        </mxCell>
        <mxCell id="vHsZxBeeYl8psc7XBQ7O-352" value="" style="whiteSpace=wrap;html=1;aspect=fixed;fillColor=#B3FF66;container=0;strokeColor=default;" vertex="1" parent="vHsZxBeeYl8psc7XBQ7O-668">
          <mxGeometry x="80" y="20" width="20" height="20" as="geometry" />
        </mxCell>
        <mxCell id="vHsZxBeeYl8psc7XBQ7O-353" value="" style="whiteSpace=wrap;html=1;aspect=fixed;fillColor=#B3FF66;container=0;strokeColor=default;" vertex="1" parent="vHsZxBeeYl8psc7XBQ7O-668">
          <mxGeometry x="100" width="20" height="20" as="geometry" />
        </mxCell>
        <mxCell id="vHsZxBeeYl8psc7XBQ7O-354" value="" style="whiteSpace=wrap;html=1;aspect=fixed;fillColor=#B3FF66;container=0;strokeColor=default;" vertex="1" parent="vHsZxBeeYl8psc7XBQ7O-668">
          <mxGeometry x="100" y="20" width="20" height="20" as="geometry" />
        </mxCell>
        <mxCell id="vHsZxBeeYl8psc7XBQ7O-355" value="" style="whiteSpace=wrap;html=1;aspect=fixed;fillColor=#B3FF66;container=0;strokeColor=default;" vertex="1" parent="vHsZxBeeYl8psc7XBQ7O-668">
          <mxGeometry x="120" width="20" height="20" as="geometry" />
        </mxCell>
        <mxCell id="vHsZxBeeYl8psc7XBQ7O-356" value="" style="whiteSpace=wrap;html=1;aspect=fixed;fillColor=#B3FF66;container=0;strokeColor=default;" vertex="1" parent="vHsZxBeeYl8psc7XBQ7O-668">
          <mxGeometry x="120" y="20" width="20" height="20" as="geometry" />
        </mxCell>
        <mxCell id="vHsZxBeeYl8psc7XBQ7O-357" value="" style="whiteSpace=wrap;html=1;aspect=fixed;fillColor=#B3FF66;container=0;strokeColor=default;" vertex="1" parent="vHsZxBeeYl8psc7XBQ7O-668">
          <mxGeometry x="140" width="20" height="20" as="geometry" />
        </mxCell>
        <mxCell id="vHsZxBeeYl8psc7XBQ7O-358" value="" style="whiteSpace=wrap;html=1;aspect=fixed;fillColor=#B3FF66;container=0;strokeColor=default;" vertex="1" parent="vHsZxBeeYl8psc7XBQ7O-668">
          <mxGeometry x="140" y="20" width="20" height="20" as="geometry" />
        </mxCell>
        <mxCell id="vHsZxBeeYl8psc7XBQ7O-359" value="" style="whiteSpace=wrap;html=1;aspect=fixed;fillColor=#B3FF66;container=0;strokeColor=default;" vertex="1" parent="vHsZxBeeYl8psc7XBQ7O-668">
          <mxGeometry x="80" y="40" width="20" height="20" as="geometry" />
        </mxCell>
        <mxCell id="vHsZxBeeYl8psc7XBQ7O-360" value="" style="whiteSpace=wrap;html=1;aspect=fixed;fillColor=#B3FF66;container=0;strokeColor=default;" vertex="1" parent="vHsZxBeeYl8psc7XBQ7O-668">
          <mxGeometry x="80" y="60" width="20" height="20" as="geometry" />
        </mxCell>
        <mxCell id="vHsZxBeeYl8psc7XBQ7O-361" value="" style="whiteSpace=wrap;html=1;aspect=fixed;fillColor=#B3FF66;container=0;strokeColor=default;" vertex="1" parent="vHsZxBeeYl8psc7XBQ7O-668">
          <mxGeometry x="100" y="40" width="20" height="20" as="geometry" />
        </mxCell>
        <mxCell id="vHsZxBeeYl8psc7XBQ7O-362" value="" style="whiteSpace=wrap;html=1;aspect=fixed;fillColor=#B3FF66;container=0;strokeColor=default;" vertex="1" parent="vHsZxBeeYl8psc7XBQ7O-668">
          <mxGeometry x="100" y="60" width="20" height="20" as="geometry" />
        </mxCell>
        <mxCell id="vHsZxBeeYl8psc7XBQ7O-363" value="" style="whiteSpace=wrap;html=1;aspect=fixed;fillColor=#B3FF66;container=0;strokeColor=default;" vertex="1" parent="vHsZxBeeYl8psc7XBQ7O-668">
          <mxGeometry x="120" y="40" width="20" height="20" as="geometry" />
        </mxCell>
        <mxCell id="vHsZxBeeYl8psc7XBQ7O-364" value="" style="whiteSpace=wrap;html=1;aspect=fixed;fillColor=#B3FF66;container=0;strokeColor=default;" vertex="1" parent="vHsZxBeeYl8psc7XBQ7O-668">
          <mxGeometry x="120" y="60" width="20" height="20" as="geometry" />
        </mxCell>
        <mxCell id="vHsZxBeeYl8psc7XBQ7O-365" value="" style="whiteSpace=wrap;html=1;aspect=fixed;fillColor=#B3FF66;container=0;strokeColor=default;" vertex="1" parent="vHsZxBeeYl8psc7XBQ7O-668">
          <mxGeometry x="140" y="40" width="20" height="20" as="geometry" />
        </mxCell>
        <mxCell id="vHsZxBeeYl8psc7XBQ7O-366" value="" style="whiteSpace=wrap;html=1;aspect=fixed;fillColor=#B3FF66;container=0;strokeColor=default;" vertex="1" parent="vHsZxBeeYl8psc7XBQ7O-668">
          <mxGeometry x="140" y="60" width="20" height="20" as="geometry" />
        </mxCell>
        <mxCell id="vHsZxBeeYl8psc7XBQ7O-367" value="" style="whiteSpace=wrap;html=1;aspect=fixed;fillColor=#B3FF66;container=0;strokeColor=default;" vertex="1" parent="vHsZxBeeYl8psc7XBQ7O-668">
          <mxGeometry y="80" width="20" height="20" as="geometry" />
        </mxCell>
        <mxCell id="vHsZxBeeYl8psc7XBQ7O-368" value="" style="whiteSpace=wrap;html=1;aspect=fixed;fillColor=#B3FF66;container=0;strokeColor=default;" vertex="1" parent="vHsZxBeeYl8psc7XBQ7O-668">
          <mxGeometry y="100" width="20" height="20" as="geometry" />
        </mxCell>
        <mxCell id="vHsZxBeeYl8psc7XBQ7O-369" value="" style="whiteSpace=wrap;html=1;aspect=fixed;fillColor=#B3FF66;container=0;strokeColor=default;" vertex="1" parent="vHsZxBeeYl8psc7XBQ7O-668">
          <mxGeometry x="20" y="80" width="20" height="20" as="geometry" />
        </mxCell>
        <mxCell id="vHsZxBeeYl8psc7XBQ7O-370" value="" style="whiteSpace=wrap;html=1;aspect=fixed;fillColor=#B3FF66;container=0;strokeColor=default;" vertex="1" parent="vHsZxBeeYl8psc7XBQ7O-668">
          <mxGeometry x="20" y="100" width="20" height="20" as="geometry" />
        </mxCell>
        <mxCell id="vHsZxBeeYl8psc7XBQ7O-371" value="" style="whiteSpace=wrap;html=1;aspect=fixed;fillColor=#B3FF66;container=0;strokeColor=default;" vertex="1" parent="vHsZxBeeYl8psc7XBQ7O-668">
          <mxGeometry x="40" y="80" width="20" height="20" as="geometry" />
        </mxCell>
        <mxCell id="vHsZxBeeYl8psc7XBQ7O-372" value="" style="whiteSpace=wrap;html=1;aspect=fixed;fillColor=#B3FF66;container=0;strokeColor=default;" vertex="1" parent="vHsZxBeeYl8psc7XBQ7O-668">
          <mxGeometry x="40" y="100" width="20" height="20" as="geometry" />
        </mxCell>
        <mxCell id="vHsZxBeeYl8psc7XBQ7O-373" value="" style="whiteSpace=wrap;html=1;aspect=fixed;fillColor=#00FFFF;container=0;strokeColor=default;" vertex="1" parent="vHsZxBeeYl8psc7XBQ7O-668">
          <mxGeometry x="60" y="80" width="20" height="20" as="geometry" />
        </mxCell>
        <mxCell id="vHsZxBeeYl8psc7XBQ7O-374" value="" style="whiteSpace=wrap;html=1;aspect=fixed;fillColor=#00FFFF;container=0;strokeColor=default;" vertex="1" parent="vHsZxBeeYl8psc7XBQ7O-668">
          <mxGeometry x="60" y="100" width="20" height="20" as="geometry" />
        </mxCell>
        <mxCell id="vHsZxBeeYl8psc7XBQ7O-375" value="" style="whiteSpace=wrap;html=1;aspect=fixed;fillColor=#B3FF66;container=0;strokeColor=default;" vertex="1" parent="vHsZxBeeYl8psc7XBQ7O-668">
          <mxGeometry y="120" width="20" height="20" as="geometry" />
        </mxCell>
        <mxCell id="vHsZxBeeYl8psc7XBQ7O-376" value="" style="whiteSpace=wrap;html=1;aspect=fixed;fillColor=#B3FF66;container=0;strokeColor=default;" vertex="1" parent="vHsZxBeeYl8psc7XBQ7O-668">
          <mxGeometry y="140" width="20" height="20" as="geometry" />
        </mxCell>
        <mxCell id="vHsZxBeeYl8psc7XBQ7O-377" value="" style="whiteSpace=wrap;html=1;aspect=fixed;fillColor=#B3FF66;container=0;strokeColor=default;" vertex="1" parent="vHsZxBeeYl8psc7XBQ7O-668">
          <mxGeometry x="20" y="120" width="20" height="20" as="geometry" />
        </mxCell>
        <mxCell id="vHsZxBeeYl8psc7XBQ7O-378" value="" style="whiteSpace=wrap;html=1;aspect=fixed;fillColor=#B3FF66;container=0;strokeColor=default;" vertex="1" parent="vHsZxBeeYl8psc7XBQ7O-668">
          <mxGeometry x="20" y="140" width="20" height="20" as="geometry" />
        </mxCell>
        <mxCell id="vHsZxBeeYl8psc7XBQ7O-379" value="" style="whiteSpace=wrap;html=1;aspect=fixed;fillColor=#B3FF66;container=0;strokeColor=default;" vertex="1" parent="vHsZxBeeYl8psc7XBQ7O-668">
          <mxGeometry x="40" y="120" width="20" height="20" as="geometry" />
        </mxCell>
        <mxCell id="vHsZxBeeYl8psc7XBQ7O-380" value="" style="whiteSpace=wrap;html=1;aspect=fixed;fillColor=#B3FF66;container=0;strokeColor=default;" vertex="1" parent="vHsZxBeeYl8psc7XBQ7O-668">
          <mxGeometry x="40" y="140" width="20" height="20" as="geometry" />
        </mxCell>
        <mxCell id="vHsZxBeeYl8psc7XBQ7O-381" value="" style="whiteSpace=wrap;html=1;aspect=fixed;fillColor=#00FFFF;container=0;strokeColor=default;" vertex="1" parent="vHsZxBeeYl8psc7XBQ7O-668">
          <mxGeometry x="60" y="120" width="20" height="20" as="geometry" />
        </mxCell>
        <mxCell id="vHsZxBeeYl8psc7XBQ7O-382" value="" style="whiteSpace=wrap;html=1;aspect=fixed;fillColor=#00FFFF;container=0;strokeColor=default;" vertex="1" parent="vHsZxBeeYl8psc7XBQ7O-668">
          <mxGeometry x="60" y="140" width="20" height="20" as="geometry" />
        </mxCell>
        <mxCell id="vHsZxBeeYl8psc7XBQ7O-383" value="" style="whiteSpace=wrap;html=1;aspect=fixed;fillColor=#B3FF66;container=0;strokeColor=default;" vertex="1" parent="vHsZxBeeYl8psc7XBQ7O-668">
          <mxGeometry x="80" y="80" width="20" height="20" as="geometry" />
        </mxCell>
        <mxCell id="vHsZxBeeYl8psc7XBQ7O-384" value="" style="whiteSpace=wrap;html=1;aspect=fixed;fillColor=#B3FF66;container=0;strokeColor=default;" vertex="1" parent="vHsZxBeeYl8psc7XBQ7O-668">
          <mxGeometry x="80" y="100" width="20" height="20" as="geometry" />
        </mxCell>
        <mxCell id="vHsZxBeeYl8psc7XBQ7O-385" value="" style="whiteSpace=wrap;html=1;aspect=fixed;fillColor=#B3FF66;container=0;strokeColor=default;" vertex="1" parent="vHsZxBeeYl8psc7XBQ7O-668">
          <mxGeometry x="100" y="80" width="20" height="20" as="geometry" />
        </mxCell>
        <mxCell id="vHsZxBeeYl8psc7XBQ7O-386" value="" style="whiteSpace=wrap;html=1;aspect=fixed;fillColor=#B3FF66;container=0;strokeColor=default;" vertex="1" parent="vHsZxBeeYl8psc7XBQ7O-668">
          <mxGeometry x="100" y="100" width="20" height="20" as="geometry" />
        </mxCell>
        <mxCell id="vHsZxBeeYl8psc7XBQ7O-387" value="" style="whiteSpace=wrap;html=1;aspect=fixed;fillColor=#B3FF66;container=0;strokeColor=default;" vertex="1" parent="vHsZxBeeYl8psc7XBQ7O-668">
          <mxGeometry x="120" y="80" width="20" height="20" as="geometry" />
        </mxCell>
        <mxCell id="vHsZxBeeYl8psc7XBQ7O-388" value="" style="whiteSpace=wrap;html=1;aspect=fixed;fillColor=#B3FF66;container=0;strokeColor=default;" vertex="1" parent="vHsZxBeeYl8psc7XBQ7O-668">
          <mxGeometry x="120" y="100" width="20" height="20" as="geometry" />
        </mxCell>
        <mxCell id="vHsZxBeeYl8psc7XBQ7O-389" value="" style="whiteSpace=wrap;html=1;aspect=fixed;fillColor=#B3FF66;container=0;strokeColor=default;" vertex="1" parent="vHsZxBeeYl8psc7XBQ7O-668">
          <mxGeometry x="140" y="80" width="20" height="20" as="geometry" />
        </mxCell>
        <mxCell id="vHsZxBeeYl8psc7XBQ7O-390" value="" style="whiteSpace=wrap;html=1;aspect=fixed;fillColor=#B3FF66;container=0;strokeColor=default;" vertex="1" parent="vHsZxBeeYl8psc7XBQ7O-668">
          <mxGeometry x="140" y="100" width="20" height="20" as="geometry" />
        </mxCell>
        <mxCell id="vHsZxBeeYl8psc7XBQ7O-391" value="" style="whiteSpace=wrap;html=1;aspect=fixed;fillColor=#B3FF66;container=0;strokeColor=default;" vertex="1" parent="vHsZxBeeYl8psc7XBQ7O-668">
          <mxGeometry x="80" y="120" width="20" height="20" as="geometry" />
        </mxCell>
        <mxCell id="vHsZxBeeYl8psc7XBQ7O-392" value="" style="whiteSpace=wrap;html=1;aspect=fixed;fillColor=#B3FF66;container=0;strokeColor=default;" vertex="1" parent="vHsZxBeeYl8psc7XBQ7O-668">
          <mxGeometry x="80" y="140" width="20" height="20" as="geometry" />
        </mxCell>
        <mxCell id="vHsZxBeeYl8psc7XBQ7O-393" value="" style="whiteSpace=wrap;html=1;aspect=fixed;fillColor=#B3FF66;container=0;strokeColor=default;" vertex="1" parent="vHsZxBeeYl8psc7XBQ7O-668">
          <mxGeometry x="100" y="120" width="20" height="20" as="geometry" />
        </mxCell>
        <mxCell id="vHsZxBeeYl8psc7XBQ7O-394" value="" style="whiteSpace=wrap;html=1;aspect=fixed;fillColor=#B3FF66;container=0;strokeColor=default;" vertex="1" parent="vHsZxBeeYl8psc7XBQ7O-668">
          <mxGeometry x="100" y="140" width="20" height="20" as="geometry" />
        </mxCell>
        <mxCell id="vHsZxBeeYl8psc7XBQ7O-395" value="" style="whiteSpace=wrap;html=1;aspect=fixed;fillColor=#B3FF66;container=0;strokeColor=default;" vertex="1" parent="vHsZxBeeYl8psc7XBQ7O-668">
          <mxGeometry x="120" y="120" width="20" height="20" as="geometry" />
        </mxCell>
        <mxCell id="vHsZxBeeYl8psc7XBQ7O-396" value="" style="whiteSpace=wrap;html=1;aspect=fixed;fillColor=#B3FF66;container=0;strokeColor=default;" vertex="1" parent="vHsZxBeeYl8psc7XBQ7O-668">
          <mxGeometry x="120" y="140" width="20" height="20" as="geometry" />
        </mxCell>
        <mxCell id="vHsZxBeeYl8psc7XBQ7O-397" value="" style="whiteSpace=wrap;html=1;aspect=fixed;fillColor=#B3FF66;container=0;strokeColor=default;" vertex="1" parent="vHsZxBeeYl8psc7XBQ7O-668">
          <mxGeometry x="140" y="120" width="20" height="20" as="geometry" />
        </mxCell>
        <mxCell id="vHsZxBeeYl8psc7XBQ7O-398" value="" style="whiteSpace=wrap;html=1;aspect=fixed;fillColor=#B3FF66;container=0;strokeColor=default;" vertex="1" parent="vHsZxBeeYl8psc7XBQ7O-668">
          <mxGeometry x="140" y="140" width="20" height="20" as="geometry" />
        </mxCell>
        <mxCell id="vHsZxBeeYl8psc7XBQ7O-136" value="" style="group" vertex="1" connectable="0" parent="1">
          <mxGeometry x="160" y="120" width="160" height="160" as="geometry" />
        </mxCell>
        <mxCell id="vHsZxBeeYl8psc7XBQ7O-67" value="" style="whiteSpace=wrap;html=1;aspect=fixed;fillColor=#E6FFCC;container=0;strokeColor=#FFFFFF;" vertex="1" parent="vHsZxBeeYl8psc7XBQ7O-136">
          <mxGeometry width="20" height="20" as="geometry" />
        </mxCell>
        <mxCell id="vHsZxBeeYl8psc7XBQ7O-68" value="" style="whiteSpace=wrap;html=1;aspect=fixed;fillColor=#E6FFCC;container=0;strokeColor=#FFFFFF;" vertex="1" parent="vHsZxBeeYl8psc7XBQ7O-136">
          <mxGeometry y="20" width="20" height="20" as="geometry" />
        </mxCell>
        <mxCell id="vHsZxBeeYl8psc7XBQ7O-69" value="" style="whiteSpace=wrap;html=1;aspect=fixed;fillColor=#E6FFCC;container=0;strokeColor=#FFFFFF;" vertex="1" parent="vHsZxBeeYl8psc7XBQ7O-136">
          <mxGeometry x="20" width="20" height="20" as="geometry" />
        </mxCell>
        <mxCell id="vHsZxBeeYl8psc7XBQ7O-70" value="" style="whiteSpace=wrap;html=1;aspect=fixed;fillColor=#E6FFCC;container=0;strokeColor=#FFFFFF;" vertex="1" parent="vHsZxBeeYl8psc7XBQ7O-136">
          <mxGeometry x="20" y="20" width="20" height="20" as="geometry" />
        </mxCell>
        <mxCell id="vHsZxBeeYl8psc7XBQ7O-71" value="" style="whiteSpace=wrap;html=1;aspect=fixed;fillColor=#E6FFCC;container=0;strokeColor=#FFFFFF;" vertex="1" parent="vHsZxBeeYl8psc7XBQ7O-136">
          <mxGeometry x="40" width="20" height="20" as="geometry" />
        </mxCell>
        <mxCell id="vHsZxBeeYl8psc7XBQ7O-72" value="" style="whiteSpace=wrap;html=1;aspect=fixed;fillColor=#E6FFCC;container=0;strokeColor=#FFFFFF;" vertex="1" parent="vHsZxBeeYl8psc7XBQ7O-136">
          <mxGeometry x="40" y="20" width="20" height="20" as="geometry" />
        </mxCell>
        <mxCell id="vHsZxBeeYl8psc7XBQ7O-73" value="" style="whiteSpace=wrap;html=1;aspect=fixed;fillColor=#E6FFCC;container=0;strokeColor=#FFFFFF;" vertex="1" parent="vHsZxBeeYl8psc7XBQ7O-136">
          <mxGeometry x="60" width="20" height="20" as="geometry" />
        </mxCell>
        <mxCell id="vHsZxBeeYl8psc7XBQ7O-74" value="" style="whiteSpace=wrap;html=1;aspect=fixed;fillColor=#E6FFCC;container=0;strokeColor=#FFFFFF;" vertex="1" parent="vHsZxBeeYl8psc7XBQ7O-136">
          <mxGeometry x="60" y="20" width="20" height="20" as="geometry" />
        </mxCell>
        <mxCell id="vHsZxBeeYl8psc7XBQ7O-75" value="" style="whiteSpace=wrap;html=1;aspect=fixed;fillColor=#E6FFCC;container=0;strokeColor=#FFFFFF;" vertex="1" parent="vHsZxBeeYl8psc7XBQ7O-136">
          <mxGeometry y="40" width="20" height="20" as="geometry" />
        </mxCell>
        <mxCell id="vHsZxBeeYl8psc7XBQ7O-76" value="" style="whiteSpace=wrap;html=1;aspect=fixed;fillColor=#E6FFCC;container=0;strokeColor=#FFFFFF;" vertex="1" parent="vHsZxBeeYl8psc7XBQ7O-136">
          <mxGeometry y="60" width="20" height="20" as="geometry" />
        </mxCell>
        <mxCell id="vHsZxBeeYl8psc7XBQ7O-77" value="" style="whiteSpace=wrap;html=1;aspect=fixed;fillColor=#E6FFCC;container=0;strokeColor=#FFFFFF;" vertex="1" parent="vHsZxBeeYl8psc7XBQ7O-136">
          <mxGeometry x="20" y="40" width="20" height="20" as="geometry" />
        </mxCell>
        <mxCell id="vHsZxBeeYl8psc7XBQ7O-78" value="" style="whiteSpace=wrap;html=1;aspect=fixed;fillColor=#E6FFCC;container=0;strokeColor=#FFFFFF;" vertex="1" parent="vHsZxBeeYl8psc7XBQ7O-136">
          <mxGeometry x="20" y="60" width="20" height="20" as="geometry" />
        </mxCell>
        <mxCell id="vHsZxBeeYl8psc7XBQ7O-79" value="" style="whiteSpace=wrap;html=1;aspect=fixed;fillColor=#E6FFCC;container=0;strokeColor=#FFFFFF;" vertex="1" parent="vHsZxBeeYl8psc7XBQ7O-136">
          <mxGeometry x="40" y="40" width="20" height="20" as="geometry" />
        </mxCell>
        <mxCell id="vHsZxBeeYl8psc7XBQ7O-80" value="" style="whiteSpace=wrap;html=1;aspect=fixed;fillColor=#E6FFCC;container=0;strokeColor=#FFFFFF;" vertex="1" parent="vHsZxBeeYl8psc7XBQ7O-136">
          <mxGeometry x="40" y="60" width="20" height="20" as="geometry" />
        </mxCell>
        <mxCell id="vHsZxBeeYl8psc7XBQ7O-81" value="" style="whiteSpace=wrap;html=1;aspect=fixed;fillColor=#E6FFCC;container=0;strokeColor=#FFFFFF;" vertex="1" parent="vHsZxBeeYl8psc7XBQ7O-136">
          <mxGeometry x="60" y="40" width="20" height="20" as="geometry" />
        </mxCell>
        <mxCell id="vHsZxBeeYl8psc7XBQ7O-82" value="" style="whiteSpace=wrap;html=1;aspect=fixed;fillColor=#E6FFCC;container=0;strokeColor=#FFFFFF;" vertex="1" parent="vHsZxBeeYl8psc7XBQ7O-136">
          <mxGeometry x="60" y="60" width="20" height="20" as="geometry" />
        </mxCell>
        <mxCell id="vHsZxBeeYl8psc7XBQ7O-83" value="" style="whiteSpace=wrap;html=1;aspect=fixed;fillColor=#E6FFCC;container=0;strokeColor=#FFFFFF;" vertex="1" parent="vHsZxBeeYl8psc7XBQ7O-136">
          <mxGeometry x="80" width="20" height="20" as="geometry" />
        </mxCell>
        <mxCell id="vHsZxBeeYl8psc7XBQ7O-84" value="" style="whiteSpace=wrap;html=1;aspect=fixed;fillColor=#E6FFCC;container=0;strokeColor=#FFFFFF;" vertex="1" parent="vHsZxBeeYl8psc7XBQ7O-136">
          <mxGeometry x="80" y="20" width="20" height="20" as="geometry" />
        </mxCell>
        <mxCell id="vHsZxBeeYl8psc7XBQ7O-85" value="" style="whiteSpace=wrap;html=1;aspect=fixed;fillColor=#E6FFCC;container=0;strokeColor=#FFFFFF;" vertex="1" parent="vHsZxBeeYl8psc7XBQ7O-136">
          <mxGeometry x="100" width="20" height="20" as="geometry" />
        </mxCell>
        <mxCell id="vHsZxBeeYl8psc7XBQ7O-86" value="" style="whiteSpace=wrap;html=1;aspect=fixed;fillColor=#E6FFCC;container=0;strokeColor=#FFFFFF;" vertex="1" parent="vHsZxBeeYl8psc7XBQ7O-136">
          <mxGeometry x="100" y="20" width="20" height="20" as="geometry" />
        </mxCell>
        <mxCell id="vHsZxBeeYl8psc7XBQ7O-87" value="" style="whiteSpace=wrap;html=1;aspect=fixed;fillColor=#E6FFCC;container=0;strokeColor=#FFFFFF;" vertex="1" parent="vHsZxBeeYl8psc7XBQ7O-136">
          <mxGeometry x="120" width="20" height="20" as="geometry" />
        </mxCell>
        <mxCell id="vHsZxBeeYl8psc7XBQ7O-88" value="" style="whiteSpace=wrap;html=1;aspect=fixed;fillColor=#E6FFCC;container=0;strokeColor=#FFFFFF;" vertex="1" parent="vHsZxBeeYl8psc7XBQ7O-136">
          <mxGeometry x="120" y="20" width="20" height="20" as="geometry" />
        </mxCell>
        <mxCell id="vHsZxBeeYl8psc7XBQ7O-89" value="" style="whiteSpace=wrap;html=1;aspect=fixed;fillColor=#E6FFCC;container=0;strokeColor=#FFFFFF;" vertex="1" parent="vHsZxBeeYl8psc7XBQ7O-136">
          <mxGeometry x="140" width="20" height="20" as="geometry" />
        </mxCell>
        <mxCell id="vHsZxBeeYl8psc7XBQ7O-90" value="" style="whiteSpace=wrap;html=1;aspect=fixed;fillColor=#E6FFCC;container=0;strokeColor=#FFFFFF;" vertex="1" parent="vHsZxBeeYl8psc7XBQ7O-136">
          <mxGeometry x="140" y="20" width="20" height="20" as="geometry" />
        </mxCell>
        <mxCell id="vHsZxBeeYl8psc7XBQ7O-91" value="" style="whiteSpace=wrap;html=1;aspect=fixed;fillColor=#E6FFCC;container=0;strokeColor=#FFFFFF;" vertex="1" parent="vHsZxBeeYl8psc7XBQ7O-136">
          <mxGeometry x="80" y="40" width="20" height="20" as="geometry" />
        </mxCell>
        <mxCell id="vHsZxBeeYl8psc7XBQ7O-92" value="" style="whiteSpace=wrap;html=1;aspect=fixed;fillColor=#E6FFCC;container=0;strokeColor=#FFFFFF;" vertex="1" parent="vHsZxBeeYl8psc7XBQ7O-136">
          <mxGeometry x="80" y="60" width="20" height="20" as="geometry" />
        </mxCell>
        <mxCell id="vHsZxBeeYl8psc7XBQ7O-93" value="" style="whiteSpace=wrap;html=1;aspect=fixed;fillColor=#E6FFCC;container=0;strokeColor=#FFFFFF;" vertex="1" parent="vHsZxBeeYl8psc7XBQ7O-136">
          <mxGeometry x="100" y="40" width="20" height="20" as="geometry" />
        </mxCell>
        <mxCell id="vHsZxBeeYl8psc7XBQ7O-94" value="" style="whiteSpace=wrap;html=1;aspect=fixed;fillColor=#E6FFCC;container=0;strokeColor=#FFFFFF;" vertex="1" parent="vHsZxBeeYl8psc7XBQ7O-136">
          <mxGeometry x="100" y="60" width="20" height="20" as="geometry" />
        </mxCell>
        <mxCell id="vHsZxBeeYl8psc7XBQ7O-95" value="" style="whiteSpace=wrap;html=1;aspect=fixed;fillColor=#E6FFCC;container=0;strokeColor=#FFFFFF;" vertex="1" parent="vHsZxBeeYl8psc7XBQ7O-136">
          <mxGeometry x="120" y="40" width="20" height="20" as="geometry" />
        </mxCell>
        <mxCell id="vHsZxBeeYl8psc7XBQ7O-96" value="" style="whiteSpace=wrap;html=1;aspect=fixed;fillColor=#E6FFCC;container=0;strokeColor=#FFFFFF;" vertex="1" parent="vHsZxBeeYl8psc7XBQ7O-136">
          <mxGeometry x="120" y="60" width="20" height="20" as="geometry" />
        </mxCell>
        <mxCell id="vHsZxBeeYl8psc7XBQ7O-97" value="" style="whiteSpace=wrap;html=1;aspect=fixed;fillColor=#E6FFCC;container=0;strokeColor=#FFFFFF;" vertex="1" parent="vHsZxBeeYl8psc7XBQ7O-136">
          <mxGeometry x="140" y="40" width="20" height="20" as="geometry" />
        </mxCell>
        <mxCell id="vHsZxBeeYl8psc7XBQ7O-98" value="" style="whiteSpace=wrap;html=1;aspect=fixed;fillColor=#E6FFCC;container=0;strokeColor=#FFFFFF;" vertex="1" parent="vHsZxBeeYl8psc7XBQ7O-136">
          <mxGeometry x="140" y="60" width="20" height="20" as="geometry" />
        </mxCell>
        <mxCell id="vHsZxBeeYl8psc7XBQ7O-99" value="" style="whiteSpace=wrap;html=1;aspect=fixed;fillColor=#E6FFCC;container=0;strokeColor=#FFFFFF;" vertex="1" parent="vHsZxBeeYl8psc7XBQ7O-136">
          <mxGeometry y="80" width="20" height="20" as="geometry" />
        </mxCell>
        <mxCell id="vHsZxBeeYl8psc7XBQ7O-100" value="" style="whiteSpace=wrap;html=1;aspect=fixed;fillColor=#E6FFCC;container=0;strokeColor=#FFFFFF;" vertex="1" parent="vHsZxBeeYl8psc7XBQ7O-136">
          <mxGeometry y="100" width="20" height="20" as="geometry" />
        </mxCell>
        <mxCell id="vHsZxBeeYl8psc7XBQ7O-101" value="" style="whiteSpace=wrap;html=1;aspect=fixed;fillColor=#E6FFCC;container=0;strokeColor=#FFFFFF;" vertex="1" parent="vHsZxBeeYl8psc7XBQ7O-136">
          <mxGeometry x="20" y="80" width="20" height="20" as="geometry" />
        </mxCell>
        <mxCell id="vHsZxBeeYl8psc7XBQ7O-102" value="" style="whiteSpace=wrap;html=1;aspect=fixed;fillColor=#E6FFCC;container=0;strokeColor=#FFFFFF;" vertex="1" parent="vHsZxBeeYl8psc7XBQ7O-136">
          <mxGeometry x="20" y="100" width="20" height="20" as="geometry" />
        </mxCell>
        <mxCell id="vHsZxBeeYl8psc7XBQ7O-103" value="" style="whiteSpace=wrap;html=1;aspect=fixed;fillColor=#E6FFCC;container=0;strokeColor=#FFFFFF;" vertex="1" parent="vHsZxBeeYl8psc7XBQ7O-136">
          <mxGeometry x="40" y="80" width="20" height="20" as="geometry" />
        </mxCell>
        <mxCell id="vHsZxBeeYl8psc7XBQ7O-104" value="" style="whiteSpace=wrap;html=1;aspect=fixed;fillColor=#E6FFCC;container=0;strokeColor=#FFFFFF;" vertex="1" parent="vHsZxBeeYl8psc7XBQ7O-136">
          <mxGeometry x="40" y="100" width="20" height="20" as="geometry" />
        </mxCell>
        <mxCell id="vHsZxBeeYl8psc7XBQ7O-105" value="" style="whiteSpace=wrap;html=1;aspect=fixed;fillColor=#E6FFCC;container=0;strokeColor=#FFFFFF;" vertex="1" parent="vHsZxBeeYl8psc7XBQ7O-136">
          <mxGeometry x="60" y="80" width="20" height="20" as="geometry" />
        </mxCell>
        <mxCell id="vHsZxBeeYl8psc7XBQ7O-106" value="" style="whiteSpace=wrap;html=1;aspect=fixed;fillColor=#E6FFCC;container=0;strokeColor=#FFFFFF;" vertex="1" parent="vHsZxBeeYl8psc7XBQ7O-136">
          <mxGeometry x="60" y="100" width="20" height="20" as="geometry" />
        </mxCell>
        <mxCell id="vHsZxBeeYl8psc7XBQ7O-107" value="" style="whiteSpace=wrap;html=1;aspect=fixed;fillColor=#E6FFCC;container=0;strokeColor=#FFFFFF;" vertex="1" parent="vHsZxBeeYl8psc7XBQ7O-136">
          <mxGeometry y="120" width="20" height="20" as="geometry" />
        </mxCell>
        <mxCell id="vHsZxBeeYl8psc7XBQ7O-108" value="" style="whiteSpace=wrap;html=1;aspect=fixed;fillColor=#E6FFCC;container=0;strokeColor=#FFFFFF;" vertex="1" parent="vHsZxBeeYl8psc7XBQ7O-136">
          <mxGeometry y="140" width="20" height="20" as="geometry" />
        </mxCell>
        <mxCell id="vHsZxBeeYl8psc7XBQ7O-109" value="" style="whiteSpace=wrap;html=1;aspect=fixed;fillColor=#E6FFCC;container=0;strokeColor=#FFFFFF;" vertex="1" parent="vHsZxBeeYl8psc7XBQ7O-136">
          <mxGeometry x="20" y="120" width="20" height="20" as="geometry" />
        </mxCell>
        <mxCell id="vHsZxBeeYl8psc7XBQ7O-110" value="" style="whiteSpace=wrap;html=1;aspect=fixed;fillColor=#E6FFCC;container=0;strokeColor=#FFFFFF;" vertex="1" parent="vHsZxBeeYl8psc7XBQ7O-136">
          <mxGeometry x="20" y="140" width="20" height="20" as="geometry" />
        </mxCell>
        <mxCell id="vHsZxBeeYl8psc7XBQ7O-111" value="" style="whiteSpace=wrap;html=1;aspect=fixed;fillColor=#E6FFCC;container=0;strokeColor=#FFFFFF;" vertex="1" parent="vHsZxBeeYl8psc7XBQ7O-136">
          <mxGeometry x="40" y="120" width="20" height="20" as="geometry" />
        </mxCell>
        <mxCell id="vHsZxBeeYl8psc7XBQ7O-112" value="" style="whiteSpace=wrap;html=1;aspect=fixed;fillColor=#E6FFCC;container=0;strokeColor=#FFFFFF;" vertex="1" parent="vHsZxBeeYl8psc7XBQ7O-136">
          <mxGeometry x="40" y="140" width="20" height="20" as="geometry" />
        </mxCell>
        <mxCell id="vHsZxBeeYl8psc7XBQ7O-113" value="" style="whiteSpace=wrap;html=1;aspect=fixed;fillColor=#E6FFCC;container=0;strokeColor=#FFFFFF;" vertex="1" parent="vHsZxBeeYl8psc7XBQ7O-136">
          <mxGeometry x="60" y="120" width="20" height="20" as="geometry" />
        </mxCell>
        <mxCell id="vHsZxBeeYl8psc7XBQ7O-114" value="" style="whiteSpace=wrap;html=1;aspect=fixed;fillColor=#E6FFCC;container=0;strokeColor=#FFFFFF;" vertex="1" parent="vHsZxBeeYl8psc7XBQ7O-136">
          <mxGeometry x="60" y="140" width="20" height="20" as="geometry" />
        </mxCell>
        <mxCell id="vHsZxBeeYl8psc7XBQ7O-115" value="" style="whiteSpace=wrap;html=1;aspect=fixed;fillColor=#E6FFCC;container=0;strokeColor=#FFFFFF;" vertex="1" parent="vHsZxBeeYl8psc7XBQ7O-136">
          <mxGeometry x="80" y="80" width="20" height="20" as="geometry" />
        </mxCell>
        <mxCell id="vHsZxBeeYl8psc7XBQ7O-117" value="" style="whiteSpace=wrap;html=1;aspect=fixed;fillColor=#E6FFCC;container=0;strokeColor=#FFFFFF;" vertex="1" parent="vHsZxBeeYl8psc7XBQ7O-136">
          <mxGeometry x="100" y="80" width="20" height="20" as="geometry" />
        </mxCell>
        <mxCell id="vHsZxBeeYl8psc7XBQ7O-116" value="" style="whiteSpace=wrap;html=1;aspect=fixed;fillColor=#E6FFCC;container=0;strokeColor=#FFFFFF;" vertex="1" parent="vHsZxBeeYl8psc7XBQ7O-136">
          <mxGeometry x="80" y="100" width="20" height="20" as="geometry" />
        </mxCell>
        <mxCell id="vHsZxBeeYl8psc7XBQ7O-118" value="" style="whiteSpace=wrap;html=1;aspect=fixed;fillColor=#E6FFCC;container=0;strokeColor=#FFFFFF;" vertex="1" parent="vHsZxBeeYl8psc7XBQ7O-136">
          <mxGeometry x="100" y="100" width="20" height="20" as="geometry" />
        </mxCell>
        <mxCell id="vHsZxBeeYl8psc7XBQ7O-119" value="" style="whiteSpace=wrap;html=1;aspect=fixed;fillColor=#E6FFCC;container=0;strokeColor=#FFFFFF;" vertex="1" parent="vHsZxBeeYl8psc7XBQ7O-136">
          <mxGeometry x="120" y="80" width="20" height="20" as="geometry" />
        </mxCell>
        <mxCell id="vHsZxBeeYl8psc7XBQ7O-120" value="" style="whiteSpace=wrap;html=1;aspect=fixed;fillColor=#E6FFCC;container=0;strokeColor=#FFFFFF;" vertex="1" parent="vHsZxBeeYl8psc7XBQ7O-136">
          <mxGeometry x="120" y="100" width="20" height="20" as="geometry" />
        </mxCell>
        <mxCell id="vHsZxBeeYl8psc7XBQ7O-121" value="" style="whiteSpace=wrap;html=1;aspect=fixed;fillColor=#E6FFCC;container=0;strokeColor=#FFFFFF;" vertex="1" parent="vHsZxBeeYl8psc7XBQ7O-136">
          <mxGeometry x="140" y="80" width="20" height="20" as="geometry" />
        </mxCell>
        <mxCell id="vHsZxBeeYl8psc7XBQ7O-122" value="" style="whiteSpace=wrap;html=1;aspect=fixed;fillColor=#E6FFCC;container=0;strokeColor=#FFFFFF;" vertex="1" parent="vHsZxBeeYl8psc7XBQ7O-136">
          <mxGeometry x="140" y="100" width="20" height="20" as="geometry" />
        </mxCell>
        <mxCell id="vHsZxBeeYl8psc7XBQ7O-123" value="" style="whiteSpace=wrap;html=1;aspect=fixed;fillColor=#E6FFCC;container=0;strokeColor=#FFFFFF;" vertex="1" parent="vHsZxBeeYl8psc7XBQ7O-136">
          <mxGeometry x="80" y="120" width="20" height="20" as="geometry" />
        </mxCell>
        <mxCell id="vHsZxBeeYl8psc7XBQ7O-124" value="" style="whiteSpace=wrap;html=1;aspect=fixed;fillColor=#E6FFCC;container=0;strokeColor=#FFFFFF;" vertex="1" parent="vHsZxBeeYl8psc7XBQ7O-136">
          <mxGeometry x="80" y="140" width="20" height="20" as="geometry" />
        </mxCell>
        <mxCell id="vHsZxBeeYl8psc7XBQ7O-125" value="" style="whiteSpace=wrap;html=1;aspect=fixed;fillColor=#E6FFCC;container=0;strokeColor=#FFFFFF;" vertex="1" parent="vHsZxBeeYl8psc7XBQ7O-136">
          <mxGeometry x="100" y="120" width="20" height="20" as="geometry" />
        </mxCell>
        <mxCell id="vHsZxBeeYl8psc7XBQ7O-126" value="" style="whiteSpace=wrap;html=1;aspect=fixed;fillColor=#E6FFCC;container=0;strokeColor=#FFFFFF;" vertex="1" parent="vHsZxBeeYl8psc7XBQ7O-136">
          <mxGeometry x="100" y="140" width="20" height="20" as="geometry" />
        </mxCell>
        <mxCell id="vHsZxBeeYl8psc7XBQ7O-127" value="" style="whiteSpace=wrap;html=1;aspect=fixed;fillColor=#E6FFCC;container=0;strokeColor=#FFFFFF;" vertex="1" parent="vHsZxBeeYl8psc7XBQ7O-136">
          <mxGeometry x="120" y="120" width="20" height="20" as="geometry" />
        </mxCell>
        <mxCell id="vHsZxBeeYl8psc7XBQ7O-128" value="" style="whiteSpace=wrap;html=1;aspect=fixed;fillColor=#E6FFCC;container=0;strokeColor=#FFFFFF;" vertex="1" parent="vHsZxBeeYl8psc7XBQ7O-136">
          <mxGeometry x="120" y="140" width="20" height="20" as="geometry" />
        </mxCell>
        <mxCell id="vHsZxBeeYl8psc7XBQ7O-129" value="" style="whiteSpace=wrap;html=1;aspect=fixed;fillColor=#E6FFCC;container=0;strokeColor=#FFFFFF;" vertex="1" parent="vHsZxBeeYl8psc7XBQ7O-136">
          <mxGeometry x="140" y="120" width="20" height="20" as="geometry" />
        </mxCell>
        <mxCell id="vHsZxBeeYl8psc7XBQ7O-130" value="" style="whiteSpace=wrap;html=1;aspect=fixed;fillColor=#E6FFCC;container=0;strokeColor=#FFFFFF;" vertex="1" parent="vHsZxBeeYl8psc7XBQ7O-136">
          <mxGeometry x="140" y="140" width="20" height="20" as="geometry" />
        </mxCell>
        <mxCell id="vHsZxBeeYl8psc7XBQ7O-1" value="" style="whiteSpace=wrap;html=1;aspect=fixed;fillColor=#B3FF66;container=0;strokeColor=default;" vertex="1" parent="1">
          <mxGeometry x="120" y="160" width="20" height="20" as="geometry" />
        </mxCell>
        <mxCell id="vHsZxBeeYl8psc7XBQ7O-4" value="" style="whiteSpace=wrap;html=1;aspect=fixed;fillColor=#B3FF66;container=0;strokeColor=default;" vertex="1" parent="1">
          <mxGeometry x="120" y="180" width="20" height="20" as="geometry" />
        </mxCell>
        <mxCell id="vHsZxBeeYl8psc7XBQ7O-5" value="" style="whiteSpace=wrap;html=1;aspect=fixed;fillColor=#B3FF66;container=0;strokeColor=default;" vertex="1" parent="1">
          <mxGeometry x="140" y="160" width="20" height="20" as="geometry" />
        </mxCell>
        <mxCell id="vHsZxBeeYl8psc7XBQ7O-6" value="" style="whiteSpace=wrap;html=1;aspect=fixed;fillColor=#B3FF66;container=0;strokeColor=default;" vertex="1" parent="1">
          <mxGeometry x="140" y="180" width="20" height="20" as="geometry" />
        </mxCell>
        <mxCell id="vHsZxBeeYl8psc7XBQ7O-7" value="" style="whiteSpace=wrap;html=1;aspect=fixed;fillColor=#B3FF66;container=0;strokeColor=default;" vertex="1" parent="1">
          <mxGeometry x="160" y="160" width="20" height="20" as="geometry" />
        </mxCell>
        <mxCell id="vHsZxBeeYl8psc7XBQ7O-8" value="" style="whiteSpace=wrap;html=1;aspect=fixed;fillColor=#B3FF66;container=0;strokeColor=default;" vertex="1" parent="1">
          <mxGeometry x="160" y="180" width="20" height="20" as="geometry" />
        </mxCell>
        <mxCell id="vHsZxBeeYl8psc7XBQ7O-9" value="" style="whiteSpace=wrap;html=1;aspect=fixed;fillColor=#B3FF66;container=0;strokeColor=default;" vertex="1" parent="1">
          <mxGeometry x="180" y="160" width="20" height="20" as="geometry" />
        </mxCell>
        <mxCell id="vHsZxBeeYl8psc7XBQ7O-10" value="" style="whiteSpace=wrap;html=1;aspect=fixed;fillColor=#B3FF66;container=0;strokeColor=default;" vertex="1" parent="1">
          <mxGeometry x="180" y="180" width="20" height="20" as="geometry" />
        </mxCell>
        <mxCell id="vHsZxBeeYl8psc7XBQ7O-11" value="" style="whiteSpace=wrap;html=1;aspect=fixed;fillColor=#B3FF66;container=0;strokeColor=default;" vertex="1" parent="1">
          <mxGeometry x="120" y="200" width="20" height="20" as="geometry" />
        </mxCell>
        <mxCell id="vHsZxBeeYl8psc7XBQ7O-12" value="" style="whiteSpace=wrap;html=1;aspect=fixed;fillColor=#B3FF66;container=0;strokeColor=default;" vertex="1" parent="1">
          <mxGeometry x="120" y="220" width="20" height="20" as="geometry" />
        </mxCell>
        <mxCell id="vHsZxBeeYl8psc7XBQ7O-13" value="" style="whiteSpace=wrap;html=1;aspect=fixed;fillColor=#B3FF66;container=0;strokeColor=default;" vertex="1" parent="1">
          <mxGeometry x="140" y="200" width="20" height="20" as="geometry" />
        </mxCell>
        <mxCell id="vHsZxBeeYl8psc7XBQ7O-14" value="" style="whiteSpace=wrap;html=1;aspect=fixed;fillColor=#B3FF66;container=0;strokeColor=default;" vertex="1" parent="1">
          <mxGeometry x="140" y="220" width="20" height="20" as="geometry" />
        </mxCell>
        <mxCell id="vHsZxBeeYl8psc7XBQ7O-15" value="" style="whiteSpace=wrap;html=1;aspect=fixed;fillColor=#B3FF66;container=0;strokeColor=default;" vertex="1" parent="1">
          <mxGeometry x="160" y="200" width="20" height="20" as="geometry" />
        </mxCell>
        <mxCell id="vHsZxBeeYl8psc7XBQ7O-16" value="" style="whiteSpace=wrap;html=1;aspect=fixed;fillColor=#B3FF66;container=0;strokeColor=default;" vertex="1" parent="1">
          <mxGeometry x="160" y="220" width="20" height="20" as="geometry" />
        </mxCell>
        <mxCell id="vHsZxBeeYl8psc7XBQ7O-17" value="" style="whiteSpace=wrap;html=1;aspect=fixed;fillColor=#B3FF66;container=0;strokeColor=default;" vertex="1" parent="1">
          <mxGeometry x="180" y="200" width="20" height="20" as="geometry" />
        </mxCell>
        <mxCell id="vHsZxBeeYl8psc7XBQ7O-18" value="" style="whiteSpace=wrap;html=1;aspect=fixed;fillColor=#330000;container=0;strokeColor=default;" vertex="1" parent="1">
          <mxGeometry x="180" y="220" width="20" height="20" as="geometry" />
        </mxCell>
        <mxCell id="vHsZxBeeYl8psc7XBQ7O-19" value="" style="whiteSpace=wrap;html=1;aspect=fixed;fillColor=#B3FF66;container=0;strokeColor=default;" vertex="1" parent="1">
          <mxGeometry x="200" y="160" width="20" height="20" as="geometry" />
        </mxCell>
        <mxCell id="vHsZxBeeYl8psc7XBQ7O-20" value="" style="whiteSpace=wrap;html=1;aspect=fixed;fillColor=#B3FF66;container=0;strokeColor=default;" vertex="1" parent="1">
          <mxGeometry x="200" y="180" width="20" height="20" as="geometry" />
        </mxCell>
        <mxCell id="vHsZxBeeYl8psc7XBQ7O-21" value="" style="whiteSpace=wrap;html=1;aspect=fixed;fillColor=#B3FF66;container=0;strokeColor=default;" vertex="1" parent="1">
          <mxGeometry x="220" y="160" width="20" height="20" as="geometry" />
        </mxCell>
        <mxCell id="vHsZxBeeYl8psc7XBQ7O-22" value="" style="whiteSpace=wrap;html=1;aspect=fixed;fillColor=#B3FF66;container=0;strokeColor=default;" vertex="1" parent="1">
          <mxGeometry x="220" y="180" width="20" height="20" as="geometry" />
        </mxCell>
        <mxCell id="vHsZxBeeYl8psc7XBQ7O-23" value="" style="whiteSpace=wrap;html=1;aspect=fixed;fillColor=#B3FF66;container=0;strokeColor=default;" vertex="1" parent="1">
          <mxGeometry x="240" y="160" width="20" height="20" as="geometry" />
        </mxCell>
        <mxCell id="vHsZxBeeYl8psc7XBQ7O-24" value="" style="whiteSpace=wrap;html=1;aspect=fixed;fillColor=#B3FF66;container=0;strokeColor=default;" vertex="1" parent="1">
          <mxGeometry x="240" y="180" width="20" height="20" as="geometry" />
        </mxCell>
        <mxCell id="vHsZxBeeYl8psc7XBQ7O-25" value="" style="whiteSpace=wrap;html=1;aspect=fixed;fillColor=#B3FF66;container=0;strokeColor=default;" vertex="1" parent="1">
          <mxGeometry x="260" y="160" width="20" height="20" as="geometry" />
        </mxCell>
        <mxCell id="vHsZxBeeYl8psc7XBQ7O-26" value="" style="whiteSpace=wrap;html=1;aspect=fixed;fillColor=#B3FF66;container=0;strokeColor=default;" vertex="1" parent="1">
          <mxGeometry x="260" y="180" width="20" height="20" as="geometry" />
        </mxCell>
        <mxCell id="vHsZxBeeYl8psc7XBQ7O-27" value="" style="whiteSpace=wrap;html=1;aspect=fixed;fillColor=#B3FF66;container=0;strokeColor=default;" vertex="1" parent="1">
          <mxGeometry x="200" y="200" width="20" height="20" as="geometry" />
        </mxCell>
        <mxCell id="vHsZxBeeYl8psc7XBQ7O-28" value="" style="whiteSpace=wrap;html=1;aspect=fixed;fillColor=#B3FF66;container=0;strokeColor=default;" vertex="1" parent="1">
          <mxGeometry x="200" y="220" width="20" height="20" as="geometry" />
        </mxCell>
        <mxCell id="vHsZxBeeYl8psc7XBQ7O-29" value="" style="whiteSpace=wrap;html=1;aspect=fixed;fillColor=#B3FF66;container=0;strokeColor=default;" vertex="1" parent="1">
          <mxGeometry x="220" y="200" width="20" height="20" as="geometry" />
        </mxCell>
        <mxCell id="vHsZxBeeYl8psc7XBQ7O-30" value="" style="whiteSpace=wrap;html=1;aspect=fixed;fillColor=#B3FF66;container=0;strokeColor=default;" vertex="1" parent="1">
          <mxGeometry x="220" y="220" width="20" height="20" as="geometry" />
        </mxCell>
        <mxCell id="vHsZxBeeYl8psc7XBQ7O-31" value="" style="whiteSpace=wrap;html=1;aspect=fixed;fillColor=#B3FF66;container=0;strokeColor=default;" vertex="1" parent="1">
          <mxGeometry x="240" y="200" width="20" height="20" as="geometry" />
        </mxCell>
        <mxCell id="vHsZxBeeYl8psc7XBQ7O-32" value="" style="whiteSpace=wrap;html=1;aspect=fixed;fillColor=#B3FF66;container=0;strokeColor=default;" vertex="1" parent="1">
          <mxGeometry x="240" y="220" width="20" height="20" as="geometry" />
        </mxCell>
        <mxCell id="vHsZxBeeYl8psc7XBQ7O-33" value="" style="whiteSpace=wrap;html=1;aspect=fixed;fillColor=#B3FF66;container=0;strokeColor=default;" vertex="1" parent="1">
          <mxGeometry x="260" y="200" width="20" height="20" as="geometry" />
        </mxCell>
        <mxCell id="vHsZxBeeYl8psc7XBQ7O-34" value="" style="whiteSpace=wrap;html=1;aspect=fixed;fillColor=#B3FF66;container=0;strokeColor=default;" vertex="1" parent="1">
          <mxGeometry x="260" y="220" width="20" height="20" as="geometry" />
        </mxCell>
        <mxCell id="vHsZxBeeYl8psc7XBQ7O-35" value="" style="whiteSpace=wrap;html=1;aspect=fixed;fillColor=#B3FF66;container=0;strokeColor=default;" vertex="1" parent="1">
          <mxGeometry x="120" y="240" width="20" height="20" as="geometry" />
        </mxCell>
        <mxCell id="vHsZxBeeYl8psc7XBQ7O-36" value="" style="whiteSpace=wrap;html=1;aspect=fixed;fillColor=#B3FF66;container=0;strokeColor=default;" vertex="1" parent="1">
          <mxGeometry x="120" y="260" width="20" height="20" as="geometry" />
        </mxCell>
        <mxCell id="vHsZxBeeYl8psc7XBQ7O-37" value="" style="whiteSpace=wrap;html=1;aspect=fixed;fillColor=#B3FF66;container=0;strokeColor=default;" vertex="1" parent="1">
          <mxGeometry x="140" y="240" width="20" height="20" as="geometry" />
        </mxCell>
        <mxCell id="vHsZxBeeYl8psc7XBQ7O-38" value="" style="whiteSpace=wrap;html=1;aspect=fixed;fillColor=#B3FF66;container=0;strokeColor=default;" vertex="1" parent="1">
          <mxGeometry x="140" y="260" width="20" height="20" as="geometry" />
        </mxCell>
        <mxCell id="vHsZxBeeYl8psc7XBQ7O-39" value="" style="whiteSpace=wrap;html=1;aspect=fixed;fillColor=#B3FF66;container=0;strokeColor=default;" vertex="1" parent="1">
          <mxGeometry x="160" y="240" width="20" height="20" as="geometry" />
        </mxCell>
        <mxCell id="vHsZxBeeYl8psc7XBQ7O-40" value="" style="whiteSpace=wrap;html=1;aspect=fixed;fillColor=#B3FF66;container=0;strokeColor=default;" vertex="1" parent="1">
          <mxGeometry x="160" y="260" width="20" height="20" as="geometry" />
        </mxCell>
        <mxCell id="vHsZxBeeYl8psc7XBQ7O-41" value="" style="whiteSpace=wrap;html=1;aspect=fixed;fillColor=#B3FF66;container=0;strokeColor=default;" vertex="1" parent="1">
          <mxGeometry x="180" y="240" width="20" height="20" as="geometry" />
        </mxCell>
        <mxCell id="vHsZxBeeYl8psc7XBQ7O-42" value="" style="whiteSpace=wrap;html=1;aspect=fixed;fillColor=#B3FF66;container=0;strokeColor=default;" vertex="1" parent="1">
          <mxGeometry x="180" y="260" width="20" height="20" as="geometry" />
        </mxCell>
        <mxCell id="vHsZxBeeYl8psc7XBQ7O-43" value="" style="whiteSpace=wrap;html=1;aspect=fixed;fillColor=#B3FF66;container=0;strokeColor=default;" vertex="1" parent="1">
          <mxGeometry x="120" y="280" width="20" height="20" as="geometry" />
        </mxCell>
        <mxCell id="vHsZxBeeYl8psc7XBQ7O-44" value="" style="whiteSpace=wrap;html=1;aspect=fixed;fillColor=#B3FF66;container=0;strokeColor=default;" vertex="1" parent="1">
          <mxGeometry x="120" y="300" width="20" height="20" as="geometry" />
        </mxCell>
        <mxCell id="vHsZxBeeYl8psc7XBQ7O-45" value="" style="whiteSpace=wrap;html=1;aspect=fixed;fillColor=#B3FF66;container=0;strokeColor=default;" vertex="1" parent="1">
          <mxGeometry x="140" y="280" width="20" height="20" as="geometry" />
        </mxCell>
        <mxCell id="vHsZxBeeYl8psc7XBQ7O-46" value="" style="whiteSpace=wrap;html=1;aspect=fixed;fillColor=#B3FF66;container=0;strokeColor=default;" vertex="1" parent="1">
          <mxGeometry x="140" y="300" width="20" height="20" as="geometry" />
        </mxCell>
        <mxCell id="vHsZxBeeYl8psc7XBQ7O-47" value="" style="whiteSpace=wrap;html=1;aspect=fixed;fillColor=#B3FF66;container=0;strokeColor=default;" vertex="1" parent="1">
          <mxGeometry x="160" y="280" width="20" height="20" as="geometry" />
        </mxCell>
        <mxCell id="vHsZxBeeYl8psc7XBQ7O-48" value="" style="whiteSpace=wrap;html=1;aspect=fixed;fillColor=#B3FF66;container=0;strokeColor=default;" vertex="1" parent="1">
          <mxGeometry x="160" y="300" width="20" height="20" as="geometry" />
        </mxCell>
        <mxCell id="vHsZxBeeYl8psc7XBQ7O-49" value="" style="whiteSpace=wrap;html=1;aspect=fixed;fillColor=#B3FF66;container=0;strokeColor=default;" vertex="1" parent="1">
          <mxGeometry x="180" y="280" width="20" height="20" as="geometry" />
        </mxCell>
        <mxCell id="vHsZxBeeYl8psc7XBQ7O-50" value="" style="whiteSpace=wrap;html=1;aspect=fixed;fillColor=#B3FF66;container=0;strokeColor=default;" vertex="1" parent="1">
          <mxGeometry x="180" y="300" width="20" height="20" as="geometry" />
        </mxCell>
        <mxCell id="vHsZxBeeYl8psc7XBQ7O-51" value="" style="whiteSpace=wrap;html=1;aspect=fixed;fillColor=#B3FF66;container=0;strokeColor=default;" vertex="1" parent="1">
          <mxGeometry x="200" y="240" width="20" height="20" as="geometry" />
        </mxCell>
        <mxCell id="vHsZxBeeYl8psc7XBQ7O-52" value="" style="whiteSpace=wrap;html=1;aspect=fixed;fillColor=#B3FF66;container=0;strokeColor=default;" vertex="1" parent="1">
          <mxGeometry x="200" y="260" width="20" height="20" as="geometry" />
        </mxCell>
        <mxCell id="vHsZxBeeYl8psc7XBQ7O-53" value="" style="whiteSpace=wrap;html=1;aspect=fixed;fillColor=#B3FF66;container=0;strokeColor=default;" vertex="1" parent="1">
          <mxGeometry x="220" y="240" width="20" height="20" as="geometry" />
        </mxCell>
        <mxCell id="vHsZxBeeYl8psc7XBQ7O-54" value="" style="whiteSpace=wrap;html=1;aspect=fixed;fillColor=#B3FF66;container=0;strokeColor=default;" vertex="1" parent="1">
          <mxGeometry x="220" y="260" width="20" height="20" as="geometry" />
        </mxCell>
        <mxCell id="vHsZxBeeYl8psc7XBQ7O-55" value="" style="whiteSpace=wrap;html=1;aspect=fixed;fillColor=#B3FF66;container=0;strokeColor=default;" vertex="1" parent="1">
          <mxGeometry x="240" y="240" width="20" height="20" as="geometry" />
        </mxCell>
        <mxCell id="vHsZxBeeYl8psc7XBQ7O-56" value="" style="whiteSpace=wrap;html=1;aspect=fixed;fillColor=#B3FF66;container=0;strokeColor=default;" vertex="1" parent="1">
          <mxGeometry x="240" y="260" width="20" height="20" as="geometry" />
        </mxCell>
        <mxCell id="vHsZxBeeYl8psc7XBQ7O-138" style="edgeStyle=orthogonalEdgeStyle;rounded=0;orthogonalLoop=1;jettySize=auto;html=1;exitX=1;exitY=0;exitDx=0;exitDy=0;entryX=0;entryY=0;entryDx=0;entryDy=0;" edge="1" parent="1" source="vHsZxBeeYl8psc7XBQ7O-57" target="vHsZxBeeYl8psc7XBQ7O-236">
          <mxGeometry relative="1" as="geometry">
            <mxPoint x="390" y="240" as="targetPoint" />
            <Array as="points">
              <mxPoint x="440" y="240" />
              <mxPoint x="440" y="120" />
            </Array>
          </mxGeometry>
        </mxCell>
        <mxCell id="vHsZxBeeYl8psc7XBQ7O-57" value="" style="whiteSpace=wrap;html=1;aspect=fixed;fillColor=#B3FF66;container=0;strokeColor=default;" vertex="1" parent="1">
          <mxGeometry x="260" y="240" width="20" height="20" as="geometry" />
        </mxCell>
        <mxCell id="vHsZxBeeYl8psc7XBQ7O-58" value="" style="whiteSpace=wrap;html=1;aspect=fixed;fillColor=#B3FF66;container=0;strokeColor=default;" vertex="1" parent="1">
          <mxGeometry x="260" y="260" width="20" height="20" as="geometry" />
        </mxCell>
        <mxCell id="vHsZxBeeYl8psc7XBQ7O-59" value="" style="whiteSpace=wrap;html=1;aspect=fixed;fillColor=#B3FF66;container=0;strokeColor=default;" vertex="1" parent="1">
          <mxGeometry x="200" y="280" width="20" height="20" as="geometry" />
        </mxCell>
        <mxCell id="vHsZxBeeYl8psc7XBQ7O-60" value="" style="whiteSpace=wrap;html=1;aspect=fixed;fillColor=#B3FF66;container=0;strokeColor=default;" vertex="1" parent="1">
          <mxGeometry x="200" y="300" width="20" height="20" as="geometry" />
        </mxCell>
        <mxCell id="vHsZxBeeYl8psc7XBQ7O-61" value="" style="whiteSpace=wrap;html=1;aspect=fixed;fillColor=#B3FF66;container=0;strokeColor=default;" vertex="1" parent="1">
          <mxGeometry x="220" y="280" width="20" height="20" as="geometry" />
        </mxCell>
        <mxCell id="vHsZxBeeYl8psc7XBQ7O-62" value="" style="whiteSpace=wrap;html=1;aspect=fixed;fillColor=#B3FF66;container=0;strokeColor=default;" vertex="1" parent="1">
          <mxGeometry x="220" y="300" width="20" height="20" as="geometry" />
        </mxCell>
        <mxCell id="vHsZxBeeYl8psc7XBQ7O-63" value="" style="whiteSpace=wrap;html=1;aspect=fixed;fillColor=#B3FF66;container=0;strokeColor=default;" vertex="1" parent="1">
          <mxGeometry x="240" y="280" width="20" height="20" as="geometry" />
        </mxCell>
        <mxCell id="vHsZxBeeYl8psc7XBQ7O-64" value="" style="whiteSpace=wrap;html=1;aspect=fixed;fillColor=#B3FF66;container=0;strokeColor=default;" vertex="1" parent="1">
          <mxGeometry x="240" y="300" width="20" height="20" as="geometry" />
        </mxCell>
        <mxCell id="vHsZxBeeYl8psc7XBQ7O-65" value="" style="whiteSpace=wrap;html=1;aspect=fixed;fillColor=#B3FF66;container=0;strokeColor=default;" vertex="1" parent="1">
          <mxGeometry x="260" y="280" width="20" height="20" as="geometry" />
        </mxCell>
        <mxCell id="vHsZxBeeYl8psc7XBQ7O-66" value="" style="whiteSpace=wrap;html=1;aspect=fixed;fillColor=#B3FF66;container=0;strokeColor=default;" vertex="1" parent="1">
          <mxGeometry x="260" y="300" width="20" height="20" as="geometry" />
        </mxCell>
        <mxCell id="vHsZxBeeYl8psc7XBQ7O-269" style="edgeStyle=orthogonalEdgeStyle;rounded=0;orthogonalLoop=1;jettySize=auto;html=1;exitX=1;exitY=0;exitDx=0;exitDy=0;entryX=0;entryY=0;entryDx=0;entryDy=0;" edge="1" parent="1" target="vHsZxBeeYl8psc7XBQ7O-367">
          <mxGeometry relative="1" as="geometry">
            <mxPoint x="480" y="360" as="targetPoint" />
            <mxPoint x="280" y="240" as="sourcePoint" />
            <Array as="points">
              <mxPoint x="440" y="240" />
              <mxPoint x="440" y="360" />
            </Array>
          </mxGeometry>
        </mxCell>
        <mxCell id="vHsZxBeeYl8psc7XBQ7O-399" value="&lt;span style=&quot;font-size: 16px;&quot;&gt;T - Attention&lt;/span&gt;" style="text;html=1;align=center;verticalAlign=middle;whiteSpace=wrap;rounded=0;" vertex="1" parent="1">
          <mxGeometry x="420" y="40" width="100" height="30" as="geometry" />
        </mxCell>
        <mxCell id="vHsZxBeeYl8psc7XBQ7O-400" value="&lt;font style=&quot;font-size: 16px;&quot;&gt;S - Attention&lt;/font&gt;" style="text;html=1;align=center;verticalAlign=middle;whiteSpace=wrap;rounded=0;" vertex="1" parent="1">
          <mxGeometry x="420" y="410" width="100" height="30" as="geometry" />
        </mxCell>
        <mxCell id="vHsZxBeeYl8psc7XBQ7O-402" value="&lt;span style=&quot;font-size: 16px;&quot;&gt;Split Heads&lt;/span&gt;" style="text;html=1;align=center;verticalAlign=middle;whiteSpace=wrap;rounded=0;" vertex="1" parent="1">
          <mxGeometry x="340" y="210" width="100" height="30" as="geometry" />
        </mxCell>
        <mxCell id="vHsZxBeeYl8psc7XBQ7O-404" value="" style="group" vertex="1" connectable="0" parent="1">
          <mxGeometry x="920" y="120" width="160" height="160" as="geometry" />
        </mxCell>
        <mxCell id="vHsZxBeeYl8psc7XBQ7O-405" value="" style="whiteSpace=wrap;html=1;aspect=fixed;fillColor=#E6FFCC;container=0;strokeColor=#FFFFFF;" vertex="1" parent="vHsZxBeeYl8psc7XBQ7O-404">
          <mxGeometry width="20" height="20" as="geometry" />
        </mxCell>
        <mxCell id="vHsZxBeeYl8psc7XBQ7O-406" value="" style="whiteSpace=wrap;html=1;aspect=fixed;fillColor=#E6FFCC;container=0;strokeColor=#FFFFFF;" vertex="1" parent="vHsZxBeeYl8psc7XBQ7O-404">
          <mxGeometry y="20" width="20" height="20" as="geometry" />
        </mxCell>
        <mxCell id="vHsZxBeeYl8psc7XBQ7O-407" value="" style="whiteSpace=wrap;html=1;aspect=fixed;fillColor=#E6FFCC;container=0;strokeColor=#FFFFFF;" vertex="1" parent="vHsZxBeeYl8psc7XBQ7O-404">
          <mxGeometry x="20" width="20" height="20" as="geometry" />
        </mxCell>
        <mxCell id="vHsZxBeeYl8psc7XBQ7O-408" value="" style="whiteSpace=wrap;html=1;aspect=fixed;fillColor=#E6FFCC;container=0;strokeColor=#FFFFFF;" vertex="1" parent="vHsZxBeeYl8psc7XBQ7O-404">
          <mxGeometry x="20" y="20" width="20" height="20" as="geometry" />
        </mxCell>
        <mxCell id="vHsZxBeeYl8psc7XBQ7O-409" value="" style="whiteSpace=wrap;html=1;aspect=fixed;fillColor=#E6FFCC;container=0;strokeColor=#FFFFFF;" vertex="1" parent="vHsZxBeeYl8psc7XBQ7O-404">
          <mxGeometry x="40" width="20" height="20" as="geometry" />
        </mxCell>
        <mxCell id="vHsZxBeeYl8psc7XBQ7O-410" value="" style="whiteSpace=wrap;html=1;aspect=fixed;fillColor=#E6FFCC;container=0;strokeColor=#FFFFFF;" vertex="1" parent="vHsZxBeeYl8psc7XBQ7O-404">
          <mxGeometry x="40" y="20" width="20" height="20" as="geometry" />
        </mxCell>
        <mxCell id="vHsZxBeeYl8psc7XBQ7O-411" value="" style="whiteSpace=wrap;html=1;aspect=fixed;fillColor=#99FFFF;container=0;strokeColor=#FFFFFF;" vertex="1" parent="vHsZxBeeYl8psc7XBQ7O-404">
          <mxGeometry x="60" width="20" height="20" as="geometry" />
        </mxCell>
        <mxCell id="vHsZxBeeYl8psc7XBQ7O-412" value="" style="whiteSpace=wrap;html=1;aspect=fixed;fillColor=#99FFFF;container=0;strokeColor=#FFFFFF;" vertex="1" parent="vHsZxBeeYl8psc7XBQ7O-404">
          <mxGeometry x="60" y="20" width="20" height="20" as="geometry" />
        </mxCell>
        <mxCell id="vHsZxBeeYl8psc7XBQ7O-413" value="" style="whiteSpace=wrap;html=1;aspect=fixed;fillColor=#E6FFCC;container=0;strokeColor=#FFFFFF;" vertex="1" parent="vHsZxBeeYl8psc7XBQ7O-404">
          <mxGeometry y="40" width="20" height="20" as="geometry" />
        </mxCell>
        <mxCell id="vHsZxBeeYl8psc7XBQ7O-414" value="" style="whiteSpace=wrap;html=1;aspect=fixed;fillColor=#E6FFCC;container=0;strokeColor=#FFFFFF;" vertex="1" parent="vHsZxBeeYl8psc7XBQ7O-404">
          <mxGeometry y="60" width="20" height="20" as="geometry" />
        </mxCell>
        <mxCell id="vHsZxBeeYl8psc7XBQ7O-415" value="" style="whiteSpace=wrap;html=1;aspect=fixed;fillColor=#E6FFCC;container=0;strokeColor=#FFFFFF;" vertex="1" parent="vHsZxBeeYl8psc7XBQ7O-404">
          <mxGeometry x="20" y="40" width="20" height="20" as="geometry" />
        </mxCell>
        <mxCell id="vHsZxBeeYl8psc7XBQ7O-416" value="" style="whiteSpace=wrap;html=1;aspect=fixed;fillColor=#E6FFCC;container=0;strokeColor=#FFFFFF;" vertex="1" parent="vHsZxBeeYl8psc7XBQ7O-404">
          <mxGeometry x="20" y="60" width="20" height="20" as="geometry" />
        </mxCell>
        <mxCell id="vHsZxBeeYl8psc7XBQ7O-417" value="" style="whiteSpace=wrap;html=1;aspect=fixed;fillColor=#E6FFCC;container=0;strokeColor=#FFFFFF;" vertex="1" parent="vHsZxBeeYl8psc7XBQ7O-404">
          <mxGeometry x="40" y="40" width="20" height="20" as="geometry" />
        </mxCell>
        <mxCell id="vHsZxBeeYl8psc7XBQ7O-418" value="" style="whiteSpace=wrap;html=1;aspect=fixed;fillColor=#E6FFCC;container=0;strokeColor=#FFFFFF;" vertex="1" parent="vHsZxBeeYl8psc7XBQ7O-404">
          <mxGeometry x="40" y="60" width="20" height="20" as="geometry" />
        </mxCell>
        <mxCell id="vHsZxBeeYl8psc7XBQ7O-419" value="" style="whiteSpace=wrap;html=1;aspect=fixed;fillColor=#E6FFCC;container=0;strokeColor=#FFFFFF;" vertex="1" parent="vHsZxBeeYl8psc7XBQ7O-404">
          <mxGeometry x="60" y="40" width="20" height="20" as="geometry" />
        </mxCell>
        <mxCell id="vHsZxBeeYl8psc7XBQ7O-420" value="" style="whiteSpace=wrap;html=1;aspect=fixed;fillColor=#E6FFCC;container=0;strokeColor=#FFFFFF;" vertex="1" parent="vHsZxBeeYl8psc7XBQ7O-404">
          <mxGeometry x="60" y="60" width="20" height="20" as="geometry" />
        </mxCell>
        <mxCell id="vHsZxBeeYl8psc7XBQ7O-421" value="" style="whiteSpace=wrap;html=1;aspect=fixed;fillColor=#E6FFCC;container=0;strokeColor=#FFFFFF;" vertex="1" parent="vHsZxBeeYl8psc7XBQ7O-404">
          <mxGeometry x="80" width="20" height="20" as="geometry" />
        </mxCell>
        <mxCell id="vHsZxBeeYl8psc7XBQ7O-422" value="" style="whiteSpace=wrap;html=1;aspect=fixed;fillColor=#E6FFCC;container=0;strokeColor=#FFFFFF;" vertex="1" parent="vHsZxBeeYl8psc7XBQ7O-404">
          <mxGeometry x="80" y="20" width="20" height="20" as="geometry" />
        </mxCell>
        <mxCell id="vHsZxBeeYl8psc7XBQ7O-423" value="" style="whiteSpace=wrap;html=1;aspect=fixed;fillColor=#E6FFCC;container=0;strokeColor=#FFFFFF;" vertex="1" parent="vHsZxBeeYl8psc7XBQ7O-404">
          <mxGeometry x="100" width="20" height="20" as="geometry" />
        </mxCell>
        <mxCell id="vHsZxBeeYl8psc7XBQ7O-424" value="" style="whiteSpace=wrap;html=1;aspect=fixed;fillColor=#E6FFCC;container=0;strokeColor=#FFFFFF;" vertex="1" parent="vHsZxBeeYl8psc7XBQ7O-404">
          <mxGeometry x="100" y="20" width="20" height="20" as="geometry" />
        </mxCell>
        <mxCell id="vHsZxBeeYl8psc7XBQ7O-425" value="" style="whiteSpace=wrap;html=1;aspect=fixed;fillColor=#E6FFCC;container=0;strokeColor=#FFFFFF;" vertex="1" parent="vHsZxBeeYl8psc7XBQ7O-404">
          <mxGeometry x="120" width="20" height="20" as="geometry" />
        </mxCell>
        <mxCell id="vHsZxBeeYl8psc7XBQ7O-426" value="" style="whiteSpace=wrap;html=1;aspect=fixed;fillColor=#E6FFCC;container=0;strokeColor=#FFFFFF;" vertex="1" parent="vHsZxBeeYl8psc7XBQ7O-404">
          <mxGeometry x="120" y="20" width="20" height="20" as="geometry" />
        </mxCell>
        <mxCell id="vHsZxBeeYl8psc7XBQ7O-427" value="" style="whiteSpace=wrap;html=1;aspect=fixed;fillColor=#E6FFCC;container=0;strokeColor=#FFFFFF;" vertex="1" parent="vHsZxBeeYl8psc7XBQ7O-404">
          <mxGeometry x="140" width="20" height="20" as="geometry" />
        </mxCell>
        <mxCell id="vHsZxBeeYl8psc7XBQ7O-428" value="" style="whiteSpace=wrap;html=1;aspect=fixed;fillColor=#E6FFCC;container=0;strokeColor=#FFFFFF;" vertex="1" parent="vHsZxBeeYl8psc7XBQ7O-404">
          <mxGeometry x="140" y="20" width="20" height="20" as="geometry" />
        </mxCell>
        <mxCell id="vHsZxBeeYl8psc7XBQ7O-429" value="" style="whiteSpace=wrap;html=1;aspect=fixed;fillColor=#E6FFCC;container=0;strokeColor=#FFFFFF;" vertex="1" parent="vHsZxBeeYl8psc7XBQ7O-404">
          <mxGeometry x="80" y="40" width="20" height="20" as="geometry" />
        </mxCell>
        <mxCell id="vHsZxBeeYl8psc7XBQ7O-430" value="" style="whiteSpace=wrap;html=1;aspect=fixed;fillColor=#E6FFCC;container=0;strokeColor=#FFFFFF;" vertex="1" parent="vHsZxBeeYl8psc7XBQ7O-404">
          <mxGeometry x="80" y="60" width="20" height="20" as="geometry" />
        </mxCell>
        <mxCell id="vHsZxBeeYl8psc7XBQ7O-431" value="" style="whiteSpace=wrap;html=1;aspect=fixed;fillColor=#E6FFCC;container=0;strokeColor=#FFFFFF;" vertex="1" parent="vHsZxBeeYl8psc7XBQ7O-404">
          <mxGeometry x="100" y="40" width="20" height="20" as="geometry" />
        </mxCell>
        <mxCell id="vHsZxBeeYl8psc7XBQ7O-432" value="" style="whiteSpace=wrap;html=1;aspect=fixed;fillColor=#E6FFCC;container=0;strokeColor=#FFFFFF;" vertex="1" parent="vHsZxBeeYl8psc7XBQ7O-404">
          <mxGeometry x="100" y="60" width="20" height="20" as="geometry" />
        </mxCell>
        <mxCell id="vHsZxBeeYl8psc7XBQ7O-433" value="" style="whiteSpace=wrap;html=1;aspect=fixed;fillColor=#E6FFCC;container=0;strokeColor=#FFFFFF;" vertex="1" parent="vHsZxBeeYl8psc7XBQ7O-404">
          <mxGeometry x="120" y="40" width="20" height="20" as="geometry" />
        </mxCell>
        <mxCell id="vHsZxBeeYl8psc7XBQ7O-434" value="" style="whiteSpace=wrap;html=1;aspect=fixed;fillColor=#FF6666;container=0;strokeColor=#FFFFFF;" vertex="1" parent="vHsZxBeeYl8psc7XBQ7O-404">
          <mxGeometry x="120" y="60" width="20" height="20" as="geometry" />
        </mxCell>
        <mxCell id="vHsZxBeeYl8psc7XBQ7O-435" value="" style="whiteSpace=wrap;html=1;aspect=fixed;fillColor=#E6FFCC;container=0;strokeColor=#FFFFFF;" vertex="1" parent="vHsZxBeeYl8psc7XBQ7O-404">
          <mxGeometry x="140" y="40" width="20" height="20" as="geometry" />
        </mxCell>
        <mxCell id="vHsZxBeeYl8psc7XBQ7O-436" value="" style="whiteSpace=wrap;html=1;aspect=fixed;fillColor=#FF6666;container=0;strokeColor=#FFFFFF;" vertex="1" parent="vHsZxBeeYl8psc7XBQ7O-404">
          <mxGeometry x="140" y="60" width="20" height="20" as="geometry" />
        </mxCell>
        <mxCell id="vHsZxBeeYl8psc7XBQ7O-437" value="" style="whiteSpace=wrap;html=1;aspect=fixed;fillColor=#E6FFCC;container=0;strokeColor=#FFFFFF;" vertex="1" parent="vHsZxBeeYl8psc7XBQ7O-404">
          <mxGeometry y="80" width="20" height="20" as="geometry" />
        </mxCell>
        <mxCell id="vHsZxBeeYl8psc7XBQ7O-438" value="" style="whiteSpace=wrap;html=1;aspect=fixed;fillColor=#E6FFCC;container=0;strokeColor=#FFFFFF;" vertex="1" parent="vHsZxBeeYl8psc7XBQ7O-404">
          <mxGeometry y="100" width="20" height="20" as="geometry" />
        </mxCell>
        <mxCell id="vHsZxBeeYl8psc7XBQ7O-439" value="" style="whiteSpace=wrap;html=1;aspect=fixed;fillColor=#E6FFCC;container=0;strokeColor=#FFFFFF;" vertex="1" parent="vHsZxBeeYl8psc7XBQ7O-404">
          <mxGeometry x="20" y="80" width="20" height="20" as="geometry" />
        </mxCell>
        <mxCell id="vHsZxBeeYl8psc7XBQ7O-440" value="" style="whiteSpace=wrap;html=1;aspect=fixed;fillColor=#E6FFCC;container=0;strokeColor=#FFFFFF;" vertex="1" parent="vHsZxBeeYl8psc7XBQ7O-404">
          <mxGeometry x="20" y="100" width="20" height="20" as="geometry" />
        </mxCell>
        <mxCell id="vHsZxBeeYl8psc7XBQ7O-441" value="" style="whiteSpace=wrap;html=1;aspect=fixed;fillColor=#E6FFCC;container=0;strokeColor=#FFFFFF;" vertex="1" parent="vHsZxBeeYl8psc7XBQ7O-404">
          <mxGeometry x="40" y="80" width="20" height="20" as="geometry" />
        </mxCell>
        <mxCell id="vHsZxBeeYl8psc7XBQ7O-442" value="" style="whiteSpace=wrap;html=1;aspect=fixed;fillColor=#E6FFCC;container=0;strokeColor=#FFFFFF;" vertex="1" parent="vHsZxBeeYl8psc7XBQ7O-404">
          <mxGeometry x="40" y="100" width="20" height="20" as="geometry" />
        </mxCell>
        <mxCell id="vHsZxBeeYl8psc7XBQ7O-443" value="" style="whiteSpace=wrap;html=1;aspect=fixed;fillColor=#E6FFCC;container=0;strokeColor=#FFFFFF;" vertex="1" parent="vHsZxBeeYl8psc7XBQ7O-404">
          <mxGeometry x="60" y="80" width="20" height="20" as="geometry" />
        </mxCell>
        <mxCell id="vHsZxBeeYl8psc7XBQ7O-444" value="" style="whiteSpace=wrap;html=1;aspect=fixed;fillColor=#E6FFCC;container=0;strokeColor=#FFFFFF;" vertex="1" parent="vHsZxBeeYl8psc7XBQ7O-404">
          <mxGeometry x="60" y="100" width="20" height="20" as="geometry" />
        </mxCell>
        <mxCell id="vHsZxBeeYl8psc7XBQ7O-445" value="" style="whiteSpace=wrap;html=1;aspect=fixed;fillColor=#E6FFCC;container=0;strokeColor=#FFFFFF;" vertex="1" parent="vHsZxBeeYl8psc7XBQ7O-404">
          <mxGeometry y="120" width="20" height="20" as="geometry" />
        </mxCell>
        <mxCell id="vHsZxBeeYl8psc7XBQ7O-446" value="" style="whiteSpace=wrap;html=1;aspect=fixed;fillColor=#E6FFCC;container=0;strokeColor=#FFFFFF;" vertex="1" parent="vHsZxBeeYl8psc7XBQ7O-404">
          <mxGeometry y="140" width="20" height="20" as="geometry" />
        </mxCell>
        <mxCell id="vHsZxBeeYl8psc7XBQ7O-447" value="" style="whiteSpace=wrap;html=1;aspect=fixed;fillColor=#E6FFCC;container=0;strokeColor=#FFFFFF;" vertex="1" parent="vHsZxBeeYl8psc7XBQ7O-404">
          <mxGeometry x="20" y="120" width="20" height="20" as="geometry" />
        </mxCell>
        <mxCell id="vHsZxBeeYl8psc7XBQ7O-448" value="" style="whiteSpace=wrap;html=1;aspect=fixed;fillColor=#E6FFCC;container=0;strokeColor=#FFFFFF;" vertex="1" parent="vHsZxBeeYl8psc7XBQ7O-404">
          <mxGeometry x="20" y="140" width="20" height="20" as="geometry" />
        </mxCell>
        <mxCell id="vHsZxBeeYl8psc7XBQ7O-449" value="" style="whiteSpace=wrap;html=1;aspect=fixed;fillColor=#E6FFCC;container=0;strokeColor=#FFFFFF;" vertex="1" parent="vHsZxBeeYl8psc7XBQ7O-404">
          <mxGeometry x="40" y="120" width="20" height="20" as="geometry" />
        </mxCell>
        <mxCell id="vHsZxBeeYl8psc7XBQ7O-450" value="" style="whiteSpace=wrap;html=1;aspect=fixed;fillColor=#E6FFCC;container=0;strokeColor=#FFFFFF;" vertex="1" parent="vHsZxBeeYl8psc7XBQ7O-404">
          <mxGeometry x="40" y="140" width="20" height="20" as="geometry" />
        </mxCell>
        <mxCell id="vHsZxBeeYl8psc7XBQ7O-451" value="" style="whiteSpace=wrap;html=1;aspect=fixed;fillColor=#E6FFCC;container=0;strokeColor=#FFFFFF;" vertex="1" parent="vHsZxBeeYl8psc7XBQ7O-404">
          <mxGeometry x="60" y="120" width="20" height="20" as="geometry" />
        </mxCell>
        <mxCell id="vHsZxBeeYl8psc7XBQ7O-452" value="" style="whiteSpace=wrap;html=1;aspect=fixed;fillColor=#E6FFCC;container=0;strokeColor=#FFFFFF;" vertex="1" parent="vHsZxBeeYl8psc7XBQ7O-404">
          <mxGeometry x="60" y="140" width="20" height="20" as="geometry" />
        </mxCell>
        <mxCell id="vHsZxBeeYl8psc7XBQ7O-453" value="" style="whiteSpace=wrap;html=1;aspect=fixed;fillColor=#E6FFCC;container=0;strokeColor=#FFFFFF;" vertex="1" parent="vHsZxBeeYl8psc7XBQ7O-404">
          <mxGeometry x="80" y="80" width="20" height="20" as="geometry" />
        </mxCell>
        <mxCell id="vHsZxBeeYl8psc7XBQ7O-454" value="" style="whiteSpace=wrap;html=1;aspect=fixed;fillColor=#E6FFCC;container=0;strokeColor=#FFFFFF;" vertex="1" parent="vHsZxBeeYl8psc7XBQ7O-404">
          <mxGeometry x="100" y="80" width="20" height="20" as="geometry" />
        </mxCell>
        <mxCell id="vHsZxBeeYl8psc7XBQ7O-455" value="" style="whiteSpace=wrap;html=1;aspect=fixed;fillColor=#E6FFCC;container=0;strokeColor=#FFFFFF;" vertex="1" parent="vHsZxBeeYl8psc7XBQ7O-404">
          <mxGeometry x="80" y="100" width="20" height="20" as="geometry" />
        </mxCell>
        <mxCell id="vHsZxBeeYl8psc7XBQ7O-456" value="" style="whiteSpace=wrap;html=1;aspect=fixed;fillColor=#E6FFCC;container=0;strokeColor=#FFFFFF;" vertex="1" parent="vHsZxBeeYl8psc7XBQ7O-404">
          <mxGeometry x="100" y="100" width="20" height="20" as="geometry" />
        </mxCell>
        <mxCell id="vHsZxBeeYl8psc7XBQ7O-457" value="" style="whiteSpace=wrap;html=1;aspect=fixed;fillColor=#E6FFCC;container=0;strokeColor=#FFFFFF;" vertex="1" parent="vHsZxBeeYl8psc7XBQ7O-404">
          <mxGeometry x="120" y="80" width="20" height="20" as="geometry" />
        </mxCell>
        <mxCell id="vHsZxBeeYl8psc7XBQ7O-458" value="" style="whiteSpace=wrap;html=1;aspect=fixed;fillColor=#E6FFCC;container=0;strokeColor=#FFFFFF;" vertex="1" parent="vHsZxBeeYl8psc7XBQ7O-404">
          <mxGeometry x="120" y="100" width="20" height="20" as="geometry" />
        </mxCell>
        <mxCell id="vHsZxBeeYl8psc7XBQ7O-459" value="" style="whiteSpace=wrap;html=1;aspect=fixed;fillColor=#E6FFCC;container=0;strokeColor=#FFFFFF;" vertex="1" parent="vHsZxBeeYl8psc7XBQ7O-404">
          <mxGeometry x="140" y="80" width="20" height="20" as="geometry" />
        </mxCell>
        <mxCell id="vHsZxBeeYl8psc7XBQ7O-460" value="" style="whiteSpace=wrap;html=1;aspect=fixed;fillColor=#E6FFCC;container=0;strokeColor=#FFFFFF;" vertex="1" parent="vHsZxBeeYl8psc7XBQ7O-404">
          <mxGeometry x="140" y="100" width="20" height="20" as="geometry" />
        </mxCell>
        <mxCell id="vHsZxBeeYl8psc7XBQ7O-461" value="" style="whiteSpace=wrap;html=1;aspect=fixed;fillColor=#E6FFCC;container=0;strokeColor=#FFFFFF;" vertex="1" parent="vHsZxBeeYl8psc7XBQ7O-404">
          <mxGeometry x="80" y="120" width="20" height="20" as="geometry" />
        </mxCell>
        <mxCell id="vHsZxBeeYl8psc7XBQ7O-462" value="" style="whiteSpace=wrap;html=1;aspect=fixed;fillColor=#E6FFCC;container=0;strokeColor=#FFFFFF;" vertex="1" parent="vHsZxBeeYl8psc7XBQ7O-404">
          <mxGeometry x="80" y="140" width="20" height="20" as="geometry" />
        </mxCell>
        <mxCell id="vHsZxBeeYl8psc7XBQ7O-463" value="" style="whiteSpace=wrap;html=1;aspect=fixed;fillColor=#E6FFCC;container=0;strokeColor=#FFFFFF;" vertex="1" parent="vHsZxBeeYl8psc7XBQ7O-404">
          <mxGeometry x="100" y="120" width="20" height="20" as="geometry" />
        </mxCell>
        <mxCell id="vHsZxBeeYl8psc7XBQ7O-464" value="" style="whiteSpace=wrap;html=1;aspect=fixed;fillColor=#E6FFCC;container=0;strokeColor=#FFFFFF;" vertex="1" parent="vHsZxBeeYl8psc7XBQ7O-404">
          <mxGeometry x="100" y="140" width="20" height="20" as="geometry" />
        </mxCell>
        <mxCell id="vHsZxBeeYl8psc7XBQ7O-465" value="" style="whiteSpace=wrap;html=1;aspect=fixed;fillColor=#E6FFCC;container=0;strokeColor=#FFFFFF;" vertex="1" parent="vHsZxBeeYl8psc7XBQ7O-404">
          <mxGeometry x="120" y="120" width="20" height="20" as="geometry" />
        </mxCell>
        <mxCell id="vHsZxBeeYl8psc7XBQ7O-466" value="" style="whiteSpace=wrap;html=1;aspect=fixed;fillColor=#E6FFCC;container=0;strokeColor=#FFFFFF;" vertex="1" parent="vHsZxBeeYl8psc7XBQ7O-404">
          <mxGeometry x="120" y="140" width="20" height="20" as="geometry" />
        </mxCell>
        <mxCell id="vHsZxBeeYl8psc7XBQ7O-467" value="" style="whiteSpace=wrap;html=1;aspect=fixed;fillColor=#E6FFCC;container=0;strokeColor=#FFFFFF;" vertex="1" parent="vHsZxBeeYl8psc7XBQ7O-404">
          <mxGeometry x="140" y="120" width="20" height="20" as="geometry" />
        </mxCell>
        <mxCell id="vHsZxBeeYl8psc7XBQ7O-468" value="" style="whiteSpace=wrap;html=1;aspect=fixed;fillColor=#E6FFCC;container=0;strokeColor=#FFFFFF;" vertex="1" parent="vHsZxBeeYl8psc7XBQ7O-404">
          <mxGeometry x="140" y="140" width="20" height="20" as="geometry" />
        </mxCell>
        <mxCell id="vHsZxBeeYl8psc7XBQ7O-469" value="" style="whiteSpace=wrap;html=1;aspect=fixed;fillColor=#B3FF66;container=0;strokeColor=default;" vertex="1" parent="1">
          <mxGeometry x="880" y="160" width="20" height="20" as="geometry" />
        </mxCell>
        <mxCell id="vHsZxBeeYl8psc7XBQ7O-470" value="" style="whiteSpace=wrap;html=1;aspect=fixed;fillColor=#B3FF66;container=0;strokeColor=default;" vertex="1" parent="1">
          <mxGeometry x="880" y="180" width="20" height="20" as="geometry" />
        </mxCell>
        <mxCell id="vHsZxBeeYl8psc7XBQ7O-471" value="" style="whiteSpace=wrap;html=1;aspect=fixed;fillColor=#B3FF66;container=0;strokeColor=default;" vertex="1" parent="1">
          <mxGeometry x="900" y="160" width="20" height="20" as="geometry" />
        </mxCell>
        <mxCell id="vHsZxBeeYl8psc7XBQ7O-472" value="" style="whiteSpace=wrap;html=1;aspect=fixed;fillColor=#B3FF66;container=0;strokeColor=default;" vertex="1" parent="1">
          <mxGeometry x="900" y="180" width="20" height="20" as="geometry" />
        </mxCell>
        <mxCell id="vHsZxBeeYl8psc7XBQ7O-473" value="" style="whiteSpace=wrap;html=1;aspect=fixed;fillColor=#B3FF66;container=0;strokeColor=default;" vertex="1" parent="1">
          <mxGeometry x="920" y="160" width="20" height="20" as="geometry" />
        </mxCell>
        <mxCell id="vHsZxBeeYl8psc7XBQ7O-474" value="" style="whiteSpace=wrap;html=1;aspect=fixed;fillColor=#B3FF66;container=0;strokeColor=default;" vertex="1" parent="1">
          <mxGeometry x="920" y="180" width="20" height="20" as="geometry" />
        </mxCell>
        <mxCell id="vHsZxBeeYl8psc7XBQ7O-475" value="" style="whiteSpace=wrap;html=1;aspect=fixed;fillColor=#00FFFF;container=0;strokeColor=default;" vertex="1" parent="1">
          <mxGeometry x="940" y="160" width="20" height="20" as="geometry" />
        </mxCell>
        <mxCell id="vHsZxBeeYl8psc7XBQ7O-476" value="" style="whiteSpace=wrap;html=1;aspect=fixed;fillColor=#00FFFF;container=0;strokeColor=default;" vertex="1" parent="1">
          <mxGeometry x="940" y="180" width="20" height="20" as="geometry" />
        </mxCell>
        <mxCell id="vHsZxBeeYl8psc7XBQ7O-477" value="" style="whiteSpace=wrap;html=1;aspect=fixed;fillColor=#B3FF66;container=0;strokeColor=default;" vertex="1" parent="1">
          <mxGeometry x="880" y="200" width="20" height="20" as="geometry" />
        </mxCell>
        <mxCell id="vHsZxBeeYl8psc7XBQ7O-478" value="" style="whiteSpace=wrap;html=1;aspect=fixed;fillColor=#FF0000;container=0;strokeColor=default;" vertex="1" parent="1">
          <mxGeometry x="880" y="220" width="20" height="20" as="geometry" />
        </mxCell>
        <mxCell id="vHsZxBeeYl8psc7XBQ7O-479" value="" style="whiteSpace=wrap;html=1;aspect=fixed;fillColor=#B3FF66;container=0;strokeColor=default;" vertex="1" parent="1">
          <mxGeometry x="900" y="200" width="20" height="20" as="geometry" />
        </mxCell>
        <mxCell id="vHsZxBeeYl8psc7XBQ7O-480" value="" style="whiteSpace=wrap;html=1;aspect=fixed;fillColor=#FF0000;container=0;strokeColor=default;" vertex="1" parent="1">
          <mxGeometry x="900" y="220" width="20" height="20" as="geometry" />
        </mxCell>
        <mxCell id="vHsZxBeeYl8psc7XBQ7O-481" value="" style="whiteSpace=wrap;html=1;aspect=fixed;fillColor=#B3FF66;container=0;strokeColor=default;" vertex="1" parent="1">
          <mxGeometry x="920" y="200" width="20" height="20" as="geometry" />
        </mxCell>
        <mxCell id="vHsZxBeeYl8psc7XBQ7O-482" value="" style="whiteSpace=wrap;html=1;aspect=fixed;fillColor=#FF0000;container=0;strokeColor=default;" vertex="1" parent="1">
          <mxGeometry x="920" y="220" width="20" height="20" as="geometry" />
        </mxCell>
        <mxCell id="vHsZxBeeYl8psc7XBQ7O-483" value="" style="whiteSpace=wrap;html=1;aspect=fixed;fillColor=#00FFFF;container=0;strokeColor=default;" vertex="1" parent="1">
          <mxGeometry x="940" y="200" width="20" height="20" as="geometry" />
        </mxCell>
        <mxCell id="vHsZxBeeYl8psc7XBQ7O-484" value="" style="whiteSpace=wrap;html=1;aspect=fixed;fillColor=#330000;container=0;strokeColor=default;" vertex="1" parent="1">
          <mxGeometry x="940" y="220" width="20" height="20" as="geometry" />
        </mxCell>
        <mxCell id="vHsZxBeeYl8psc7XBQ7O-485" value="" style="whiteSpace=wrap;html=1;aspect=fixed;fillColor=#B3FF66;container=0;strokeColor=default;" vertex="1" parent="1">
          <mxGeometry x="960" y="160" width="20" height="20" as="geometry" />
        </mxCell>
        <mxCell id="vHsZxBeeYl8psc7XBQ7O-486" value="" style="whiteSpace=wrap;html=1;aspect=fixed;fillColor=#B3FF66;container=0;strokeColor=default;" vertex="1" parent="1">
          <mxGeometry x="960" y="180" width="20" height="20" as="geometry" />
        </mxCell>
        <mxCell id="vHsZxBeeYl8psc7XBQ7O-487" value="" style="whiteSpace=wrap;html=1;aspect=fixed;fillColor=#B3FF66;container=0;strokeColor=default;" vertex="1" parent="1">
          <mxGeometry x="980" y="160" width="20" height="20" as="geometry" />
        </mxCell>
        <mxCell id="vHsZxBeeYl8psc7XBQ7O-488" value="" style="whiteSpace=wrap;html=1;aspect=fixed;fillColor=#B3FF66;container=0;strokeColor=default;" vertex="1" parent="1">
          <mxGeometry x="980" y="180" width="20" height="20" as="geometry" />
        </mxCell>
        <mxCell id="vHsZxBeeYl8psc7XBQ7O-489" value="" style="whiteSpace=wrap;html=1;aspect=fixed;fillColor=#B3FF66;container=0;strokeColor=default;" vertex="1" parent="1">
          <mxGeometry x="1000" y="160" width="20" height="20" as="geometry" />
        </mxCell>
        <mxCell id="vHsZxBeeYl8psc7XBQ7O-490" value="" style="whiteSpace=wrap;html=1;aspect=fixed;fillColor=#B3FF66;container=0;strokeColor=default;" vertex="1" parent="1">
          <mxGeometry x="1000" y="180" width="20" height="20" as="geometry" />
        </mxCell>
        <mxCell id="vHsZxBeeYl8psc7XBQ7O-491" value="" style="whiteSpace=wrap;html=1;aspect=fixed;fillColor=#B3FF66;container=0;strokeColor=default;" vertex="1" parent="1">
          <mxGeometry x="1020" y="160" width="20" height="20" as="geometry" />
        </mxCell>
        <mxCell id="vHsZxBeeYl8psc7XBQ7O-492" value="" style="whiteSpace=wrap;html=1;aspect=fixed;fillColor=#B3FF66;container=0;strokeColor=default;" vertex="1" parent="1">
          <mxGeometry x="1020" y="180" width="20" height="20" as="geometry" />
        </mxCell>
        <mxCell id="vHsZxBeeYl8psc7XBQ7O-493" value="" style="whiteSpace=wrap;html=1;aspect=fixed;fillColor=#B3FF66;container=0;strokeColor=default;" vertex="1" parent="1">
          <mxGeometry x="960" y="200" width="20" height="20" as="geometry" />
        </mxCell>
        <mxCell id="vHsZxBeeYl8psc7XBQ7O-494" value="" style="whiteSpace=wrap;html=1;aspect=fixed;fillColor=#FF0000;container=0;strokeColor=default;" vertex="1" parent="1">
          <mxGeometry x="960" y="220" width="20" height="20" as="geometry" />
        </mxCell>
        <mxCell id="vHsZxBeeYl8psc7XBQ7O-495" value="" style="whiteSpace=wrap;html=1;aspect=fixed;fillColor=#B3FF66;container=0;strokeColor=default;" vertex="1" parent="1">
          <mxGeometry x="980" y="200" width="20" height="20" as="geometry" />
        </mxCell>
        <mxCell id="vHsZxBeeYl8psc7XBQ7O-496" value="" style="whiteSpace=wrap;html=1;aspect=fixed;fillColor=#FF0000;container=0;strokeColor=default;" vertex="1" parent="1">
          <mxGeometry x="980" y="220" width="20" height="20" as="geometry" />
        </mxCell>
        <mxCell id="vHsZxBeeYl8psc7XBQ7O-497" value="" style="whiteSpace=wrap;html=1;aspect=fixed;fillColor=#B3FF66;container=0;strokeColor=default;" vertex="1" parent="1">
          <mxGeometry x="1000" y="200" width="20" height="20" as="geometry" />
        </mxCell>
        <mxCell id="vHsZxBeeYl8psc7XBQ7O-498" value="" style="whiteSpace=wrap;html=1;aspect=fixed;fillColor=#FF0000;container=0;strokeColor=default;" vertex="1" parent="1">
          <mxGeometry x="1000" y="220" width="20" height="20" as="geometry" />
        </mxCell>
        <mxCell id="vHsZxBeeYl8psc7XBQ7O-499" value="" style="whiteSpace=wrap;html=1;aspect=fixed;fillColor=#B3FF66;container=0;strokeColor=default;" vertex="1" parent="1">
          <mxGeometry x="1020" y="200" width="20" height="20" as="geometry" />
        </mxCell>
        <mxCell id="vHsZxBeeYl8psc7XBQ7O-500" value="" style="whiteSpace=wrap;html=1;aspect=fixed;fillColor=#FF0000;container=0;strokeColor=default;" vertex="1" parent="1">
          <mxGeometry x="1020" y="220" width="20" height="20" as="geometry" />
        </mxCell>
        <mxCell id="vHsZxBeeYl8psc7XBQ7O-501" value="" style="whiteSpace=wrap;html=1;aspect=fixed;fillColor=#B3FF66;container=0;strokeColor=default;" vertex="1" parent="1">
          <mxGeometry x="880" y="240" width="20" height="20" as="geometry" />
        </mxCell>
        <mxCell id="vHsZxBeeYl8psc7XBQ7O-502" value="" style="whiteSpace=wrap;html=1;aspect=fixed;fillColor=#B3FF66;container=0;strokeColor=default;" vertex="1" parent="1">
          <mxGeometry x="880" y="260" width="20" height="20" as="geometry" />
        </mxCell>
        <mxCell id="vHsZxBeeYl8psc7XBQ7O-503" value="" style="whiteSpace=wrap;html=1;aspect=fixed;fillColor=#B3FF66;container=0;strokeColor=default;" vertex="1" parent="1">
          <mxGeometry x="900" y="240" width="20" height="20" as="geometry" />
        </mxCell>
        <mxCell id="vHsZxBeeYl8psc7XBQ7O-504" value="" style="whiteSpace=wrap;html=1;aspect=fixed;fillColor=#B3FF66;container=0;strokeColor=default;" vertex="1" parent="1">
          <mxGeometry x="900" y="260" width="20" height="20" as="geometry" />
        </mxCell>
        <mxCell id="vHsZxBeeYl8psc7XBQ7O-505" value="" style="whiteSpace=wrap;html=1;aspect=fixed;fillColor=#B3FF66;container=0;strokeColor=default;" vertex="1" parent="1">
          <mxGeometry x="920" y="240" width="20" height="20" as="geometry" />
        </mxCell>
        <mxCell id="vHsZxBeeYl8psc7XBQ7O-506" value="" style="whiteSpace=wrap;html=1;aspect=fixed;fillColor=#B3FF66;container=0;strokeColor=default;" vertex="1" parent="1">
          <mxGeometry x="920" y="260" width="20" height="20" as="geometry" />
        </mxCell>
        <mxCell id="vHsZxBeeYl8psc7XBQ7O-507" value="" style="whiteSpace=wrap;html=1;aspect=fixed;fillColor=#00FFFF;container=0;strokeColor=default;" vertex="1" parent="1">
          <mxGeometry x="940" y="240" width="20" height="20" as="geometry" />
        </mxCell>
        <mxCell id="vHsZxBeeYl8psc7XBQ7O-508" value="" style="whiteSpace=wrap;html=1;aspect=fixed;fillColor=#00FFFF;container=0;strokeColor=default;" vertex="1" parent="1">
          <mxGeometry x="940" y="260" width="20" height="20" as="geometry" />
        </mxCell>
        <mxCell id="vHsZxBeeYl8psc7XBQ7O-509" value="" style="whiteSpace=wrap;html=1;aspect=fixed;fillColor=#B3FF66;container=0;strokeColor=default;" vertex="1" parent="1">
          <mxGeometry x="880" y="280" width="20" height="20" as="geometry" />
        </mxCell>
        <mxCell id="vHsZxBeeYl8psc7XBQ7O-510" value="" style="whiteSpace=wrap;html=1;aspect=fixed;fillColor=#B3FF66;container=0;strokeColor=default;" vertex="1" parent="1">
          <mxGeometry x="880" y="300" width="20" height="20" as="geometry" />
        </mxCell>
        <mxCell id="vHsZxBeeYl8psc7XBQ7O-511" value="" style="whiteSpace=wrap;html=1;aspect=fixed;fillColor=#B3FF66;container=0;strokeColor=default;" vertex="1" parent="1">
          <mxGeometry x="900" y="280" width="20" height="20" as="geometry" />
        </mxCell>
        <mxCell id="vHsZxBeeYl8psc7XBQ7O-512" value="" style="whiteSpace=wrap;html=1;aspect=fixed;fillColor=#B3FF66;container=0;strokeColor=default;" vertex="1" parent="1">
          <mxGeometry x="900" y="300" width="20" height="20" as="geometry" />
        </mxCell>
        <mxCell id="vHsZxBeeYl8psc7XBQ7O-513" value="" style="whiteSpace=wrap;html=1;aspect=fixed;fillColor=#B3FF66;container=0;strokeColor=default;" vertex="1" parent="1">
          <mxGeometry x="920" y="280" width="20" height="20" as="geometry" />
        </mxCell>
        <mxCell id="vHsZxBeeYl8psc7XBQ7O-514" value="" style="whiteSpace=wrap;html=1;aspect=fixed;fillColor=#B3FF66;container=0;strokeColor=default;" vertex="1" parent="1">
          <mxGeometry x="920" y="300" width="20" height="20" as="geometry" />
        </mxCell>
        <mxCell id="vHsZxBeeYl8psc7XBQ7O-515" value="" style="whiteSpace=wrap;html=1;aspect=fixed;fillColor=#00FFFF;container=0;strokeColor=default;" vertex="1" parent="1">
          <mxGeometry x="940" y="280" width="20" height="20" as="geometry" />
        </mxCell>
        <mxCell id="vHsZxBeeYl8psc7XBQ7O-516" value="" style="whiteSpace=wrap;html=1;aspect=fixed;fillColor=#00FFFF;container=0;strokeColor=default;" vertex="1" parent="1">
          <mxGeometry x="940" y="300" width="20" height="20" as="geometry" />
        </mxCell>
        <mxCell id="vHsZxBeeYl8psc7XBQ7O-517" value="" style="whiteSpace=wrap;html=1;aspect=fixed;fillColor=#B3FF66;container=0;strokeColor=default;" vertex="1" parent="1">
          <mxGeometry x="960" y="240" width="20" height="20" as="geometry" />
        </mxCell>
        <mxCell id="vHsZxBeeYl8psc7XBQ7O-518" value="" style="whiteSpace=wrap;html=1;aspect=fixed;fillColor=#B3FF66;container=0;strokeColor=default;" vertex="1" parent="1">
          <mxGeometry x="960" y="260" width="20" height="20" as="geometry" />
        </mxCell>
        <mxCell id="vHsZxBeeYl8psc7XBQ7O-519" value="" style="whiteSpace=wrap;html=1;aspect=fixed;fillColor=#B3FF66;container=0;strokeColor=default;" vertex="1" parent="1">
          <mxGeometry x="980" y="240" width="20" height="20" as="geometry" />
        </mxCell>
        <mxCell id="vHsZxBeeYl8psc7XBQ7O-520" value="" style="whiteSpace=wrap;html=1;aspect=fixed;fillColor=#B3FF66;container=0;strokeColor=default;" vertex="1" parent="1">
          <mxGeometry x="980" y="260" width="20" height="20" as="geometry" />
        </mxCell>
        <mxCell id="vHsZxBeeYl8psc7XBQ7O-521" value="" style="whiteSpace=wrap;html=1;aspect=fixed;fillColor=#B3FF66;container=0;strokeColor=default;" vertex="1" parent="1">
          <mxGeometry x="1000" y="240" width="20" height="20" as="geometry" />
        </mxCell>
        <mxCell id="vHsZxBeeYl8psc7XBQ7O-522" value="" style="whiteSpace=wrap;html=1;aspect=fixed;fillColor=#B3FF66;container=0;strokeColor=default;" vertex="1" parent="1">
          <mxGeometry x="1000" y="260" width="20" height="20" as="geometry" />
        </mxCell>
        <mxCell id="vHsZxBeeYl8psc7XBQ7O-523" value="" style="whiteSpace=wrap;html=1;aspect=fixed;fillColor=#B3FF66;container=0;strokeColor=default;" vertex="1" parent="1">
          <mxGeometry x="1020" y="240" width="20" height="20" as="geometry" />
        </mxCell>
        <mxCell id="vHsZxBeeYl8psc7XBQ7O-524" value="" style="whiteSpace=wrap;html=1;aspect=fixed;fillColor=#B3FF66;container=0;strokeColor=default;" vertex="1" parent="1">
          <mxGeometry x="1020" y="260" width="20" height="20" as="geometry" />
        </mxCell>
        <mxCell id="vHsZxBeeYl8psc7XBQ7O-525" value="" style="whiteSpace=wrap;html=1;aspect=fixed;fillColor=#B3FF66;container=0;strokeColor=default;" vertex="1" parent="1">
          <mxGeometry x="960" y="280" width="20" height="20" as="geometry" />
        </mxCell>
        <mxCell id="vHsZxBeeYl8psc7XBQ7O-526" value="" style="whiteSpace=wrap;html=1;aspect=fixed;fillColor=#B3FF66;container=0;strokeColor=default;" vertex="1" parent="1">
          <mxGeometry x="960" y="300" width="20" height="20" as="geometry" />
        </mxCell>
        <mxCell id="vHsZxBeeYl8psc7XBQ7O-527" value="" style="whiteSpace=wrap;html=1;aspect=fixed;fillColor=#B3FF66;container=0;strokeColor=default;" vertex="1" parent="1">
          <mxGeometry x="980" y="280" width="20" height="20" as="geometry" />
        </mxCell>
        <mxCell id="vHsZxBeeYl8psc7XBQ7O-528" value="" style="whiteSpace=wrap;html=1;aspect=fixed;fillColor=#B3FF66;container=0;strokeColor=default;" vertex="1" parent="1">
          <mxGeometry x="980" y="300" width="20" height="20" as="geometry" />
        </mxCell>
        <mxCell id="vHsZxBeeYl8psc7XBQ7O-529" value="" style="whiteSpace=wrap;html=1;aspect=fixed;fillColor=#B3FF66;container=0;strokeColor=default;" vertex="1" parent="1">
          <mxGeometry x="1000" y="280" width="20" height="20" as="geometry" />
        </mxCell>
        <mxCell id="vHsZxBeeYl8psc7XBQ7O-530" value="" style="whiteSpace=wrap;html=1;aspect=fixed;fillColor=#B3FF66;container=0;strokeColor=default;" vertex="1" parent="1">
          <mxGeometry x="1000" y="300" width="20" height="20" as="geometry" />
        </mxCell>
        <mxCell id="vHsZxBeeYl8psc7XBQ7O-531" value="" style="whiteSpace=wrap;html=1;aspect=fixed;fillColor=#B3FF66;container=0;strokeColor=default;" vertex="1" parent="1">
          <mxGeometry x="1020" y="280" width="20" height="20" as="geometry" />
        </mxCell>
        <mxCell id="vHsZxBeeYl8psc7XBQ7O-532" value="" style="whiteSpace=wrap;html=1;aspect=fixed;fillColor=#B3FF66;container=0;strokeColor=default;" vertex="1" parent="1">
          <mxGeometry x="1020" y="300" width="20" height="20" as="geometry" />
        </mxCell>
        <mxCell id="vHsZxBeeYl8psc7XBQ7O-537" value="&lt;span style=&quot;font-size: 16px;&quot;&gt;Concat&lt;/span&gt;" style="text;html=1;align=center;verticalAlign=middle;whiteSpace=wrap;rounded=0;" vertex="1" parent="1">
          <mxGeometry x="790" y="210" width="80" height="30" as="geometry" />
        </mxCell>
        <mxCell id="vHsZxBeeYl8psc7XBQ7O-540" value="&lt;font style=&quot;font-size: 16px;&quot;&gt;h&lt;sub style=&quot;&quot;&gt;k&lt;/sub&gt;&lt;/font&gt;" style="text;html=1;align=center;verticalAlign=middle;whiteSpace=wrap;rounded=0;" vertex="1" parent="1">
          <mxGeometry x="320" y="277.5" width="30" height="25" as="geometry" />
        </mxCell>
        <mxCell id="vHsZxBeeYl8psc7XBQ7O-541" value="&lt;font style=&quot;font-size: 16px;&quot;&gt;h&lt;sub style=&quot;&quot;&gt;1&lt;/sub&gt;&lt;/font&gt;" style="text;html=1;align=center;verticalAlign=middle;whiteSpace=wrap;rounded=0;" vertex="1" parent="1">
          <mxGeometry x="280" y="320" width="30" height="25" as="geometry" />
        </mxCell>
        <mxCell id="vHsZxBeeYl8psc7XBQ7O-542" value="" style="endArrow=none;dashed=1;html=1;dashPattern=1 3;strokeWidth=2;rounded=0;entryX=0.076;entryY=0.9;entryDx=0;entryDy=0;exitX=0.742;exitY=0.117;exitDx=0;exitDy=0;exitPerimeter=0;entryPerimeter=0;" edge="1" parent="1" source="vHsZxBeeYl8psc7XBQ7O-541" target="vHsZxBeeYl8psc7XBQ7O-540">
          <mxGeometry width="50" height="50" relative="1" as="geometry">
            <mxPoint x="290" y="335" as="sourcePoint" />
            <mxPoint x="330" y="300" as="targetPoint" />
          </mxGeometry>
        </mxCell>
        <mxCell id="vHsZxBeeYl8psc7XBQ7O-543" value="&lt;font style=&quot;&quot;&gt;&lt;span style=&quot;font-size: 16px;&quot;&gt;h&lt;sub&gt;(&lt;/sub&gt;&lt;/span&gt;&lt;sub style=&quot;&quot;&gt;&lt;span style=&quot;font-size: 11.1111px;&quot;&gt;k/2)&lt;/span&gt;&lt;/sub&gt;&lt;/font&gt;" style="text;html=1;align=center;verticalAlign=middle;whiteSpace=wrap;rounded=0;" vertex="1" parent="1">
          <mxGeometry x="720" y="160" width="30" height="21.25" as="geometry" />
        </mxCell>
        <mxCell id="vHsZxBeeYl8psc7XBQ7O-544" value="&lt;font style=&quot;font-size: 16px;&quot;&gt;h&lt;sub style=&quot;&quot;&gt;1&lt;/sub&gt;&lt;/font&gt;" style="text;html=1;align=center;verticalAlign=middle;whiteSpace=wrap;rounded=0;" vertex="1" parent="1">
          <mxGeometry x="680" y="198.75" width="30" height="25" as="geometry" />
        </mxCell>
        <mxCell id="vHsZxBeeYl8psc7XBQ7O-545" value="" style="endArrow=none;dashed=1;html=1;dashPattern=1 3;strokeWidth=2;rounded=0;entryX=0.076;entryY=0.9;entryDx=0;entryDy=0;exitX=0.742;exitY=0.117;exitDx=0;exitDy=0;exitPerimeter=0;entryPerimeter=0;" edge="1" parent="1" source="vHsZxBeeYl8psc7XBQ7O-544" target="vHsZxBeeYl8psc7XBQ7O-543">
          <mxGeometry width="50" height="50" relative="1" as="geometry">
            <mxPoint x="690" y="213.75" as="sourcePoint" />
            <mxPoint x="730" y="178.75" as="targetPoint" />
          </mxGeometry>
        </mxCell>
        <mxCell id="vHsZxBeeYl8psc7XBQ7O-670" value="" style="group" vertex="1" connectable="0" parent="1">
          <mxGeometry x="520" y="40" width="200" height="160" as="geometry" />
        </mxCell>
        <mxCell id="vHsZxBeeYl8psc7XBQ7O-204" value="" style="whiteSpace=wrap;html=1;aspect=fixed;fillColor=#B3FF66;container=0;strokeColor=default;" vertex="1" parent="vHsZxBeeYl8psc7XBQ7O-670">
          <mxGeometry width="20" height="20" as="geometry" />
        </mxCell>
        <mxCell id="vHsZxBeeYl8psc7XBQ7O-205" value="" style="whiteSpace=wrap;html=1;aspect=fixed;fillColor=#B3FF66;container=0;strokeColor=default;" vertex="1" parent="vHsZxBeeYl8psc7XBQ7O-670">
          <mxGeometry y="20" width="20" height="20" as="geometry" />
        </mxCell>
        <mxCell id="vHsZxBeeYl8psc7XBQ7O-206" value="" style="whiteSpace=wrap;html=1;aspect=fixed;fillColor=#B3FF66;container=0;strokeColor=default;" vertex="1" parent="vHsZxBeeYl8psc7XBQ7O-670">
          <mxGeometry x="20" width="20" height="20" as="geometry" />
        </mxCell>
        <mxCell id="vHsZxBeeYl8psc7XBQ7O-139" value="" style="group;aspect=fixed;" vertex="1" connectable="0" parent="vHsZxBeeYl8psc7XBQ7O-670">
          <mxGeometry x="40" y="-40" width="160" height="160" as="geometry" />
        </mxCell>
        <mxCell id="vHsZxBeeYl8psc7XBQ7O-140" value="" style="whiteSpace=wrap;html=1;aspect=fixed;fillColor=#E6FFCC;container=0;strokeColor=#FFFFFF;" vertex="1" parent="vHsZxBeeYl8psc7XBQ7O-139">
          <mxGeometry width="20" height="20" as="geometry" />
        </mxCell>
        <mxCell id="vHsZxBeeYl8psc7XBQ7O-141" value="" style="whiteSpace=wrap;html=1;aspect=fixed;fillColor=#E6FFCC;container=0;strokeColor=#FFFFFF;" vertex="1" parent="vHsZxBeeYl8psc7XBQ7O-139">
          <mxGeometry y="20" width="20" height="20" as="geometry" />
        </mxCell>
        <mxCell id="vHsZxBeeYl8psc7XBQ7O-188" value="" style="whiteSpace=wrap;html=1;aspect=fixed;fillColor=#E6FFCC;container=0;strokeColor=#FFFFFF;" vertex="1" parent="vHsZxBeeYl8psc7XBQ7O-139">
          <mxGeometry x="80" y="80" width="20" height="20" as="geometry" />
        </mxCell>
        <mxCell id="vHsZxBeeYl8psc7XBQ7O-142" value="" style="whiteSpace=wrap;html=1;aspect=fixed;fillColor=#E6FFCC;container=0;strokeColor=#FFFFFF;" vertex="1" parent="vHsZxBeeYl8psc7XBQ7O-139">
          <mxGeometry x="20" width="20" height="20" as="geometry" />
        </mxCell>
        <mxCell id="vHsZxBeeYl8psc7XBQ7O-143" value="" style="whiteSpace=wrap;html=1;aspect=fixed;fillColor=#E6FFCC;container=0;strokeColor=#FFFFFF;" vertex="1" parent="vHsZxBeeYl8psc7XBQ7O-139">
          <mxGeometry x="20" y="20" width="20" height="20" as="geometry" />
        </mxCell>
        <mxCell id="vHsZxBeeYl8psc7XBQ7O-144" value="" style="whiteSpace=wrap;html=1;aspect=fixed;fillColor=#E6FFCC;container=0;strokeColor=#FFFFFF;" vertex="1" parent="vHsZxBeeYl8psc7XBQ7O-139">
          <mxGeometry x="40" width="20" height="20" as="geometry" />
        </mxCell>
        <mxCell id="vHsZxBeeYl8psc7XBQ7O-145" value="" style="whiteSpace=wrap;html=1;aspect=fixed;fillColor=#E6FFCC;container=0;strokeColor=#FFFFFF;" vertex="1" parent="vHsZxBeeYl8psc7XBQ7O-139">
          <mxGeometry x="40" y="20" width="20" height="20" as="geometry" />
        </mxCell>
        <mxCell id="vHsZxBeeYl8psc7XBQ7O-146" value="" style="whiteSpace=wrap;html=1;aspect=fixed;fillColor=#E6FFCC;container=0;strokeColor=#FFFFFF;" vertex="1" parent="vHsZxBeeYl8psc7XBQ7O-139">
          <mxGeometry x="60" width="20" height="20" as="geometry" />
        </mxCell>
        <mxCell id="vHsZxBeeYl8psc7XBQ7O-147" value="" style="whiteSpace=wrap;html=1;aspect=fixed;fillColor=#E6FFCC;container=0;strokeColor=#FFFFFF;" vertex="1" parent="vHsZxBeeYl8psc7XBQ7O-139">
          <mxGeometry x="60" y="20" width="20" height="20" as="geometry" />
        </mxCell>
        <mxCell id="vHsZxBeeYl8psc7XBQ7O-148" value="" style="whiteSpace=wrap;html=1;aspect=fixed;fillColor=#E6FFCC;container=0;strokeColor=#FFFFFF;" vertex="1" parent="vHsZxBeeYl8psc7XBQ7O-139">
          <mxGeometry y="40" width="20" height="20" as="geometry" />
        </mxCell>
        <mxCell id="vHsZxBeeYl8psc7XBQ7O-149" value="" style="whiteSpace=wrap;html=1;aspect=fixed;fillColor=#E6FFCC;container=0;strokeColor=#FFFFFF;" vertex="1" parent="vHsZxBeeYl8psc7XBQ7O-139">
          <mxGeometry y="60" width="20" height="20" as="geometry" />
        </mxCell>
        <mxCell id="vHsZxBeeYl8psc7XBQ7O-150" value="" style="whiteSpace=wrap;html=1;aspect=fixed;fillColor=#E6FFCC;container=0;strokeColor=#FFFFFF;" vertex="1" parent="vHsZxBeeYl8psc7XBQ7O-139">
          <mxGeometry x="20" y="40" width="20" height="20" as="geometry" />
        </mxCell>
        <mxCell id="vHsZxBeeYl8psc7XBQ7O-151" value="" style="whiteSpace=wrap;html=1;aspect=fixed;fillColor=#E6FFCC;container=0;strokeColor=#FFFFFF;" vertex="1" parent="vHsZxBeeYl8psc7XBQ7O-139">
          <mxGeometry x="20" y="60" width="20" height="20" as="geometry" />
        </mxCell>
        <mxCell id="vHsZxBeeYl8psc7XBQ7O-152" value="" style="whiteSpace=wrap;html=1;aspect=fixed;fillColor=#E6FFCC;container=0;strokeColor=#FFFFFF;" vertex="1" parent="vHsZxBeeYl8psc7XBQ7O-139">
          <mxGeometry x="40" y="40" width="20" height="20" as="geometry" />
        </mxCell>
        <mxCell id="vHsZxBeeYl8psc7XBQ7O-153" value="" style="whiteSpace=wrap;html=1;aspect=fixed;fillColor=#E6FFCC;container=0;strokeColor=#FFFFFF;" vertex="1" parent="vHsZxBeeYl8psc7XBQ7O-139">
          <mxGeometry x="40" y="60" width="20" height="20" as="geometry" />
        </mxCell>
        <mxCell id="vHsZxBeeYl8psc7XBQ7O-154" value="" style="whiteSpace=wrap;html=1;aspect=fixed;fillColor=#E6FFCC;container=0;strokeColor=#FFFFFF;" vertex="1" parent="vHsZxBeeYl8psc7XBQ7O-139">
          <mxGeometry x="60" y="40" width="20" height="20" as="geometry" />
        </mxCell>
        <mxCell id="vHsZxBeeYl8psc7XBQ7O-155" value="" style="whiteSpace=wrap;html=1;aspect=fixed;fillColor=#E6FFCC;container=0;strokeColor=#FFFFFF;" vertex="1" parent="vHsZxBeeYl8psc7XBQ7O-139">
          <mxGeometry x="60" y="60" width="20" height="20" as="geometry" />
        </mxCell>
        <mxCell id="vHsZxBeeYl8psc7XBQ7O-156" value="" style="whiteSpace=wrap;html=1;aspect=fixed;fillColor=#E6FFCC;container=0;strokeColor=#FFFFFF;" vertex="1" parent="vHsZxBeeYl8psc7XBQ7O-139">
          <mxGeometry x="80" width="20" height="20" as="geometry" />
        </mxCell>
        <mxCell id="vHsZxBeeYl8psc7XBQ7O-157" value="" style="whiteSpace=wrap;html=1;aspect=fixed;fillColor=#E6FFCC;container=0;strokeColor=#FFFFFF;" vertex="1" parent="vHsZxBeeYl8psc7XBQ7O-139">
          <mxGeometry x="80" y="20" width="20" height="20" as="geometry" />
        </mxCell>
        <mxCell id="vHsZxBeeYl8psc7XBQ7O-158" value="" style="whiteSpace=wrap;html=1;aspect=fixed;fillColor=#E6FFCC;container=0;strokeColor=#FFFFFF;" vertex="1" parent="vHsZxBeeYl8psc7XBQ7O-139">
          <mxGeometry x="100" width="20" height="20" as="geometry" />
        </mxCell>
        <mxCell id="vHsZxBeeYl8psc7XBQ7O-159" value="" style="whiteSpace=wrap;html=1;aspect=fixed;fillColor=#E6FFCC;container=0;strokeColor=#FFFFFF;" vertex="1" parent="vHsZxBeeYl8psc7XBQ7O-139">
          <mxGeometry x="100" y="20" width="20" height="20" as="geometry" />
        </mxCell>
        <mxCell id="vHsZxBeeYl8psc7XBQ7O-160" value="" style="whiteSpace=wrap;html=1;aspect=fixed;fillColor=#E6FFCC;container=0;strokeColor=#FFFFFF;" vertex="1" parent="vHsZxBeeYl8psc7XBQ7O-139">
          <mxGeometry x="120" width="20" height="20" as="geometry" />
        </mxCell>
        <mxCell id="vHsZxBeeYl8psc7XBQ7O-161" value="" style="whiteSpace=wrap;html=1;aspect=fixed;fillColor=#E6FFCC;container=0;strokeColor=#FFFFFF;" vertex="1" parent="vHsZxBeeYl8psc7XBQ7O-139">
          <mxGeometry x="120" y="20" width="20" height="20" as="geometry" />
        </mxCell>
        <mxCell id="vHsZxBeeYl8psc7XBQ7O-162" value="" style="whiteSpace=wrap;html=1;aspect=fixed;fillColor=#E6FFCC;container=0;strokeColor=#FFFFFF;" vertex="1" parent="vHsZxBeeYl8psc7XBQ7O-139">
          <mxGeometry x="140" width="20" height="20" as="geometry" />
        </mxCell>
        <mxCell id="vHsZxBeeYl8psc7XBQ7O-163" value="" style="whiteSpace=wrap;html=1;aspect=fixed;fillColor=#E6FFCC;container=0;strokeColor=#FFFFFF;" vertex="1" parent="vHsZxBeeYl8psc7XBQ7O-139">
          <mxGeometry x="140" y="20" width="20" height="20" as="geometry" />
        </mxCell>
        <mxCell id="vHsZxBeeYl8psc7XBQ7O-164" value="" style="whiteSpace=wrap;html=1;aspect=fixed;fillColor=#E6FFCC;container=0;strokeColor=#FFFFFF;" vertex="1" parent="vHsZxBeeYl8psc7XBQ7O-139">
          <mxGeometry x="80" y="40" width="20" height="20" as="geometry" />
        </mxCell>
        <mxCell id="vHsZxBeeYl8psc7XBQ7O-165" value="" style="whiteSpace=wrap;html=1;aspect=fixed;fillColor=#E6FFCC;container=0;strokeColor=#FFFFFF;" vertex="1" parent="vHsZxBeeYl8psc7XBQ7O-139">
          <mxGeometry x="80" y="60" width="20" height="20" as="geometry" />
        </mxCell>
        <mxCell id="vHsZxBeeYl8psc7XBQ7O-166" value="" style="whiteSpace=wrap;html=1;aspect=fixed;fillColor=#E6FFCC;container=0;strokeColor=#FFFFFF;" vertex="1" parent="vHsZxBeeYl8psc7XBQ7O-139">
          <mxGeometry x="100" y="40" width="20" height="20" as="geometry" />
        </mxCell>
        <mxCell id="vHsZxBeeYl8psc7XBQ7O-167" value="" style="whiteSpace=wrap;html=1;aspect=fixed;fillColor=#E6FFCC;container=0;strokeColor=#FFFFFF;" vertex="1" parent="vHsZxBeeYl8psc7XBQ7O-139">
          <mxGeometry x="100" y="60" width="20" height="20" as="geometry" />
        </mxCell>
        <mxCell id="vHsZxBeeYl8psc7XBQ7O-168" value="" style="whiteSpace=wrap;html=1;aspect=fixed;fillColor=#E6FFCC;container=0;strokeColor=#FFFFFF;" vertex="1" parent="vHsZxBeeYl8psc7XBQ7O-139">
          <mxGeometry x="120" y="40" width="20" height="20" as="geometry" />
        </mxCell>
        <mxCell id="vHsZxBeeYl8psc7XBQ7O-169" value="" style="whiteSpace=wrap;html=1;aspect=fixed;fillColor=#FF6666;container=0;strokeColor=#FFFFFF;" vertex="1" parent="vHsZxBeeYl8psc7XBQ7O-139">
          <mxGeometry x="120" y="60" width="20" height="20" as="geometry" />
        </mxCell>
        <mxCell id="vHsZxBeeYl8psc7XBQ7O-170" value="" style="whiteSpace=wrap;html=1;aspect=fixed;fillColor=#E6FFCC;container=0;strokeColor=#FFFFFF;" vertex="1" parent="vHsZxBeeYl8psc7XBQ7O-139">
          <mxGeometry x="140" y="40" width="20" height="20" as="geometry" />
        </mxCell>
        <mxCell id="vHsZxBeeYl8psc7XBQ7O-171" value="" style="whiteSpace=wrap;html=1;aspect=fixed;fillColor=#FF6666;container=0;strokeColor=#FFFFFF;" vertex="1" parent="vHsZxBeeYl8psc7XBQ7O-139">
          <mxGeometry x="140" y="60" width="20" height="20" as="geometry" />
        </mxCell>
        <mxCell id="vHsZxBeeYl8psc7XBQ7O-172" value="" style="whiteSpace=wrap;html=1;aspect=fixed;fillColor=#E6FFCC;container=0;strokeColor=#FFFFFF;" vertex="1" parent="vHsZxBeeYl8psc7XBQ7O-139">
          <mxGeometry y="80" width="20" height="20" as="geometry" />
        </mxCell>
        <mxCell id="vHsZxBeeYl8psc7XBQ7O-173" value="" style="whiteSpace=wrap;html=1;aspect=fixed;fillColor=#E6FFCC;container=0;strokeColor=#FFFFFF;" vertex="1" parent="vHsZxBeeYl8psc7XBQ7O-139">
          <mxGeometry y="100" width="20" height="20" as="geometry" />
        </mxCell>
        <mxCell id="vHsZxBeeYl8psc7XBQ7O-174" value="" style="whiteSpace=wrap;html=1;aspect=fixed;fillColor=#E6FFCC;container=0;strokeColor=#FFFFFF;" vertex="1" parent="vHsZxBeeYl8psc7XBQ7O-139">
          <mxGeometry x="20" y="80" width="20" height="20" as="geometry" />
        </mxCell>
        <mxCell id="vHsZxBeeYl8psc7XBQ7O-175" value="" style="whiteSpace=wrap;html=1;aspect=fixed;fillColor=#E6FFCC;container=0;strokeColor=#FFFFFF;" vertex="1" parent="vHsZxBeeYl8psc7XBQ7O-139">
          <mxGeometry x="20" y="100" width="20" height="20" as="geometry" />
        </mxCell>
        <mxCell id="vHsZxBeeYl8psc7XBQ7O-176" value="" style="whiteSpace=wrap;html=1;aspect=fixed;fillColor=#E6FFCC;container=0;strokeColor=#FFFFFF;" vertex="1" parent="vHsZxBeeYl8psc7XBQ7O-139">
          <mxGeometry x="40" y="80" width="20" height="20" as="geometry" />
        </mxCell>
        <mxCell id="vHsZxBeeYl8psc7XBQ7O-177" value="" style="whiteSpace=wrap;html=1;aspect=fixed;fillColor=#E6FFCC;container=0;strokeColor=#FFFFFF;" vertex="1" parent="vHsZxBeeYl8psc7XBQ7O-139">
          <mxGeometry x="40" y="100" width="20" height="20" as="geometry" />
        </mxCell>
        <mxCell id="vHsZxBeeYl8psc7XBQ7O-178" value="" style="whiteSpace=wrap;html=1;aspect=fixed;fillColor=#E6FFCC;container=0;strokeColor=#FFFFFF;" vertex="1" parent="vHsZxBeeYl8psc7XBQ7O-139">
          <mxGeometry x="60" y="80" width="20" height="20" as="geometry" />
        </mxCell>
        <mxCell id="vHsZxBeeYl8psc7XBQ7O-179" value="" style="whiteSpace=wrap;html=1;aspect=fixed;fillColor=#E6FFCC;container=0;strokeColor=#FFFFFF;" vertex="1" parent="vHsZxBeeYl8psc7XBQ7O-139">
          <mxGeometry x="60" y="100" width="20" height="20" as="geometry" />
        </mxCell>
        <mxCell id="vHsZxBeeYl8psc7XBQ7O-180" value="" style="whiteSpace=wrap;html=1;aspect=fixed;fillColor=#E6FFCC;container=0;strokeColor=#FFFFFF;" vertex="1" parent="vHsZxBeeYl8psc7XBQ7O-139">
          <mxGeometry y="120" width="20" height="20" as="geometry" />
        </mxCell>
        <mxCell id="vHsZxBeeYl8psc7XBQ7O-181" value="" style="whiteSpace=wrap;html=1;aspect=fixed;fillColor=#E6FFCC;container=0;strokeColor=#FFFFFF;" vertex="1" parent="vHsZxBeeYl8psc7XBQ7O-139">
          <mxGeometry y="140" width="20" height="20" as="geometry" />
        </mxCell>
        <mxCell id="vHsZxBeeYl8psc7XBQ7O-182" value="" style="whiteSpace=wrap;html=1;aspect=fixed;fillColor=#E6FFCC;container=0;strokeColor=#FFFFFF;" vertex="1" parent="vHsZxBeeYl8psc7XBQ7O-139">
          <mxGeometry x="20" y="120" width="20" height="20" as="geometry" />
        </mxCell>
        <mxCell id="vHsZxBeeYl8psc7XBQ7O-183" value="" style="whiteSpace=wrap;html=1;aspect=fixed;fillColor=#E6FFCC;container=0;strokeColor=#FFFFFF;" vertex="1" parent="vHsZxBeeYl8psc7XBQ7O-139">
          <mxGeometry x="20" y="140" width="20" height="20" as="geometry" />
        </mxCell>
        <mxCell id="vHsZxBeeYl8psc7XBQ7O-184" value="" style="whiteSpace=wrap;html=1;aspect=fixed;fillColor=#E6FFCC;container=0;strokeColor=#FFFFFF;" vertex="1" parent="vHsZxBeeYl8psc7XBQ7O-139">
          <mxGeometry x="40" y="120" width="20" height="20" as="geometry" />
        </mxCell>
        <mxCell id="vHsZxBeeYl8psc7XBQ7O-185" value="" style="whiteSpace=wrap;html=1;aspect=fixed;fillColor=#E6FFCC;container=0;strokeColor=#FFFFFF;" vertex="1" parent="vHsZxBeeYl8psc7XBQ7O-139">
          <mxGeometry x="40" y="140" width="20" height="20" as="geometry" />
        </mxCell>
        <mxCell id="vHsZxBeeYl8psc7XBQ7O-186" value="" style="whiteSpace=wrap;html=1;aspect=fixed;fillColor=#E6FFCC;container=0;strokeColor=#FFFFFF;" vertex="1" parent="vHsZxBeeYl8psc7XBQ7O-139">
          <mxGeometry x="60" y="120" width="20" height="20" as="geometry" />
        </mxCell>
        <mxCell id="vHsZxBeeYl8psc7XBQ7O-187" value="" style="whiteSpace=wrap;html=1;aspect=fixed;fillColor=#E6FFCC;container=0;strokeColor=#FFFFFF;" vertex="1" parent="vHsZxBeeYl8psc7XBQ7O-139">
          <mxGeometry x="60" y="140" width="20" height="20" as="geometry" />
        </mxCell>
        <mxCell id="vHsZxBeeYl8psc7XBQ7O-189" value="" style="whiteSpace=wrap;html=1;aspect=fixed;fillColor=#E6FFCC;container=0;strokeColor=#FFFFFF;" vertex="1" parent="vHsZxBeeYl8psc7XBQ7O-139">
          <mxGeometry x="100" y="80" width="20" height="20" as="geometry" />
        </mxCell>
        <mxCell id="vHsZxBeeYl8psc7XBQ7O-190" value="" style="whiteSpace=wrap;html=1;aspect=fixed;fillColor=#E6FFCC;container=0;strokeColor=#FFFFFF;" vertex="1" parent="vHsZxBeeYl8psc7XBQ7O-139">
          <mxGeometry x="80" y="100" width="20" height="20" as="geometry" />
        </mxCell>
        <mxCell id="vHsZxBeeYl8psc7XBQ7O-191" value="" style="whiteSpace=wrap;html=1;aspect=fixed;fillColor=#E6FFCC;container=0;strokeColor=#FFFFFF;" vertex="1" parent="vHsZxBeeYl8psc7XBQ7O-139">
          <mxGeometry x="100" y="100" width="20" height="20" as="geometry" />
        </mxCell>
        <mxCell id="vHsZxBeeYl8psc7XBQ7O-192" value="" style="whiteSpace=wrap;html=1;aspect=fixed;fillColor=#E6FFCC;container=0;strokeColor=#FFFFFF;" vertex="1" parent="vHsZxBeeYl8psc7XBQ7O-139">
          <mxGeometry x="120" y="80" width="20" height="20" as="geometry" />
        </mxCell>
        <mxCell id="vHsZxBeeYl8psc7XBQ7O-193" value="" style="whiteSpace=wrap;html=1;aspect=fixed;fillColor=#E6FFCC;container=0;strokeColor=#FFFFFF;" vertex="1" parent="vHsZxBeeYl8psc7XBQ7O-139">
          <mxGeometry x="120" y="100" width="20" height="20" as="geometry" />
        </mxCell>
        <mxCell id="vHsZxBeeYl8psc7XBQ7O-194" value="" style="whiteSpace=wrap;html=1;aspect=fixed;fillColor=#E6FFCC;container=0;strokeColor=#FFFFFF;" vertex="1" parent="vHsZxBeeYl8psc7XBQ7O-139">
          <mxGeometry x="140" y="80" width="20" height="20" as="geometry" />
        </mxCell>
        <mxCell id="vHsZxBeeYl8psc7XBQ7O-195" value="" style="whiteSpace=wrap;html=1;aspect=fixed;fillColor=#E6FFCC;container=0;strokeColor=#FFFFFF;" vertex="1" parent="vHsZxBeeYl8psc7XBQ7O-139">
          <mxGeometry x="140" y="100" width="20" height="20" as="geometry" />
        </mxCell>
        <mxCell id="vHsZxBeeYl8psc7XBQ7O-196" value="" style="whiteSpace=wrap;html=1;aspect=fixed;fillColor=#E6FFCC;container=0;strokeColor=#FFFFFF;" vertex="1" parent="vHsZxBeeYl8psc7XBQ7O-139">
          <mxGeometry x="80" y="120" width="20" height="20" as="geometry" />
        </mxCell>
        <mxCell id="vHsZxBeeYl8psc7XBQ7O-197" value="" style="whiteSpace=wrap;html=1;aspect=fixed;fillColor=#E6FFCC;container=0;strokeColor=#FFFFFF;" vertex="1" parent="vHsZxBeeYl8psc7XBQ7O-139">
          <mxGeometry x="80" y="140" width="20" height="20" as="geometry" />
        </mxCell>
        <mxCell id="vHsZxBeeYl8psc7XBQ7O-198" value="" style="whiteSpace=wrap;html=1;aspect=fixed;fillColor=#E6FFCC;container=0;strokeColor=#FFFFFF;" vertex="1" parent="vHsZxBeeYl8psc7XBQ7O-139">
          <mxGeometry x="100" y="120" width="20" height="20" as="geometry" />
        </mxCell>
        <mxCell id="vHsZxBeeYl8psc7XBQ7O-199" value="" style="whiteSpace=wrap;html=1;aspect=fixed;fillColor=#E6FFCC;container=0;strokeColor=#FFFFFF;" vertex="1" parent="vHsZxBeeYl8psc7XBQ7O-139">
          <mxGeometry x="100" y="140" width="20" height="20" as="geometry" />
        </mxCell>
        <mxCell id="vHsZxBeeYl8psc7XBQ7O-200" value="" style="whiteSpace=wrap;html=1;aspect=fixed;fillColor=#E6FFCC;container=0;strokeColor=#FFFFFF;" vertex="1" parent="vHsZxBeeYl8psc7XBQ7O-139">
          <mxGeometry x="120" y="120" width="20" height="20" as="geometry" />
        </mxCell>
        <mxCell id="vHsZxBeeYl8psc7XBQ7O-201" value="" style="whiteSpace=wrap;html=1;aspect=fixed;fillColor=#E6FFCC;container=0;strokeColor=#FFFFFF;" vertex="1" parent="vHsZxBeeYl8psc7XBQ7O-139">
          <mxGeometry x="120" y="140" width="20" height="20" as="geometry" />
        </mxCell>
        <mxCell id="vHsZxBeeYl8psc7XBQ7O-202" value="" style="whiteSpace=wrap;html=1;aspect=fixed;fillColor=#E6FFCC;container=0;strokeColor=#FFFFFF;" vertex="1" parent="vHsZxBeeYl8psc7XBQ7O-139">
          <mxGeometry x="140" y="120" width="20" height="20" as="geometry" />
        </mxCell>
        <mxCell id="vHsZxBeeYl8psc7XBQ7O-203" value="" style="whiteSpace=wrap;html=1;aspect=fixed;fillColor=#E6FFCC;container=0;strokeColor=#FFFFFF;" vertex="1" parent="vHsZxBeeYl8psc7XBQ7O-139">
          <mxGeometry x="140" y="140" width="20" height="20" as="geometry" />
        </mxCell>
        <mxCell id="vHsZxBeeYl8psc7XBQ7O-207" value="" style="whiteSpace=wrap;html=1;aspect=fixed;fillColor=#B3FF66;container=0;strokeColor=default;" vertex="1" parent="vHsZxBeeYl8psc7XBQ7O-670">
          <mxGeometry x="20" y="20" width="20" height="20" as="geometry" />
        </mxCell>
        <mxCell id="vHsZxBeeYl8psc7XBQ7O-208" value="" style="whiteSpace=wrap;html=1;aspect=fixed;fillColor=#B3FF66;container=0;strokeColor=default;" vertex="1" parent="vHsZxBeeYl8psc7XBQ7O-670">
          <mxGeometry x="40" width="20" height="20" as="geometry" />
        </mxCell>
        <mxCell id="vHsZxBeeYl8psc7XBQ7O-209" value="" style="whiteSpace=wrap;html=1;aspect=fixed;fillColor=#B3FF66;container=0;strokeColor=default;" vertex="1" parent="vHsZxBeeYl8psc7XBQ7O-670">
          <mxGeometry x="40" y="20" width="20" height="20" as="geometry" />
        </mxCell>
        <mxCell id="vHsZxBeeYl8psc7XBQ7O-210" value="" style="whiteSpace=wrap;html=1;aspect=fixed;fillColor=#B3FF66;container=0;strokeColor=default;" vertex="1" parent="vHsZxBeeYl8psc7XBQ7O-670">
          <mxGeometry x="60" width="20" height="20" as="geometry" />
        </mxCell>
        <mxCell id="vHsZxBeeYl8psc7XBQ7O-211" value="" style="whiteSpace=wrap;html=1;aspect=fixed;fillColor=#B3FF66;container=0;strokeColor=default;" vertex="1" parent="vHsZxBeeYl8psc7XBQ7O-670">
          <mxGeometry x="60" y="20" width="20" height="20" as="geometry" />
        </mxCell>
        <mxCell id="vHsZxBeeYl8psc7XBQ7O-212" value="" style="whiteSpace=wrap;html=1;aspect=fixed;fillColor=#B3FF66;container=0;strokeColor=default;" vertex="1" parent="vHsZxBeeYl8psc7XBQ7O-670">
          <mxGeometry y="40" width="20" height="20" as="geometry" />
        </mxCell>
        <mxCell id="vHsZxBeeYl8psc7XBQ7O-213" value="" style="whiteSpace=wrap;html=1;aspect=fixed;fillColor=#FF0000;container=0;strokeColor=default;" vertex="1" parent="vHsZxBeeYl8psc7XBQ7O-670">
          <mxGeometry y="60" width="20" height="20" as="geometry" />
        </mxCell>
        <mxCell id="vHsZxBeeYl8psc7XBQ7O-214" value="" style="whiteSpace=wrap;html=1;aspect=fixed;fillColor=#B3FF66;container=0;strokeColor=default;" vertex="1" parent="vHsZxBeeYl8psc7XBQ7O-670">
          <mxGeometry x="20" y="40" width="20" height="20" as="geometry" />
        </mxCell>
        <mxCell id="vHsZxBeeYl8psc7XBQ7O-215" value="" style="whiteSpace=wrap;html=1;aspect=fixed;fillColor=#FF0000;container=0;strokeColor=default;" vertex="1" parent="vHsZxBeeYl8psc7XBQ7O-670">
          <mxGeometry x="20" y="60" width="20" height="20" as="geometry" />
        </mxCell>
        <mxCell id="vHsZxBeeYl8psc7XBQ7O-216" value="" style="whiteSpace=wrap;html=1;aspect=fixed;fillColor=#B3FF66;container=0;strokeColor=default;" vertex="1" parent="vHsZxBeeYl8psc7XBQ7O-670">
          <mxGeometry x="40" y="40" width="20" height="20" as="geometry" />
        </mxCell>
        <mxCell id="vHsZxBeeYl8psc7XBQ7O-217" value="" style="whiteSpace=wrap;html=1;aspect=fixed;fillColor=#FF0000;container=0;strokeColor=default;" vertex="1" parent="vHsZxBeeYl8psc7XBQ7O-670">
          <mxGeometry x="40" y="60" width="20" height="20" as="geometry" />
        </mxCell>
        <mxCell id="vHsZxBeeYl8psc7XBQ7O-218" value="" style="whiteSpace=wrap;html=1;aspect=fixed;fillColor=#B3FF66;container=0;strokeColor=default;" vertex="1" parent="vHsZxBeeYl8psc7XBQ7O-670">
          <mxGeometry x="60" y="40" width="20" height="20" as="geometry" />
        </mxCell>
        <mxCell id="vHsZxBeeYl8psc7XBQ7O-219" value="" style="whiteSpace=wrap;html=1;aspect=fixed;fillColor=#330000;container=0;strokeColor=#330000;" vertex="1" parent="vHsZxBeeYl8psc7XBQ7O-670">
          <mxGeometry x="60" y="60" width="20" height="20" as="geometry" />
        </mxCell>
        <mxCell id="vHsZxBeeYl8psc7XBQ7O-220" value="" style="whiteSpace=wrap;html=1;aspect=fixed;fillColor=#B3FF66;container=0;strokeColor=default;" vertex="1" parent="vHsZxBeeYl8psc7XBQ7O-670">
          <mxGeometry x="80" width="20" height="20" as="geometry" />
        </mxCell>
        <mxCell id="vHsZxBeeYl8psc7XBQ7O-221" value="" style="whiteSpace=wrap;html=1;aspect=fixed;fillColor=#B3FF66;container=0;strokeColor=default;" vertex="1" parent="vHsZxBeeYl8psc7XBQ7O-670">
          <mxGeometry x="80" y="20" width="20" height="20" as="geometry" />
        </mxCell>
        <mxCell id="vHsZxBeeYl8psc7XBQ7O-222" value="" style="whiteSpace=wrap;html=1;aspect=fixed;fillColor=#B3FF66;container=0;strokeColor=default;" vertex="1" parent="vHsZxBeeYl8psc7XBQ7O-670">
          <mxGeometry x="100" width="20" height="20" as="geometry" />
        </mxCell>
        <mxCell id="vHsZxBeeYl8psc7XBQ7O-223" value="" style="whiteSpace=wrap;html=1;aspect=fixed;fillColor=#B3FF66;container=0;strokeColor=default;" vertex="1" parent="vHsZxBeeYl8psc7XBQ7O-670">
          <mxGeometry x="100" y="20" width="20" height="20" as="geometry" />
        </mxCell>
        <mxCell id="vHsZxBeeYl8psc7XBQ7O-224" value="" style="whiteSpace=wrap;html=1;aspect=fixed;fillColor=#B3FF66;container=0;strokeColor=default;" vertex="1" parent="vHsZxBeeYl8psc7XBQ7O-670">
          <mxGeometry x="120" width="20" height="20" as="geometry" />
        </mxCell>
        <mxCell id="vHsZxBeeYl8psc7XBQ7O-225" value="" style="whiteSpace=wrap;html=1;aspect=fixed;fillColor=#B3FF66;container=0;strokeColor=default;" vertex="1" parent="vHsZxBeeYl8psc7XBQ7O-670">
          <mxGeometry x="120" y="20" width="20" height="20" as="geometry" />
        </mxCell>
        <mxCell id="vHsZxBeeYl8psc7XBQ7O-226" value="" style="whiteSpace=wrap;html=1;aspect=fixed;fillColor=#B3FF66;container=0;strokeColor=default;" vertex="1" parent="vHsZxBeeYl8psc7XBQ7O-670">
          <mxGeometry x="140" width="20" height="20" as="geometry" />
        </mxCell>
        <mxCell id="vHsZxBeeYl8psc7XBQ7O-227" value="" style="whiteSpace=wrap;html=1;aspect=fixed;fillColor=#B3FF66;container=0;strokeColor=default;" vertex="1" parent="vHsZxBeeYl8psc7XBQ7O-670">
          <mxGeometry x="140" y="20" width="20" height="20" as="geometry" />
        </mxCell>
        <mxCell id="vHsZxBeeYl8psc7XBQ7O-228" value="" style="whiteSpace=wrap;html=1;aspect=fixed;fillColor=#B3FF66;container=0;strokeColor=default;" vertex="1" parent="vHsZxBeeYl8psc7XBQ7O-670">
          <mxGeometry x="80" y="40" width="20" height="20" as="geometry" />
        </mxCell>
        <mxCell id="vHsZxBeeYl8psc7XBQ7O-229" value="" style="whiteSpace=wrap;html=1;aspect=fixed;fillColor=#FF0000;container=0;strokeColor=default;" vertex="1" parent="vHsZxBeeYl8psc7XBQ7O-670">
          <mxGeometry x="80" y="60" width="20" height="20" as="geometry" />
        </mxCell>
        <mxCell id="vHsZxBeeYl8psc7XBQ7O-230" value="" style="whiteSpace=wrap;html=1;aspect=fixed;fillColor=#B3FF66;container=0;strokeColor=default;" vertex="1" parent="vHsZxBeeYl8psc7XBQ7O-670">
          <mxGeometry x="100" y="40" width="20" height="20" as="geometry" />
        </mxCell>
        <mxCell id="vHsZxBeeYl8psc7XBQ7O-231" value="" style="whiteSpace=wrap;html=1;aspect=fixed;fillColor=#FF0000;container=0;strokeColor=default;" vertex="1" parent="vHsZxBeeYl8psc7XBQ7O-670">
          <mxGeometry x="100" y="60" width="20" height="20" as="geometry" />
        </mxCell>
        <mxCell id="vHsZxBeeYl8psc7XBQ7O-232" value="" style="whiteSpace=wrap;html=1;aspect=fixed;fillColor=#B3FF66;container=0;strokeColor=default;" vertex="1" parent="vHsZxBeeYl8psc7XBQ7O-670">
          <mxGeometry x="120" y="40" width="20" height="20" as="geometry" />
        </mxCell>
        <mxCell id="vHsZxBeeYl8psc7XBQ7O-233" value="" style="whiteSpace=wrap;html=1;aspect=fixed;fillColor=#FF0000;container=0;strokeColor=default;" vertex="1" parent="vHsZxBeeYl8psc7XBQ7O-670">
          <mxGeometry x="120" y="60" width="20" height="20" as="geometry" />
        </mxCell>
        <mxCell id="vHsZxBeeYl8psc7XBQ7O-234" value="" style="whiteSpace=wrap;html=1;aspect=fixed;fillColor=#B3FF66;container=0;strokeColor=default;" vertex="1" parent="vHsZxBeeYl8psc7XBQ7O-670">
          <mxGeometry x="140" y="40" width="20" height="20" as="geometry" />
        </mxCell>
        <mxCell id="vHsZxBeeYl8psc7XBQ7O-235" value="" style="whiteSpace=wrap;html=1;aspect=fixed;fillColor=#FF0000;container=0;strokeColor=default;" vertex="1" parent="vHsZxBeeYl8psc7XBQ7O-670">
          <mxGeometry x="140" y="60" width="20" height="20" as="geometry" />
        </mxCell>
        <mxCell id="vHsZxBeeYl8psc7XBQ7O-236" value="" style="whiteSpace=wrap;html=1;aspect=fixed;fillColor=#B3FF66;container=0;strokeColor=default;" vertex="1" parent="vHsZxBeeYl8psc7XBQ7O-670">
          <mxGeometry y="80" width="20" height="20" as="geometry" />
        </mxCell>
        <mxCell id="vHsZxBeeYl8psc7XBQ7O-237" value="" style="whiteSpace=wrap;html=1;aspect=fixed;fillColor=#B3FF66;container=0;strokeColor=default;" vertex="1" parent="vHsZxBeeYl8psc7XBQ7O-670">
          <mxGeometry y="100" width="20" height="20" as="geometry" />
        </mxCell>
        <mxCell id="vHsZxBeeYl8psc7XBQ7O-238" value="" style="whiteSpace=wrap;html=1;aspect=fixed;fillColor=#B3FF66;container=0;strokeColor=default;" vertex="1" parent="vHsZxBeeYl8psc7XBQ7O-670">
          <mxGeometry x="20" y="80" width="20" height="20" as="geometry" />
        </mxCell>
        <mxCell id="vHsZxBeeYl8psc7XBQ7O-239" value="" style="whiteSpace=wrap;html=1;aspect=fixed;fillColor=#B3FF66;container=0;strokeColor=default;" vertex="1" parent="vHsZxBeeYl8psc7XBQ7O-670">
          <mxGeometry x="20" y="100" width="20" height="20" as="geometry" />
        </mxCell>
        <mxCell id="vHsZxBeeYl8psc7XBQ7O-240" value="" style="whiteSpace=wrap;html=1;aspect=fixed;fillColor=#B3FF66;container=0;strokeColor=default;" vertex="1" parent="vHsZxBeeYl8psc7XBQ7O-670">
          <mxGeometry x="40" y="80" width="20" height="20" as="geometry" />
        </mxCell>
        <mxCell id="vHsZxBeeYl8psc7XBQ7O-241" value="" style="whiteSpace=wrap;html=1;aspect=fixed;fillColor=#B3FF66;container=0;strokeColor=default;" vertex="1" parent="vHsZxBeeYl8psc7XBQ7O-670">
          <mxGeometry x="40" y="100" width="20" height="20" as="geometry" />
        </mxCell>
        <mxCell id="vHsZxBeeYl8psc7XBQ7O-242" value="" style="whiteSpace=wrap;html=1;aspect=fixed;fillColor=#B3FF66;container=0;strokeColor=default;" vertex="1" parent="vHsZxBeeYl8psc7XBQ7O-670">
          <mxGeometry x="60" y="80" width="20" height="20" as="geometry" />
        </mxCell>
        <mxCell id="vHsZxBeeYl8psc7XBQ7O-243" value="" style="whiteSpace=wrap;html=1;aspect=fixed;fillColor=#B3FF66;container=0;strokeColor=default;" vertex="1" parent="vHsZxBeeYl8psc7XBQ7O-670">
          <mxGeometry x="60" y="100" width="20" height="20" as="geometry" />
        </mxCell>
        <mxCell id="vHsZxBeeYl8psc7XBQ7O-244" value="" style="whiteSpace=wrap;html=1;aspect=fixed;fillColor=#B3FF66;container=0;strokeColor=default;" vertex="1" parent="vHsZxBeeYl8psc7XBQ7O-670">
          <mxGeometry y="120" width="20" height="20" as="geometry" />
        </mxCell>
        <mxCell id="vHsZxBeeYl8psc7XBQ7O-245" value="" style="whiteSpace=wrap;html=1;aspect=fixed;fillColor=#B3FF66;container=0;strokeColor=default;" vertex="1" parent="vHsZxBeeYl8psc7XBQ7O-670">
          <mxGeometry y="140" width="20" height="20" as="geometry" />
        </mxCell>
        <mxCell id="vHsZxBeeYl8psc7XBQ7O-246" value="" style="whiteSpace=wrap;html=1;aspect=fixed;fillColor=#B3FF66;container=0;strokeColor=default;" vertex="1" parent="vHsZxBeeYl8psc7XBQ7O-670">
          <mxGeometry x="20" y="120" width="20" height="20" as="geometry" />
        </mxCell>
        <mxCell id="vHsZxBeeYl8psc7XBQ7O-247" value="" style="whiteSpace=wrap;html=1;aspect=fixed;fillColor=#B3FF66;container=0;strokeColor=default;" vertex="1" parent="vHsZxBeeYl8psc7XBQ7O-670">
          <mxGeometry x="20" y="140" width="20" height="20" as="geometry" />
        </mxCell>
        <mxCell id="vHsZxBeeYl8psc7XBQ7O-248" value="" style="whiteSpace=wrap;html=1;aspect=fixed;fillColor=#B3FF66;container=0;strokeColor=default;" vertex="1" parent="vHsZxBeeYl8psc7XBQ7O-670">
          <mxGeometry x="40" y="120" width="20" height="20" as="geometry" />
        </mxCell>
        <mxCell id="vHsZxBeeYl8psc7XBQ7O-249" value="" style="whiteSpace=wrap;html=1;aspect=fixed;fillColor=#B3FF66;container=0;strokeColor=default;" vertex="1" parent="vHsZxBeeYl8psc7XBQ7O-670">
          <mxGeometry x="40" y="140" width="20" height="20" as="geometry" />
        </mxCell>
        <mxCell id="vHsZxBeeYl8psc7XBQ7O-250" value="" style="whiteSpace=wrap;html=1;aspect=fixed;fillColor=#B3FF66;container=0;strokeColor=default;" vertex="1" parent="vHsZxBeeYl8psc7XBQ7O-670">
          <mxGeometry x="60" y="120" width="20" height="20" as="geometry" />
        </mxCell>
        <mxCell id="vHsZxBeeYl8psc7XBQ7O-251" value="" style="whiteSpace=wrap;html=1;aspect=fixed;fillColor=#B3FF66;container=0;strokeColor=default;" vertex="1" parent="vHsZxBeeYl8psc7XBQ7O-670">
          <mxGeometry x="60" y="140" width="20" height="20" as="geometry" />
        </mxCell>
        <mxCell id="vHsZxBeeYl8psc7XBQ7O-252" value="" style="whiteSpace=wrap;html=1;aspect=fixed;fillColor=#B3FF66;container=0;strokeColor=default;" vertex="1" parent="vHsZxBeeYl8psc7XBQ7O-670">
          <mxGeometry x="80" y="80" width="20" height="20" as="geometry" />
        </mxCell>
        <mxCell id="vHsZxBeeYl8psc7XBQ7O-253" value="" style="whiteSpace=wrap;html=1;aspect=fixed;fillColor=#B3FF66;container=0;strokeColor=default;" vertex="1" parent="vHsZxBeeYl8psc7XBQ7O-670">
          <mxGeometry x="80" y="100" width="20" height="20" as="geometry" />
        </mxCell>
        <mxCell id="vHsZxBeeYl8psc7XBQ7O-254" value="" style="whiteSpace=wrap;html=1;aspect=fixed;fillColor=#B3FF66;container=0;strokeColor=default;" vertex="1" parent="vHsZxBeeYl8psc7XBQ7O-670">
          <mxGeometry x="100" y="80" width="20" height="20" as="geometry" />
        </mxCell>
        <mxCell id="vHsZxBeeYl8psc7XBQ7O-255" value="" style="whiteSpace=wrap;html=1;aspect=fixed;fillColor=#B3FF66;container=0;strokeColor=default;" vertex="1" parent="vHsZxBeeYl8psc7XBQ7O-670">
          <mxGeometry x="100" y="100" width="20" height="20" as="geometry" />
        </mxCell>
        <mxCell id="vHsZxBeeYl8psc7XBQ7O-256" value="" style="whiteSpace=wrap;html=1;aspect=fixed;fillColor=#B3FF66;container=0;strokeColor=default;" vertex="1" parent="vHsZxBeeYl8psc7XBQ7O-670">
          <mxGeometry x="120" y="80" width="20" height="20" as="geometry" />
        </mxCell>
        <mxCell id="vHsZxBeeYl8psc7XBQ7O-257" value="" style="whiteSpace=wrap;html=1;aspect=fixed;fillColor=#B3FF66;container=0;strokeColor=default;" vertex="1" parent="vHsZxBeeYl8psc7XBQ7O-670">
          <mxGeometry x="120" y="100" width="20" height="20" as="geometry" />
        </mxCell>
        <mxCell id="vHsZxBeeYl8psc7XBQ7O-258" value="" style="whiteSpace=wrap;html=1;aspect=fixed;fillColor=#B3FF66;container=0;strokeColor=default;" vertex="1" parent="vHsZxBeeYl8psc7XBQ7O-670">
          <mxGeometry x="140" y="80" width="20" height="20" as="geometry" />
        </mxCell>
        <mxCell id="vHsZxBeeYl8psc7XBQ7O-259" value="" style="whiteSpace=wrap;html=1;aspect=fixed;fillColor=#B3FF66;container=0;strokeColor=default;" vertex="1" parent="vHsZxBeeYl8psc7XBQ7O-670">
          <mxGeometry x="140" y="100" width="20" height="20" as="geometry" />
        </mxCell>
        <mxCell id="vHsZxBeeYl8psc7XBQ7O-260" value="" style="whiteSpace=wrap;html=1;aspect=fixed;fillColor=#B3FF66;container=0;strokeColor=default;" vertex="1" parent="vHsZxBeeYl8psc7XBQ7O-670">
          <mxGeometry x="80" y="120" width="20" height="20" as="geometry" />
        </mxCell>
        <mxCell id="vHsZxBeeYl8psc7XBQ7O-261" value="" style="whiteSpace=wrap;html=1;aspect=fixed;fillColor=#B3FF66;container=0;strokeColor=default;" vertex="1" parent="vHsZxBeeYl8psc7XBQ7O-670">
          <mxGeometry x="80" y="140" width="20" height="20" as="geometry" />
        </mxCell>
        <mxCell id="vHsZxBeeYl8psc7XBQ7O-262" value="" style="whiteSpace=wrap;html=1;aspect=fixed;fillColor=#B3FF66;container=0;strokeColor=default;" vertex="1" parent="vHsZxBeeYl8psc7XBQ7O-670">
          <mxGeometry x="100" y="120" width="20" height="20" as="geometry" />
        </mxCell>
        <mxCell id="vHsZxBeeYl8psc7XBQ7O-263" value="" style="whiteSpace=wrap;html=1;aspect=fixed;fillColor=#B3FF66;container=0;strokeColor=default;" vertex="1" parent="vHsZxBeeYl8psc7XBQ7O-670">
          <mxGeometry x="100" y="140" width="20" height="20" as="geometry" />
        </mxCell>
        <mxCell id="vHsZxBeeYl8psc7XBQ7O-264" value="" style="whiteSpace=wrap;html=1;aspect=fixed;fillColor=#B3FF66;container=0;strokeColor=default;" vertex="1" parent="vHsZxBeeYl8psc7XBQ7O-670">
          <mxGeometry x="120" y="120" width="20" height="20" as="geometry" />
        </mxCell>
        <mxCell id="vHsZxBeeYl8psc7XBQ7O-265" value="" style="whiteSpace=wrap;html=1;aspect=fixed;fillColor=#B3FF66;container=0;strokeColor=default;" vertex="1" parent="vHsZxBeeYl8psc7XBQ7O-670">
          <mxGeometry x="120" y="140" width="20" height="20" as="geometry" />
        </mxCell>
        <mxCell id="vHsZxBeeYl8psc7XBQ7O-266" value="" style="whiteSpace=wrap;html=1;aspect=fixed;fillColor=#B3FF66;container=0;strokeColor=default;" vertex="1" parent="vHsZxBeeYl8psc7XBQ7O-670">
          <mxGeometry x="140" y="120" width="20" height="20" as="geometry" />
        </mxCell>
        <mxCell id="vHsZxBeeYl8psc7XBQ7O-267" value="" style="whiteSpace=wrap;html=1;aspect=fixed;fillColor=#B3FF66;container=0;strokeColor=default;" vertex="1" parent="vHsZxBeeYl8psc7XBQ7O-670">
          <mxGeometry x="140" y="140" width="20" height="20" as="geometry" />
        </mxCell>
        <mxCell id="vHsZxBeeYl8psc7XBQ7O-674" style="edgeStyle=orthogonalEdgeStyle;rounded=0;orthogonalLoop=1;jettySize=auto;html=1;exitX=0;exitY=0;exitDx=0;exitDy=0;entryX=0;entryY=0;entryDx=0;entryDy=0;" edge="1" parent="1" source="vHsZxBeeYl8psc7XBQ7O-200" target="vHsZxBeeYl8psc7XBQ7O-501">
          <mxGeometry relative="1" as="geometry">
            <Array as="points">
              <mxPoint x="760" y="120" />
              <mxPoint x="760" y="240" />
            </Array>
          </mxGeometry>
        </mxCell>
        <mxCell id="vHsZxBeeYl8psc7XBQ7O-675" style="edgeStyle=orthogonalEdgeStyle;rounded=0;orthogonalLoop=1;jettySize=auto;html=1;exitX=0;exitY=0;exitDx=0;exitDy=0;entryX=0;entryY=0.75;entryDx=0;entryDy=0;" edge="1" parent="1">
          <mxGeometry relative="1" as="geometry">
            <mxPoint x="680" y="364.99999999999994" as="sourcePoint" />
            <mxPoint x="880" y="240" as="targetPoint" />
            <Array as="points">
              <mxPoint x="760" y="365" />
              <mxPoint x="760" y="240" />
            </Array>
          </mxGeometry>
        </mxCell>
        <mxCell id="vHsZxBeeYl8psc7XBQ7O-676" value="&lt;font style=&quot;font-size: 16px;&quot;&gt;h&lt;sub style=&quot;&quot;&gt;k&lt;/sub&gt;&lt;/font&gt;" style="text;html=1;align=center;verticalAlign=middle;whiteSpace=wrap;rounded=0;" vertex="1" parent="1">
          <mxGeometry x="1080" y="280" width="30" height="22.5" as="geometry" />
        </mxCell>
        <mxCell id="vHsZxBeeYl8psc7XBQ7O-677" value="&lt;font style=&quot;font-size: 16px;&quot;&gt;h&lt;sub style=&quot;&quot;&gt;1&lt;/sub&gt;&lt;/font&gt;" style="text;html=1;align=center;verticalAlign=middle;whiteSpace=wrap;rounded=0;" vertex="1" parent="1">
          <mxGeometry x="1040" y="320" width="30" height="25" as="geometry" />
        </mxCell>
        <mxCell id="vHsZxBeeYl8psc7XBQ7O-678" value="" style="endArrow=none;dashed=1;html=1;dashPattern=1 3;strokeWidth=2;rounded=0;entryX=0.076;entryY=0.9;entryDx=0;entryDy=0;exitX=0.742;exitY=0.117;exitDx=0;exitDy=0;exitPerimeter=0;entryPerimeter=0;" edge="1" parent="1" source="vHsZxBeeYl8psc7XBQ7O-677" target="vHsZxBeeYl8psc7XBQ7O-676">
          <mxGeometry width="50" height="50" relative="1" as="geometry">
            <mxPoint x="1050" y="335" as="sourcePoint" />
            <mxPoint x="1090" y="300" as="targetPoint" />
          </mxGeometry>
        </mxCell>
        <mxCell id="vHsZxBeeYl8psc7XBQ7O-679" value="&lt;font style=&quot;font-size: 16px;&quot;&gt;h&lt;sub style=&quot;&quot;&gt;k&lt;/sub&gt;&lt;/font&gt;" style="text;html=1;align=center;verticalAlign=middle;whiteSpace=wrap;rounded=0;" vertex="1" parent="1">
          <mxGeometry x="720" y="400" width="30" height="25" as="geometry" />
        </mxCell>
        <mxCell id="vHsZxBeeYl8psc7XBQ7O-680" value="&lt;font style=&quot;font-size: 16px;&quot;&gt;h&lt;/font&gt;&lt;font style=&quot;font-size: 13.3333px;&quot;&gt;&lt;sub&gt;(k/2)+1&lt;/sub&gt;&lt;/font&gt;" style="text;html=1;align=left;verticalAlign=middle;whiteSpace=wrap;rounded=0;" vertex="1" parent="1">
          <mxGeometry x="680" y="440" width="30" height="27.5" as="geometry" />
        </mxCell>
        <mxCell id="vHsZxBeeYl8psc7XBQ7O-681" value="" style="endArrow=none;dashed=1;html=1;dashPattern=1 3;strokeWidth=2;rounded=0;entryX=0.076;entryY=0.9;entryDx=0;entryDy=0;exitX=0.742;exitY=0.117;exitDx=0;exitDy=0;exitPerimeter=0;entryPerimeter=0;" edge="1" parent="1" source="vHsZxBeeYl8psc7XBQ7O-680" target="vHsZxBeeYl8psc7XBQ7O-679">
          <mxGeometry width="50" height="50" relative="1" as="geometry">
            <mxPoint x="690" y="457.5" as="sourcePoint" />
            <mxPoint x="730" y="422.5" as="targetPoint" />
          </mxGeometry>
        </mxCell>
        <mxCell id="vHsZxBeeYl8psc7XBQ7O-685" value="&lt;font style=&quot;font-size: 18px;&quot;&gt;n&lt;/font&gt;" style="text;html=1;align=center;verticalAlign=middle;whiteSpace=wrap;rounded=0;" vertex="1" parent="1">
          <mxGeometry x="170" y="320" width="60" height="30" as="geometry" />
        </mxCell>
        <mxCell id="vHsZxBeeYl8psc7XBQ7O-686" value="&lt;span style=&quot;font-size: 18px;&quot;&gt;C&lt;/span&gt;" style="text;html=1;align=center;verticalAlign=middle;whiteSpace=wrap;rounded=0;" vertex="1" parent="1">
          <mxGeometry x="90" y="220" width="30" height="40" as="geometry" />
        </mxCell>
      </root>
    </mxGraphModel>
  </diagram>
</mxfile>
